<svg width="33" height="33" viewBox="0 0 33 33" fill="none" xmlns="http://www.w3.org/2000/svg">
<path id="icon-linkedin" d="M27.7776 27.8225H23.0446V20.3955C23.0446 18.6245 23.0076 16.3485 20.5696 16.3485C18.1016 16.3485 17.7256 18.2695 17.7256 20.2645V27.8215H12.9866V12.5505H17.5386V14.6335H17.5996C18.2356 13.4305 19.7826 12.1655 22.0906 12.1655C26.8916 12.1655 27.7826 15.3265 27.7826 19.4365V27.8215L27.7776 27.8225ZM7.63258 10.4635C6.10558 10.4635 4.88158 9.22851 4.88158 7.70751C4.88158 6.19151 6.11058 4.95851 7.63258 4.95851C9.15458 4.95851 10.3876 6.19151 10.3876 7.70751C10.3876 9.22851 9.15458 10.4635 7.63258 10.4635ZM10.0066 27.8225H5.25758V12.5515H10.0066V27.8225ZM30.1536 0.551514H2.87758C1.57458 0.551514 0.517578 1.58251 0.517578 2.85851V30.2455C0.517578 31.5215 1.57458 32.5525 2.87758 32.5525H30.1486C31.4496 32.5525 32.5176 31.5215 32.5176 30.2455V2.85851C32.5176 1.58251 31.4496 0.551514 30.1486 0.551514L30.1536 0.551514Z" fill="url(#paint0_linear_1195_51)"/>
<defs>
<linearGradient id="paint0_linear_1195_51" x1="32.5176" y1="0.551514" x2="0.516579" y2="32.5515" gradientUnits="userSpaceOnUse">
<stop stop-color="#2781DB"/>
<stop offset="1" stop-color="#093E74"/>
</linearGradient>
</defs>
</svg>
