<svg viewBox="0 0 37 33" fill="none" xmlns="http://www.w3.org/2000/svg">
<path id="icon-react" d="M18.7525 13.4571C16.9846 13.4571 15.5448 14.8969 15.5448 16.6648C15.5448 18.4328 16.9846 19.8725 18.7525 19.8725C20.5205 19.8725 21.9602 18.4328 21.9602 16.6648C21.9602 14.8969 20.5205 13.4571 18.7525 13.4571ZM9.77226 23.0398L9.06418 22.8645C3.79517 21.5292 0.769531 19.2701 0.769531 16.6592C0.769531 14.0483 3.79629 11.7892 9.06418 10.454L9.77226 10.2786L9.9712 10.9811C10.5039 12.8187 11.1884 14.6103 12.0145 16.3434L12.1662 16.6592L12.0145 16.9807C11.1895 18.707 10.5039 20.4986 9.9712 22.343L9.77226 23.0398ZM8.73712 12.0927C4.73253 13.2166 2.27448 14.943 2.27448 16.6592C2.27448 18.3755 4.73366 20.0951 8.73712 21.2258C9.2294 19.6624 9.82059 18.1406 10.5107 16.6592C9.81947 15.1779 9.22828 13.656 8.73712 12.0927ZM27.7328 23.0398L27.5338 22.3373C27.0011 20.4997 26.3166 18.7081 25.4905 16.9807L25.3388 16.6592L25.4905 16.3378C26.3155 14.6114 27.0011 12.8198 27.5338 10.9755L27.7328 10.2786L28.4408 10.454C33.7099 11.7892 36.7355 14.0483 36.7355 16.6592C36.7355 19.2701 33.7087 21.5292 28.4408 22.8645L27.7328 23.0398ZM26.9943 16.6592C27.7148 18.2159 28.3116 19.7444 28.7679 21.2258C32.7781 20.0962 35.2305 18.3755 35.2305 16.6592C35.2305 14.943 32.7714 13.2233 28.7679 12.0927C28.2756 13.6493 27.6844 15.1779 26.9943 16.6592ZM8.72475 12.087L8.52582 11.3846C7.04447 6.16277 7.49517 2.41669 9.76102 1.11067C11.9853 -0.171739 15.5504 1.34445 19.2909 5.18494L19.8 5.70645L19.2909 6.22795C17.9624 7.60927 16.7508 9.09624 15.6617 10.6765L15.4571 10.9631L15.1053 10.9923C13.1913 11.1441 11.2941 11.4486 9.43283 11.9061L8.72475 12.087ZM11.5694 2.15369C11.1659 2.15369 10.8085 2.23573 10.5096 2.41107C9.0226 3.272 8.7596 6.25718 9.7835 10.2842C11.3817 9.92683 12.9968 9.67507 14.631 9.52896C15.5673 8.19372 16.5979 6.91805 17.7039 5.71769C15.3683 3.44059 13.1553 2.15369 11.5694 2.15369ZM25.9412 32.6629C25.9356 32.6629 25.9356 32.6629 25.9412 32.6629C23.8046 32.6629 21.0588 31.0591 18.2141 28.1323L17.705 27.6108L18.2141 27.0893C19.5426 25.708 20.7542 24.2211 21.8433 22.6408L22.0423 22.3542L22.3941 22.3194C24.3081 22.1732 26.2053 21.8687 28.0722 21.4056L28.7803 21.2303L28.9792 21.9327C30.4606 27.1545 30.0099 30.895 27.744 32.1999C27.1933 32.5157 26.5729 32.6753 25.9412 32.6629ZM19.8 27.5996C22.1356 29.8767 24.3486 31.1647 25.9345 31.1647H25.9401C26.338 31.1647 26.6954 31.0771 26.9943 30.9073C28.4813 30.0464 28.7511 27.0612 27.7204 23.0342C26.1222 23.3916 24.5003 23.6433 22.8729 23.7838C21.9366 25.1247 20.906 26.3936 19.8 27.5996ZM28.7803 12.087L28.0722 11.9061C26.2053 11.4498 24.3081 11.1452 22.3941 10.9923L22.0423 10.9631L21.8433 10.6765C20.7542 9.09624 19.5426 7.60927 18.2141 6.22795L17.705 5.70645L18.2141 5.18494C21.9546 1.34445 25.5197 -0.171739 27.744 1.11067C30.0099 2.41556 30.4606 6.16277 28.9792 11.3846L28.7803 12.087ZM22.874 9.52896C24.5835 9.68743 26.211 9.93919 27.7215 10.2842C28.7522 6.25718 28.4824 3.27088 26.9955 2.41107C25.5141 1.55688 22.7279 2.86739 19.8011 5.71881C20.9071 6.9248 21.9321 8.19484 22.874 9.53008V9.52896ZM11.5694 32.6629C10.9367 32.6742 10.3106 32.5168 9.76102 32.201C7.49517 30.8961 7.04447 27.1545 8.52582 21.9338L8.72475 21.2314L9.43283 21.4067C11.1659 21.8462 13.0744 22.1496 15.1053 22.3205L15.4571 22.3553L15.6561 22.6419C16.7452 24.2222 17.9568 25.7091 19.2853 27.0905L19.7944 27.612L19.2853 28.1335C16.4462 31.0602 13.7004 32.6641 11.5694 32.6641V32.6629ZM9.78463 23.0342C8.75398 27.0612 9.02372 30.0475 10.5107 30.9073C11.992 31.7503 14.7727 30.451 17.705 27.5996C16.5991 26.3936 15.5684 25.1236 14.6322 23.7827C12.9991 23.6422 11.3829 23.3916 9.78463 23.0342ZM18.7525 23.976C17.5173 23.976 16.2529 23.9232 14.9828 23.8176L14.631 23.7883L14.4265 23.4961C13.7128 22.4655 13.0328 21.4067 12.4068 20.3176C11.774 19.2285 11.1952 18.117 10.6568 16.9807L10.5051 16.6592L10.6568 16.3378C11.1952 15.2026 11.7751 14.0899 12.4068 13.0008C13.0272 11.9297 13.706 10.8586 14.4265 9.8223L14.631 9.53008L14.9828 9.50086C17.4937 9.28956 20.0169 9.28956 22.5222 9.50086L22.874 9.53008L23.0785 9.8223C24.5127 11.8825 25.7771 14.0663 26.8482 16.3378L27 16.6592L26.8482 16.9807C25.7771 19.2521 24.5183 21.4359 23.0785 23.4961L22.874 23.7883L22.5222 23.8176C21.2578 23.9232 19.9877 23.976 18.7525 23.976ZM15.4628 22.3486C17.6758 22.5183 19.8292 22.5183 22.0479 22.3486C23.2831 20.5402 24.3834 18.6373 25.3377 16.6581C24.3891 14.68 23.2887 12.7771 22.0423 10.9676C19.8528 10.7979 17.6522 10.7979 15.4628 10.9676C14.2163 12.776 13.1148 14.6788 12.1674 16.6581C13.1216 18.6362 14.2219 20.539 15.4628 22.3486Z" fill="url(#paint0_linear_1195_66)"/>
<defs>
<linearGradient id="paint0_linear_1195_66" x1="36.7355" y1="0.664062" x2="4.95268" y2="36.3859" gradientUnits="userSpaceOnUse">
<stop stop-color="#2781DB"/>
<stop offset="1" stop-color="#093E74"/>
</linearGradient>
</defs>
</svg>
