<svg width="28" height="32" viewBox="0 0 28 32" fill="none" xmlns="http://www.w3.org/2000/svg">
<g id="Vector">
<path d="M22.8548 13.6741C23.2206 13.653 23.5964 13.6269 23.6957 13.6109L23.8781 13.5849L23.8991 12.9845C23.9302 12.1286 24.0555 11.6224 24.4263 10.8126C24.6869 10.2383 24.8022 9.73715 24.745 9.3613C24.724 9.19993 24.714 9.18891 24.4945 9.09469C24.0926 8.93333 23.6746 8.82308 23.2467 8.75492C22.8347 8.6978 21.623 8.72887 21.169 8.81807C20.9805 8.84914 20.6368 8.9223 20.4072 8.97943C19.8379 9.10973 19.5353 9.09469 19.1023 8.90627C18.6743 8.71784 18.4027 8.54645 18.1471 8.30591C17.9437 8.11748 17.9226 8.10746 17.8705 8.1706C17.8284 8.21771 17.8074 8.35903 17.7923 8.66171C17.7763 9.12677 17.7031 9.37132 17.4997 9.70006C17.4525 9.76822 17.4165 9.84138 17.3844 9.91455C17.3844 9.93058 17.5407 10.113 17.7342 10.3114C18.4027 11.006 18.7314 11.1834 19.2586 11.1463C19.431 11.1303 19.5513 11.1363 19.5513 11.1564C19.5513 11.1985 19.2115 11.4641 19.0712 11.5372C19.0031 11.5733 18.988 11.6104 18.998 11.6886L19.0812 12.2368C19.1283 12.5505 19.1644 12.6958 19.2115 12.7379C19.3368 12.8422 19.9843 13.1769 20.3912 13.3433C20.9234 13.5578 21.2161 13.636 21.623 13.672C22.1241 13.7141 22.1341 13.7141 22.8548 13.672V13.6741Z" fill="url(#paint0_linear_1865_56)"/>
<path d="M18.4488 15.4651C18.7675 15.2145 19.0181 14.964 19.1584 14.7495C19.2476 14.6192 19.2526 14.5931 19.2105 14.4829C19.1374 14.3155 18.6573 13.8825 18.3907 13.7522C18.2133 13.6741 18.0248 13.6169 17.8324 13.5909L17.5037 13.5488L17.3002 13.2932C16.8772 12.771 16.6427 12.3641 16.308 11.5753C16.0153 10.9068 15.7597 10.5159 15.3528 10.129C15.1854 9.97268 15.0662 9.84239 15.0762 9.84239C15.0972 9.84239 15.2957 9.94161 15.5252 10.0619C15.9061 10.2653 15.9532 10.2814 16.1255 10.2553C16.747 10.1822 17.2952 9.46754 17.4936 8.46527C17.5508 8.18363 17.666 7.89598 17.7863 7.72359C17.7913 7.71858 18.0319 7.87493 18.3135 8.07839C19.0291 8.58454 19.1855 8.66272 19.5924 8.67875C19.859 8.68878 20.0103 8.66873 20.4904 8.55347C21.5137 8.3029 22.6202 8.20368 23.2938 8.29288C23.6746 8.345 24.2229 8.51238 24.6298 8.70481C25.0317 8.89324 25.1099 8.90326 25.2402 8.788C25.3494 8.69379 25.3494 8.67875 25.3494 8.32896C25.3444 7.81179 25.156 7.25353 24.8693 6.91977C24.723 6.74738 24.3111 6.46575 23.9031 6.25126C23.7568 6.17309 23.6105 6.09491 23.4702 6.01673C23.2767 5.90147 23.0582 5.91751 22.4629 6.07386C21.7733 6.25126 21.5909 6.25126 20.8031 6.0478C20.1346 5.88042 20.0935 5.87541 19.435 5.97965C19.0852 6.03177 18.2083 6.0007 17.9156 5.92252C17.7693 5.88042 17.6229 5.83933 17.4826 5.78721C17.227 5.68799 16.783 5.67195 16.3811 5.74512C15.5823 5.88644 14.9769 6.31942 14.7575 6.90875C14.6422 7.20642 14.6582 7.34774 14.8096 7.44095C15.0501 7.5923 15.3678 8.00523 15.3678 8.16659C15.3678 8.17662 15.2897 8.10947 15.2005 8.01525C14.9759 7.78072 14.7725 7.67548 14.5319 7.67548C14.2132 7.68551 13.9266 7.87393 13.7963 8.16058C13.7281 8.34299 13.666 8.53142 13.6189 8.72486C13.4725 9.25706 13.3423 9.5397 13.0656 9.91555C12.8201 10.2553 12.784 10.4067 12.8722 10.7875C13.0917 11.7477 13.4725 12.1346 15.0641 13.0376C15.899 13.5127 16.327 13.7793 16.6407 14.0138C16.8813 14.1912 16.8863 14.2022 16.8652 14.3376C16.8181 14.6513 17.0166 14.99 17.4084 15.2667C17.5077 15.3348 17.5698 15.408 17.5698 15.4601C17.5698 15.5543 17.8364 15.6846 18.0289 15.6846C18.1381 15.6846 18.2223 15.6375 18.4468 15.4651H18.4488Z" fill="url(#paint1_linear_1865_56)"/>
<path d="M22.1762 5.693L22.495 5.52562L22.4849 5.20189C22.4799 4.97738 22.4689 4.75788 22.4589 4.53939L22.4328 4.20564L22.1141 4.45119C21.9257 4.59752 21.7433 4.70677 21.6651 4.7228C21.4356 4.7649 20.303 4.7228 20.1978 4.66568C20.0564 4.56144 19.9261 4.44618 19.8059 4.3209L19.5132 4.02322L19.5082 4.20062C19.5082 4.29484 19.4982 4.4562 19.4771 4.55543C19.4511 4.74385 19.4511 4.74886 19.6545 5.00444C19.7638 5.14576 19.853 5.27104 19.853 5.28608C19.853 5.3853 21.3614 5.85537 21.7012 5.86038C21.8104 5.86038 21.9467 5.81327 22.1762 5.693Z" fill="url(#paint2_linear_1865_56)"/>
<path d="M21.5709 4.50732C21.9467 4.43415 22.1291 4.16254 22.2704 3.47398C22.4168 2.7323 22.4899 1.56867 22.4218 1.07255C22.3586 0.623532 21.8575 0.425083 20.9024 0.456154C20.307 0.477201 20.0615 0.53433 19.858 0.70672C19.7341 0.809797 19.7327 0.821724 19.6775 1.30076L19.6756 1.3171C19.5713 2.26725 19.7277 3.61931 19.9993 4.12545C20.1296 4.37101 20.2449 4.45921 20.4844 4.5013C20.756 4.54841 21.3353 4.54841 21.5699 4.50632L21.5709 4.50732Z" fill="url(#paint3_linear_1865_56)"/>
<path d="M25.152 6.60606C25.4186 6.58001 25.4657 6.54292 25.3504 6.42365C25.2772 6.35049 25.1099 6.34548 24.9746 6.40762C24.8854 6.44971 24.8653 6.43869 24.724 6.28734C24.5777 6.12598 24.5676 6.11997 24.3842 6.14101C24.2169 6.16206 24.1908 6.15705 24.1697 6.0889C24.1016 5.97363 24.0234 5.87441 23.9292 5.78621C23.8089 5.6509 23.6626 5.54567 23.4962 5.47851C23.1725 5.35323 22.9901 5.36927 22.6814 5.54166C21.7884 6.02675 21.8254 6.02174 20.9635 5.80225C20.1597 5.59879 19.5593 5.39031 19.3659 5.25902C19.2045 5.14977 18.8597 5.0295 18.5721 4.99241C18.3576 4.96134 18.2223 5.00845 18.0188 5.17483L17.9096 5.26403L18.0088 5.43642C18.1441 5.67696 18.1291 5.692 17.9256 5.5146C17.7061 5.33218 17.4455 5.2069 17.2782 5.20089C17.1579 5.20089 16.8031 5.35724 16.761 5.42539C16.7449 5.44644 16.8552 5.4725 17.0015 5.48252C17.1529 5.49856 17.3613 5.55068 17.5027 5.60781C17.8685 5.76416 18.0559 5.81628 18.3897 5.84835C18.7555 5.88443 19.418 5.84334 19.4962 5.7802C19.5383 5.74412 19.6525 5.7381 19.8931 5.75915C20.2118 5.7802 20.3421 5.81127 21.0988 6.01473C21.5378 6.135 21.8455 6.12397 22.3677 5.98366C22.6082 5.9155 22.9109 5.84835 23.0362 5.83231C23.2507 5.81127 23.2918 5.82229 23.6265 5.97363C24.1587 6.21418 24.4414 6.36552 24.5977 6.50584C24.7541 6.64114 24.7751 6.64114 25.151 6.61007L25.152 6.60606Z" fill="url(#paint4_linear_1865_56)"/>
<path d="M25.6792 15.856C25.9347 15.7257 26.3316 15.1253 26.478 14.6503C26.5201 14.4829 26.6032 14.3265 26.7235 14.1962C27.1094 13.7683 27.4281 12.9905 27.4331 12.4583C27.4331 11.6284 26.9631 11.3097 26.2795 11.6645C26.1903 11.7066 26.1182 11.7377 26.1071 11.7276C26.071 11.6916 26.2635 11.5031 26.499 11.3568C26.8067 11.1534 26.8648 11.0331 26.8648 10.6001C26.8648 10.2343 26.7756 9.94261 26.5672 9.61888C26.473 9.47756 26.4369 9.38435 26.4519 9.32622L26.5461 8.97643C26.6764 8.51137 26.6293 7.97917 26.4258 7.6404C26.1232 7.12925 25.7523 6.87868 25.2352 6.83659L24.9325 6.81554L25.1099 7.01399C25.6371 7.58328 25.8926 8.29789 25.7884 8.90927C25.7363 9.22298 25.6892 9.28512 25.3865 9.4054L25.2091 9.47856L25.2301 9.71911C25.2662 10.111 25.1991 10.3976 24.9485 10.9248C24.8232 11.1914 24.729 11.431 24.74 11.457C24.7711 11.5462 25.1159 11.7126 25.3875 11.7808L25.6541 11.8439L25.4867 11.901C25.2672 11.9692 25.2201 12.0684 25.2201 12.4282C25.2201 12.757 25.2672 12.8933 25.5068 13.2531C25.616 13.4095 25.6892 13.5718 25.7002 13.665C25.7213 13.8114 25.7162 13.8214 25.596 13.8635C25.4607 13.8996 25.3193 13.9266 25.178 13.9316C24.6869 13.9627 24.6508 13.9787 24.4313 14.1872C24.2329 14.3756 24.2279 14.3857 24.2279 14.5941C24.2279 14.8808 24.3371 15.4611 24.4053 15.5393C24.4945 15.6335 24.9896 15.879 25.183 15.9151C25.3504 15.9572 25.5278 15.9362 25.6792 15.858V15.856Z" fill="url(#paint5_linear_1865_56)"/>
<path d="M17.5618 28.4785C17.5828 28.4625 17.6139 28.1809 17.6249 27.8471C17.667 26.913 17.7031 26.7767 18.1732 25.7223C18.5591 24.8614 18.7635 24.0575 18.7475 23.4883L18.7375 23.1485L18.5911 23.2898C18.2884 23.5925 18.4969 23.1174 18.8577 22.6945C19.1293 22.3707 19.2236 22.1933 19.2646 21.9067C19.2857 21.7914 19.3278 21.7343 19.5052 21.599C20.1787 21.0878 20.6638 20.4404 20.9825 19.6466C21.0557 19.4581 21.2431 18.8167 21.4005 18.2213C21.6931 17.1198 21.8495 16.6448 21.9908 16.4413C22.0429 16.3631 22.064 16.3471 22.054 16.3992C21.9708 16.7129 21.9447 16.8432 21.8766 17.2501C21.8345 17.5057 21.7563 18.0069 21.7042 18.3566C21.6049 19.0723 21.5007 19.5313 21.3594 19.8861L21.2652 20.1266L21.5157 20.7741C21.7763 21.4366 21.8966 21.9177 21.9177 22.3817L21.9337 22.6423L21.7302 22.6844C21.4586 22.7315 21.2241 22.8829 21.0617 23.1024C20.8843 23.358 20.7851 23.5674 20.8322 23.6135C20.8532 23.6346 21.1088 23.6817 21.4015 23.7178C21.8555 23.7699 22.0279 23.7699 22.6283 23.7338C22.8888 23.7238 23.1454 23.6977 23.401 23.6606C23.4581 23.6396 23.5163 23.5253 23.6095 23.2277C23.824 22.5441 23.8651 22.3036 23.839 21.8235L23.8179 21.4005L23.9272 21.2592C24.1828 20.9355 24.3812 20.3512 24.4644 19.6666C24.5636 18.8317 24.3812 17.0828 24.0415 15.5794C23.8801 14.8637 23.8119 14.4358 23.8119 14.1231V13.8464L23.5564 13.8725C22.6373 13.9717 21.5258 13.9457 20.8472 13.8043C20.4764 13.7312 19.5423 13.4546 19.3388 13.3654L19.1775 13.2922L19.1564 13.4746C19.1404 13.5738 19.1253 13.673 19.1043 13.7773C19.0732 13.8865 19.0832 13.9126 19.2767 14.101C19.5172 14.3466 19.5904 14.4719 19.5904 14.6382C19.5904 14.7425 19.5333 14.8267 19.2406 15.1293C19.0261 15.3539 18.7555 15.5944 18.546 15.7297L18.2063 15.9592L18.0599 16.4654C17.5377 18.3186 17.4385 20.0044 17.7833 21.2101L17.8665 21.5128L17.6991 21.7213C17.0727 22.509 16.7019 23.1094 16.6447 23.4442C16.6347 23.5123 16.5816 23.7308 16.5295 23.9353C16.3942 24.4524 16.2889 25.2091 16.2428 26.029C16.2117 26.7125 16.1646 27.4021 16.1075 28.0857L16.0814 28.2891L16.342 28.3673C16.4884 28.4144 16.7079 28.4665 16.8331 28.4876C17.0677 28.5236 17.5017 28.5136 17.5688 28.4775L17.5618 28.4785Z" fill="url(#paint6_linear_1865_56)"/>
<path d="M25.9187 30.9211C26.0751 30.7326 26.054 30.5402 25.8556 30.3207C25.7403 30.2054 25.61 30.1062 25.4637 30.028C25.3173 29.9499 25.171 29.8607 25.0247 29.7675C24.9094 29.6843 24.5446 29.4698 24.2098 29.2874C23.9693 29.1571 23.7348 29.0208 23.5052 28.8754L23.411 28.8023V27.367C23.411 25.9528 23.406 25.9318 23.3328 25.9528C22.967 26.052 22.3617 26.0992 21.5949 26.0831L20.765 26.0731L20.8853 26.3658C21.1098 26.919 21.2251 27.6607 21.2251 28.5116C21.2251 28.8303 21.204 28.9446 21.1259 29.1691C21.0838 29.2783 21.0477 29.3886 21.0106 29.4978C20.9946 29.545 21.0527 29.581 21.2662 29.6442C21.4225 29.6913 21.652 29.7384 21.7833 29.7534L22.0239 29.7795L21.9978 30.02C21.9718 30.2916 22.0028 30.5783 22.071 30.6675C22.1131 30.7196 22.2694 30.7407 22.9951 30.7717C23.5433 30.7978 24.1387 30.8549 24.6077 30.9231C25.0147 30.9862 25.4536 31.0383 25.5839 31.0383C25.8034 31.0433 25.8245 31.0333 25.9177 30.9231L25.9187 30.9211Z" fill="url(#paint7_linear_1865_56)"/>
<path d="M22.6303 25.607C23.0372 25.581 23.408 25.5178 23.4812 25.4557C23.5123 25.4347 23.5493 25.3254 23.5594 25.2152L23.5854 25.0167L23.2617 25.0899C23.0061 25.142 22.7505 25.1731 22.494 25.1941C21.8776 25.2202 21.2572 25.2041 20.6458 25.142C20.4423 25.1109 20.4423 25.1109 20.5045 25.3765C20.5566 25.575 20.5676 25.585 21.0998 25.6221C21.4546 25.6531 21.9507 25.6481 22.6293 25.606L22.6303 25.607Z" fill="url(#paint8_linear_1865_56)"/>
<path d="M22.2905 24.699C22.8227 24.6519 23.4862 24.5376 23.6165 24.4695C23.6586 24.4484 23.6947 24.3702 23.7107 24.281L23.7578 24.0044L23.7839 23.8741L23.6536 23.9002C23.0743 24.0205 22.6353 24.0565 21.7583 24.0565C20.9024 24.0565 20.8031 24.0515 20.5786 23.9733C20.4954 23.9373 20.4012 23.9162 20.307 23.9102C20.2709 23.9313 20.2649 24.2289 20.297 24.4374C20.318 24.5627 20.3391 24.5837 20.4644 24.6198C20.8613 24.7291 21.5298 24.7551 22.2915 24.693L22.2905 24.699Z" fill="url(#paint9_linear_1865_56)"/>
<path d="M17.4255 31.5425C17.6079 31.4904 17.7653 31.334 17.7653 31.1927C17.7653 31.1295 17.7131 30.9471 17.65 30.7858C17.5247 30.4781 17.3102 29.6632 17.3102 29.5279C17.3102 29.4598 17.3152 29.4547 17.4195 29.5119L17.5347 29.575V29.4287C17.5187 29.2934 17.4876 29.1621 17.4455 29.0318C17.3463 28.7341 17.3363 28.7291 16.7039 28.692L16.2759 28.671L16.1195 28.8223C16.0363 28.9115 15.9582 29.0047 15.895 29.115C15.8269 29.2503 15.8008 29.4547 15.8429 29.5009C15.8529 29.5169 15.9582 29.5009 16.0724 29.4748C16.1406 29.4537 16.2077 29.4437 16.2809 29.4387C16.2809 29.4437 16.1656 29.5379 16.0203 29.6372C15.3939 30.1072 15.1744 30.3939 15.1744 30.7597C15.1744 31.1406 15.5342 31.4382 16.0985 31.5274C16.4844 31.5846 17.2361 31.6006 17.4245 31.5435L17.4255 31.5425Z" fill="url(#paint10_linear_1865_56)"/>
<path d="M12.6026 19.9903C13.9386 19.6045 15.6876 18.4709 17.1178 17.0517C17.5828 16.5866 17.64 16.5245 17.7021 16.316L17.7853 16.0494C17.7953 16.0284 17.7121 15.9923 17.6029 15.9662C17.3162 15.8981 17.0967 15.7317 17.0967 15.5804C17.0967 15.4912 17.0446 15.403 16.8933 15.2406C16.6477 14.964 16.5856 14.8437 16.5595 14.5781L16.5385 14.3636L16.2458 14.1551C16.0784 14.0349 15.4941 13.7111 14.8727 13.3984C14.4026 13.1689 13.9386 12.9183 13.4846 12.6467C12.9624 12.2969 12.6126 11.879 12.4142 11.3839C12.3781 11.2846 12.331 11.2015 12.3149 11.2015C12.2728 11.2015 11.0982 12.334 10.597 12.8662C9.36025 14.1712 8.50932 15.3037 7.9711 16.3531C7.8358 16.6137 7.68947 16.9224 7.64737 17.0367L7.56919 17.2451L7.66341 17.5949C7.72054 17.7833 7.84081 18.091 7.93502 18.2735C8.26377 18.9209 8.65565 19.3118 9.30311 19.6305C9.99769 19.9753 10.6131 20.0956 11.6414 20.0795C12.1947 20.0745 12.357 20.0585 12.6016 19.9853L12.6026 19.9903Z" fill="url(#paint11_linear_1865_56)"/>
<path d="M2.05773 15.412C2.93471 14.6342 4.14545 13.7833 5.6288 12.9013C6.6 12.322 10.3535 10.4427 12.0814 9.67501C12.3951 9.53369 12.6767 9.40339 12.7078 9.38836C12.7389 9.36731 12.8281 9.1428 12.9113 8.89224C13.2771 7.73361 13.4595 7.5041 14.122 7.35275C14.2052 7.33171 14.2263 7.30565 14.2263 7.22246C14.2263 7.07112 14.3305 6.72133 14.4197 6.56497C14.4878 6.4447 14.4878 6.43969 14.4297 6.45572C14.3936 6.46575 14.1741 6.52889 13.9446 6.59704C10.7604 7.51612 7.97812 8.73688 5.57669 10.2613C3.01389 11.89 1.53655 13.8424 1.10858 16.1807L1.07751 16.3531L1.39122 16.0454C1.5586 15.873 1.86128 15.5914 2.05973 15.419L2.05773 15.412Z" fill="url(#paint12_linear_1865_56)"/>
</g>
<defs>
<linearGradient id="paint0_linear_1865_56" x1="27.7627" y1="0.00012207" x2="-3.80994" y2="26.788" gradientUnits="userSpaceOnUse">
<stop stop-color="#2781DB"/>
<stop offset="1" stop-color="#093E74"/>
</linearGradient>
<linearGradient id="paint1_linear_1865_56" x1="27.7627" y1="0.00012207" x2="-3.80994" y2="26.788" gradientUnits="userSpaceOnUse">
<stop stop-color="#2781DB"/>
<stop offset="1" stop-color="#093E74"/>
</linearGradient>
<linearGradient id="paint2_linear_1865_56" x1="27.7627" y1="0.00012207" x2="-3.80994" y2="26.788" gradientUnits="userSpaceOnUse">
<stop stop-color="#2781DB"/>
<stop offset="1" stop-color="#093E74"/>
</linearGradient>
<linearGradient id="paint3_linear_1865_56" x1="27.7627" y1="0.00012207" x2="-3.80994" y2="26.788" gradientUnits="userSpaceOnUse">
<stop stop-color="#2781DB"/>
<stop offset="1" stop-color="#093E74"/>
</linearGradient>
<linearGradient id="paint4_linear_1865_56" x1="27.7627" y1="0.00012207" x2="-3.80994" y2="26.788" gradientUnits="userSpaceOnUse">
<stop stop-color="#2781DB"/>
<stop offset="1" stop-color="#093E74"/>
</linearGradient>
<linearGradient id="paint5_linear_1865_56" x1="27.7627" y1="0.00012207" x2="-3.80994" y2="26.788" gradientUnits="userSpaceOnUse">
<stop stop-color="#2781DB"/>
<stop offset="1" stop-color="#093E74"/>
</linearGradient>
<linearGradient id="paint6_linear_1865_56" x1="27.7627" y1="0.00012207" x2="-3.80994" y2="26.788" gradientUnits="userSpaceOnUse">
<stop stop-color="#2781DB"/>
<stop offset="1" stop-color="#093E74"/>
</linearGradient>
<linearGradient id="paint7_linear_1865_56" x1="27.7627" y1="0.00012207" x2="-3.80994" y2="26.788" gradientUnits="userSpaceOnUse">
<stop stop-color="#2781DB"/>
<stop offset="1" stop-color="#093E74"/>
</linearGradient>
<linearGradient id="paint8_linear_1865_56" x1="27.7627" y1="0.00012207" x2="-3.80994" y2="26.788" gradientUnits="userSpaceOnUse">
<stop stop-color="#2781DB"/>
<stop offset="1" stop-color="#093E74"/>
</linearGradient>
<linearGradient id="paint9_linear_1865_56" x1="27.7627" y1="0.00012207" x2="-3.80994" y2="26.788" gradientUnits="userSpaceOnUse">
<stop stop-color="#2781DB"/>
<stop offset="1" stop-color="#093E74"/>
</linearGradient>
<linearGradient id="paint10_linear_1865_56" x1="27.7627" y1="0.00012207" x2="-3.80994" y2="26.788" gradientUnits="userSpaceOnUse">
<stop stop-color="#2781DB"/>
<stop offset="1" stop-color="#093E74"/>
</linearGradient>
<linearGradient id="paint11_linear_1865_56" x1="27.7627" y1="0.00012207" x2="-3.80994" y2="26.788" gradientUnits="userSpaceOnUse">
<stop stop-color="#2781DB"/>
<stop offset="1" stop-color="#093E74"/>
</linearGradient>
<linearGradient id="paint12_linear_1865_56" x1="27.7627" y1="0.00012207" x2="-3.80994" y2="26.788" gradientUnits="userSpaceOnUse">
<stop stop-color="#2781DB"/>
<stop offset="1" stop-color="#093E74"/>
</linearGradient>
</defs>
</svg>
