<svg viewBox="0 0 33 33" fill="none" xmlns="http://www.w3.org/2000/svg">
<path id="icon-js" d="M0.404785 0.960938H32.4048V32.9609H0.404785V0.960938ZM29.7848 25.3309C29.5508 23.8669 28.5968 22.6429 25.7798 21.4979C24.8008 21.0399 23.7068 20.7169 23.3838 19.9769C23.2638 19.5389 23.2428 19.2999 23.3208 19.0389C23.5238 18.1739 24.5398 17.9189 25.3418 18.1589C25.8628 18.3199 26.3418 18.7159 26.6438 19.3569C28.0238 18.4559 28.0238 18.4559 28.9828 17.8569C28.6238 17.2999 28.4468 17.0549 28.2018 16.8209C27.3628 15.8779 26.2438 15.3989 24.4258 15.4409L23.4828 15.5609C22.5818 15.7799 21.7228 16.2589 21.2018 16.8999C19.6858 18.6189 20.1238 21.6189 21.9618 22.8639C23.7798 24.2229 26.4408 24.5199 26.7848 25.8019C27.1028 27.3649 25.6238 27.8649 24.1598 27.6819C23.0818 27.4419 22.4828 26.9009 21.8208 25.9009L19.3828 27.3019C19.6588 27.9429 19.9818 28.2189 20.4608 28.7809C22.7788 31.1199 28.5808 30.9999 29.6218 27.4419C29.6578 27.3219 29.9398 26.4989 29.7208 25.2439L29.7848 25.3309ZM17.8058 15.6689H14.8108C14.8108 18.2519 14.7948 20.8199 14.7948 23.4089C14.7948 25.0499 14.8778 26.5599 14.6128 27.0239C14.1698 27.9409 13.0398 27.8259 12.5238 27.6649C11.9978 27.4049 11.7268 27.0449 11.4198 26.5239C11.3308 26.3829 11.2688 26.2639 11.2478 26.2639L8.81579 27.7639C9.22179 28.6029 9.81579 29.3269 10.5818 29.7849C11.7228 30.4669 13.2538 30.6859 14.8578 30.3269C15.8998 30.0249 16.8008 29.4049 17.2688 28.4469C17.9508 27.2069 17.8048 25.6869 17.7998 23.9829C17.8158 21.2429 17.7998 18.5039 17.7998 15.7429L17.8058 15.6689Z" fill="url(#paint0_linear_1196_175)"/>
<defs>
<linearGradient id="paint0_linear_1196_175" x1="32.4048" y1="0.960938" x2="0.404785" y2="32.9609" gradientUnits="userSpaceOnUse">
<stop stop-color="#2781DB"/>
<stop offset="1" stop-color="#093E74"/>
</linearGradient>
</defs>
</svg>
