<svg width="24" height="25" viewBox="0 0 32 33" fill="none" xmlns="http://www.w3.org/2000/svg">
<path id="icon-check" fill-rule="evenodd" clip-rule="evenodd" d="M16 32.7659C24.8366 32.7659 32 25.6024 32 16.7659C32 7.92931 24.8366 0.765869 16 0.765869C7.16344 0.765869 0 7.92931 0 16.7659C0 25.6024 7.16344 32.7659 16 32.7659ZM13.8138 21.0015L23.8403 10.975C24.8939 10.3014 25.7402 11.4068 25.3257 12.2531C23.5989 13.9805 22.1644 15.414 20.7917 16.7856C18.7648 18.811 16.873 20.7014 14.3751 23.2037C14.1813 23.3978 13.5604 23.4383 13.3042 23.2037C11.8049 21.8304 10.7191 20.8218 9.51667 19.7049C8.84783 19.0837 8.14294 18.4289 7.31078 17.6593C6.37457 16.7935 7.59931 15.3302 8.64073 16.1394L13.8138 21.0015Z" fill="url(#paint0_linear_1255_113)"/>
<defs>
<linearGradient id="paint0_linear_1255_113" x1="32" y1="0.765869" x2="0" y2="32.7659" gradientUnits="userSpaceOnUse">
<stop stop-color="#2781DB"/>
<stop offset="1" stop-color="#093E74"/>
</linearGradient>
</defs>
</svg>
