<svg viewBox="0 0 33 33" fill="none" xmlns="http://www.w3.org/2000/svg">
<path id="icon-sass" d="M16.625 0.960938C25.464 0.960938 32.625 8.12194 32.625 16.9609C32.625 25.7999 25.464 32.9609 16.625 32.9609C7.786 32.9609 0.625 25.7999 0.625 16.9609C0.625 8.12194 7.786 0.960938 16.625 0.960938ZM13.442 22.2889C13.677 23.1539 13.651 23.9559 13.411 24.6799L13.327 24.9199C13.296 25.0029 13.255 25.0809 13.223 25.1549C13.036 25.5459 12.786 25.9039 12.484 26.2379C11.551 27.2489 10.255 27.6339 9.697 27.3109C9.093 26.9619 9.394 25.5299 10.473 24.3879C11.634 23.1639 13.301 22.3769 13.301 22.3769V22.3729L13.442 22.2889ZM26.661 7.80994C25.937 4.96594 21.224 4.03394 16.765 5.61694C14.109 6.55994 11.24 8.03994 9.172 9.97194C6.713 12.2679 6.323 14.2679 6.485 15.1009C7.057 18.0489 11.094 19.9819 12.756 21.4089V21.4199C12.265 21.6589 8.683 23.4559 7.844 25.3209C6.943 27.2779 7.985 28.6799 8.661 28.8569C10.761 29.4399 12.922 28.3769 14.084 26.6579C15.204 24.9769 15.104 22.8209 14.62 21.7579C15.281 21.5809 16.063 21.4969 17.063 21.6169C19.866 21.9399 20.423 23.7009 20.303 24.4199C20.183 25.1389 19.604 25.5599 19.402 25.6799C19.205 25.7999 19.142 25.8359 19.162 25.9199C19.183 26.0399 19.282 26.0399 19.443 26.0189C19.662 25.9829 20.902 25.4199 20.964 24.0599C21.021 22.3359 19.38 20.4199 16.464 20.4559C15.261 20.4829 14.5 20.5809 13.964 20.7999C13.923 20.7429 13.88 20.7009 13.823 20.6589C12.022 18.7219 8.683 17.3629 8.823 14.7789C8.866 13.8419 9.204 11.3629 15.224 8.36294C20.161 5.89894 24.104 6.58194 24.781 8.08194C25.761 10.2219 22.682 14.2019 17.542 14.7789C15.583 14.9979 14.562 14.2429 14.302 13.9619C14.021 13.6589 13.985 13.6389 13.879 13.7019C13.723 13.7789 13.822 14.0409 13.879 14.2019C14.04 14.6019 14.66 15.3009 15.744 15.6589C16.681 15.9619 18.984 16.1389 21.744 15.0599C24.843 13.8629 27.26 10.5239 26.561 7.72094L26.661 7.80994Z" fill="url(#paint0_linear_1196_172)"/>
<defs>
<linearGradient id="paint0_linear_1196_172" x1="32.625" y1="0.960938" x2="0.625" y2="32.9609" gradientUnits="userSpaceOnUse">
<stop stop-color="#2781DB"/>
<stop offset="1" stop-color="#093E74"/>
</linearGradient>
</defs>
</svg>
