<svg width="34" height="33" viewBox="0 0 34 33" fill="none" xmlns="http://www.w3.org/2000/svg">
<path id="icon-github" d="M17.1155 0.552539C8.05328 0.552539 0.711426 7.90054 0.711426 16.9566C0.711426 24.2083 5.4112 30.3547 11.9246 32.5231C12.7479 32.6779 13.0452 32.1704 13.0452 31.7316C13.0452 31.342 13.036 30.3116 13.0299 28.9439C8.46441 29.9323 7.50272 26.7386 7.50272 26.7386C6.75531 24.848 5.67674 24.3405 5.67674 24.3405C4.19217 23.3265 5.79464 23.3481 5.79464 23.3481C7.43915 23.4598 8.30447 25.0346 8.30447 25.0346C9.76751 27.5444 12.143 26.8186 13.0832 26.3962C13.2267 25.3391 13.6543 24.6122 14.1197 24.2072C10.478 23.7961 6.64868 22.3864 6.64868 16.1005C6.64868 14.3053 7.28434 12.8433 8.33523 11.695C8.15375 11.2839 7.59807 9.61272 8.47979 7.35306C8.47979 7.35306 9.8526 6.91527 12.9909 9.0355C14.3043 8.67154 15.6986 8.49007 17.0919 8.48084C18.4863 8.49007 19.8796 8.67256 21.193 9.0355C24.3128 6.91527 25.6846 7.35306 25.6846 7.35306C26.5653 9.61272 26.0096 11.2829 25.8497 11.695C26.8903 12.8433 27.526 14.3063 27.526 16.1005C27.526 22.4007 23.6915 23.7899 20.0457 24.1908C20.6157 24.6819 21.1499 25.6918 21.1499 27.2246C21.1499 29.4186 21.1294 31.1861 21.1294 31.7203C21.1294 32.1468 21.4165 32.6594 22.2613 32.4944C28.8229 30.3485 33.5175 24.197 33.5175 16.9556C33.5175 7.89952 26.1757 0.551514 17.1135 0.551514L17.1155 0.552539Z" fill="url(#paint0_linear_1195_48)"/>
<defs>
<linearGradient id="paint0_linear_1195_48" x1="33.5175" y1="0.551514" x2="1.52745" y2="33.3475" gradientUnits="userSpaceOnUse">
<stop stop-color="#2781DB"/>
<stop offset="1" stop-color="#093E74"/>
</linearGradient>
</defs>
</svg>
