<svg width="170" height="108" viewBox="0 0 170 108" fill="none" xmlns="http://www.w3.org/2000/svg">
<g id="Card-nubank" clip-path="url(#clip0_843_11)">
<g id="Group 519">
<g id="Rectangle 970" filter="url(#filter0_bi_843_11)">
<rect width="170" height="108" rx="6" fill="url(#paint0_linear_843_11)"/>
</g>
<text id="Rodrigo T Dias" fill="#FEFBFF" xml:space="preserve" style="white-space: pre" font-family="Montserrat" font-size="6" font-weight="600" letter-spacing="0.1em"><tspan x="48.1367" y="76.8405">RODRIGO T DIAS</tspan></text>
<path id="Union" fill-rule="evenodd" clip-rule="evenodd" d="M20.7331 69.106C20.7331 69.1088 20.7333 69.1081 20.7345 69.1041C20.7384 69.0909 20.7529 69.0422 20.8055 68.9644C20.8671 68.8732 20.9677 68.7627 21.1165 68.6583C21.4108 68.4518 21.901 68.2646 22.6583 68.3121C24.1431 68.4054 25.3095 68.8909 26.0994 69.5154C26.8952 70.1446 27.2892 70.8961 27.2892 71.5223V79.375C27.2892 79.4829 27.2614 79.5194 27.244 79.535C27.2205 79.5559 27.1556 79.5918 26.9915 79.5918H25.2194C25.0553 79.5918 24.9903 79.5559 24.9668 79.535C24.9494 79.5194 24.9216 79.4829 24.9216 79.375V72.1263C24.9216 71.6217 24.6333 71.1328 24.2291 70.779C23.8214 70.4221 23.2652 70.174 22.674 70.174H20.7331V69.106ZM22.674 70.674H20.7331V79.375C20.7331 79.5845 20.6862 79.7944 20.5119 79.9362C20.352 80.0662 20.1381 80.0918 19.9353 80.0918H18.131C17.9501 80.0918 17.7477 80.0626 17.5869 79.9426C17.411 79.8115 17.3333 79.6101 17.3333 79.375V72.044C17.3333 71.6471 17.5939 71.1815 17.9565 70.8284C18.3272 70.4673 18.8537 70.174 19.4518 70.174H20.2331V69.106C20.2331 68.9706 20.3011 68.8178 20.3911 68.6846C20.4879 68.5412 20.6322 68.3872 20.8293 68.249C21.2267 67.9702 21.832 67.7593 22.6897 67.8131C24.2657 67.9121 25.532 68.4294 26.4095 69.1232C27.2811 69.8123 27.7892 70.6946 27.7892 71.5223V79.375C27.7892 79.5692 27.7364 79.766 27.5766 79.9083C27.4229 80.0453 27.214 80.0918 26.9915 80.0918H25.2194C24.9968 80.0918 24.7879 80.0453 24.6342 79.9083C24.4744 79.766 24.4216 79.5691 24.4216 79.375V72.1263C24.4216 71.8095 24.2333 71.4472 23.8998 71.1552C23.5698 70.8663 23.1272 70.674 22.674 70.674ZM19.4518 70.674H20.2331V79.375C20.2331 79.5193 20.2008 79.5449 20.1966 79.5481L20.1964 79.5483C20.1791 79.5624 20.1192 79.5918 19.9353 79.5918H18.131C17.9897 79.5918 17.9182 79.566 17.8858 79.5418C17.8683 79.5288 17.8333 79.4968 17.8333 79.375V72.044C17.8333 71.8368 17.9914 71.4924 18.3053 71.1865C18.6111 70.8887 19.0189 70.674 19.4518 70.674ZM36.6273 81.1339C36.6273 81.1311 36.6271 81.1319 36.6259 81.1359C36.622 81.149 36.6075 81.1977 36.5549 81.2755C36.4933 81.3668 36.3927 81.4773 36.2439 81.5816C35.9496 81.7881 35.4594 81.9753 34.7021 81.9278C33.2172 81.8346 32.0509 81.349 31.261 80.7245C30.4652 80.0953 30.0712 79.3439 30.0712 78.7177V70.8649C30.0712 70.7571 30.0989 70.7205 30.1164 70.705C30.1399 70.684 30.2048 70.6482 30.3689 70.6482H32.141C32.3051 70.6482 32.3701 70.684 32.3936 70.705C32.411 70.7205 32.4388 70.7571 32.4388 70.8649L32.4388 78.1136C32.4388 78.6183 32.7271 79.1071 33.1313 79.461C33.539 79.8179 34.0952 80.066 34.6864 80.066H36.6273V81.1339ZM34.6864 79.566H36.6273V70.8649C36.6273 70.6554 36.6742 70.4455 36.8485 70.3038C37.0084 70.1737 37.2223 70.1482 37.4251 70.1482H39.2294C39.4103 70.1482 39.6127 70.1773 39.7735 70.2973C39.9494 70.4285 40.0271 70.6298 40.0271 70.8649V78.196C40.0271 78.5928 39.7665 79.0584 39.4039 79.4116C39.0332 79.7727 38.5067 80.066 37.9086 80.066H37.1273V81.1339C37.1273 81.2693 37.0592 81.4222 36.9693 81.5554C36.8724 81.6988 36.7282 81.8527 36.5311 81.991C36.1337 82.2697 35.5284 82.4807 34.6707 82.4268C33.0947 82.3278 31.8284 81.8105 30.9509 81.1167C30.0793 80.4276 29.5712 79.5453 29.5712 78.7177V70.8649C29.5712 70.6708 29.624 70.474 29.7838 70.3316C29.9375 70.1947 30.1464 70.1482 30.3689 70.1482H32.141C32.3636 70.1482 32.5725 70.1947 32.7262 70.3316C32.886 70.474 32.9388 70.6708 32.9388 70.8649V78.1136C32.9388 78.4305 33.127 78.7927 33.4606 79.0847C33.7906 79.3736 34.2332 79.566 34.6864 79.566ZM37.9086 79.566H37.1273V70.8649C37.1273 70.7206 37.1596 70.6951 37.1638 70.6918L37.164 70.6916C37.1813 70.6776 37.2412 70.6482 37.4251 70.6482H39.2294C39.3707 70.6482 39.4422 70.6739 39.4746 70.6981C39.4921 70.7111 39.5271 70.7431 39.5271 70.8649V78.196C39.5271 78.4031 39.369 78.7476 39.055 79.0534C38.7492 79.3513 38.3414 79.566 37.9086 79.566Z" fill="#FEFBFF"/>
<g id="Group 303">
<rect id="Rectangle 344" x="17.2656" y="39.1902" width="19.8301" height="13.2434" rx="1.75" fill="url(#paint1_linear_843_11)" stroke="#211F21" stroke-width="0.5"/>
<path id="Vector 9" d="M17.3057 43.4756H23.2595" stroke="#211F21" stroke-width="0.5" stroke-linecap="round"/>
<path id="Vector 10" d="M17.3057 47.7361H23.129" stroke="#211F21" stroke-width="0.5" stroke-linecap="round"/>
<path id="Vector 11" d="M31.2461 47.7361H37.0547" stroke="#211F21" stroke-width="0.5" stroke-linecap="round"/>
<path id="Vector 12" d="M31.1592 43.613H37.0551" stroke="#211F21" stroke-width="0.5" stroke-linecap="round"/>
<ellipse id="Ellipse 12" cx="27.1808" cy="41.1394" rx="0.435645" ry="0.412302" fill="#211F21"/>
<g id="Vector 13">
<path d="M47.8326 48.688C48.9036 46.1437 49.0256 44.7074 47.8326 42.117C47.706 41.8421 47.8327 41.613 47.9779 41.5672C48.1231 41.5214 48.3477 41.5672 48.4861 41.8421C49.8914 44.6327 49.8059 46.1976 48.5587 48.9887C48.4135 49.2635 48.1417 49.2982 47.9778 49.1948C47.7862 49.0739 47.7422 48.9029 47.8326 48.688Z" fill="#FEFBFF"/>
<path d="M46.3079 42.3231C46.1627 42.3918 46.0698 42.6525 46.2353 42.9416C47.2122 44.8653 47.1721 45.9654 46.2353 47.9579C46.133 48.1588 46.1963 48.3808 46.3805 48.4389C46.5983 48.5077 46.7885 48.3614 46.8887 48.1641C47.9642 46.0465 47.9926 44.83 46.8887 42.598C46.7868 42.3918 46.5257 42.22 46.3079 42.3231Z" fill="#FEFBFF"/>
<path d="M44.8557 43.2164C44.6379 43.2852 44.5993 43.5133 44.7105 43.7662C45.2887 45.0811 45.3799 45.8184 44.7105 47.1333C44.58 47.3624 44.5371 47.6054 44.7831 47.6831C45.0292 47.7607 45.2065 47.6382 45.2914 47.4769C46.1492 45.8667 45.957 44.964 45.2914 43.3539C45.2346 43.2164 45.0736 43.1477 44.8557 43.2164Z" fill="#FEFBFF"/>
<path d="M43.331 43.7662C43.1131 43.9036 43.0822 44.1121 43.2584 44.4534C43.6258 45.1775 43.6175 45.5843 43.2584 46.3087C43.0914 46.6282 43.0405 46.9959 43.331 47.0646C43.6214 47.1333 43.7504 47.0357 43.9118 46.6523C44.2827 45.6434 44.3189 45.0729 43.9118 44.041C43.8181 43.7734 43.6214 43.6287 43.331 43.7662Z" fill="#FEFBFF"/>
</g>
<path id="Vector 14" d="M30.3753 41.9637C29.8182 40.1678 28.7779 39.2837 27.108 39.2837C25.075 39.2837 24.5004 40.7488 23.2598 43.4067C24.0542 45.1662 24.0625 46.114 23.2598 47.7359C24.5612 51.2698 25.5253 52.3581 27.1806 52.3399C29.3588 52.3399 29.9788 50.5927 31.174 47.7359C30.5454 46.1256 30.4783 45.237 31.063 43.6268" stroke="#211F21" stroke-width="0.5" stroke-linecap="round"/>
</g>
<g id="Group 518">
<ellipse id="Ellipse 16" cx="140.021" cy="12.8284" rx="9" ry="7.69856" fill="#E71924"/>
<ellipse id="Ellipse 17" cx="151.83" cy="12.8284" rx="9" ry="7.69856" fill="#F99F19"/>
</g>
</g>
</g>
<defs>
<filter id="filter0_bi_843_11" x="-59.4407" y="-59.4407" width="288.881" height="226.881" filterUnits="userSpaceOnUse" color-interpolation-filters="sRGB">
<feFlood flood-opacity="0" result="BackgroundImageFix"/>
<feGaussianBlur in="BackgroundImageFix" stdDeviation="29.7203"/>
<feComposite in2="SourceAlpha" operator="in" result="effect1_backgroundBlur_843_11"/>
<feBlend mode="normal" in="SourceGraphic" in2="effect1_backgroundBlur_843_11" result="shape"/>
<feColorMatrix in="SourceAlpha" type="matrix" values="0 0 0 0 0 0 0 0 0 0 0 0 0 0 0 0 0 0 127 0" result="hardAlpha"/>
<feOffset dx="2.54746" dy="2.54746"/>
<feGaussianBlur stdDeviation="2.54746"/>
<feComposite in2="hardAlpha" operator="arithmetic" k2="-1" k3="1"/>
<feColorMatrix type="matrix" values="0 0 0 0 1 0 0 0 0 1 0 0 0 0 1 0 0 0 0.25 0"/>
<feBlend mode="normal" in2="shape" result="effect2_innerShadow_843_11"/>
</filter>
<linearGradient id="paint0_linear_843_11" x1="143.65" y1="14.58" x2="83.2365" y2="124.194" gradientUnits="userSpaceOnUse">
<stop stop-color="#A950C4"/>
<stop offset="1" stop-color="#82269E"/>
</linearGradient>
<linearGradient id="paint1_linear_843_11" x1="27.1807" y1="38.9402" x2="27.1807" y2="52.6836" gradientUnits="userSpaceOnUse">
<stop stop-color="#F4F4F4"/>
<stop offset="1" stop-color="#D6D6D6"/>
</linearGradient>
<clipPath id="clip0_843_11">
<rect width="170" height="108" fill="white"/>
</clipPath>
</defs>
</svg>
