<svg viewBox="0 0 829 863" fill="none" xmlns="http://www.w3.org/2000/svg">
<g id="svg-hero2">
<path id="circle-hero-3" class="circle-hero-3" d="M364.29 753.371C264.6 665.848 200.313 526.75 220.702 442.686C241.091 358.622 338.434 361.426 438.125 448.949C537.816 536.472 602.103 675.57 581.714 759.634C561.325 843.698 463.981 840.894 364.29 753.371Z" fill="url(#paint0_linear_1532_16)"/>
<path id="circle-hero-2" class="circle-hero-2" d="M727.806 415.556C680.556 537.084 563.947 647.297 467.353 661.723C370.758 676.15 330.756 589.327 378.005 467.8C425.255 346.272 541.864 236.059 638.458 221.633C735.053 207.206 775.055 294.029 727.806 415.556Z" fill="url(#paint1_linear_1532_16)"/>
<path id="circle-hero-1" class="circle-hero-1" d="M505.969 280.884C616.483 355.459 632.129 443.289 540.915 477.059C449.701 510.829 286.168 477.75 175.654 403.175C65.1402 328.6 49.4943 240.769 140.708 207C231.922 173.23 395.455 206.309 505.969 280.884Z" fill="url(#paint2_linear_1532_16)"/>
</g>
<defs>
<linearGradient id="paint0_linear_1532_16" x1="364.29" y1="753.371" x2="547.36" y2="544.851" gradientUnits="userSpaceOnUse">
<stop stop-color="#2781DB"/>
<stop offset="0.874544" stop-color="#2781DB" stop-opacity="0"/>
</linearGradient>
<linearGradient id="paint1_linear_1532_16" x1="727.806" y1="415.556" x2="441.583" y2="304.274" gradientUnits="userSpaceOnUse">
<stop stop-color="#2781DB"/>
<stop offset="0.874544" stop-color="#2781DB" stop-opacity="0"/>
</linearGradient>
<linearGradient id="paint2_linear_1532_16" x1="505.969" y1="280.884" x2="345.917" y2="518.068" gradientUnits="userSpaceOnUse">
<stop stop-color="#2781DB"/>
<stop offset="0.874544" stop-color="#2781DB" stop-opacity="0"/>
</linearGradient>
</defs>
</svg>
