<svg width="1416" height="810" viewBox="0 0 1416 810" fill="none" xmlns="http://www.w3.org/2000/svg">
<g id="svg-squares2">
<g id="squares">
<path id="square-1" class="square-1" d="M246.729 290.92L238.532 294.209L238.718 294.673L237.626 295.111L237.439 294.647L229.243 297.937L229.429 298.401L228.336 298.839L228.15 298.375L219.953 301.665L220.139 302.129L219.046 302.567L218.86 302.103L210.663 305.393L210.85 305.857L209.757 306.295L209.571 305.831L201.374 309.12L201.56 309.584L200.467 310.023L200.281 309.559L192.084 312.848L192.271 313.312L191.178 313.751L190.991 313.287L182.795 316.576L182.981 317.04L181.888 317.479L181.702 317.015L173.505 320.304L173.691 320.768L172.598 321.207L172.412 320.743L164.215 324.032L164.402 324.496L163.309 324.935L163.123 324.471L154.926 327.76L155.112 328.224L154.019 328.662L153.833 328.198L145.636 331.488L145.823 331.952L144.73 332.39L144.543 331.926L136.347 335.216L136.533 335.68L135.44 336.118L135.254 335.654L127.057 338.944L127.243 339.408L126.15 339.846L125.964 339.382L117.767 342.671L117.954 343.135L117.873 343.168L117.905 343.247L117.442 343.435L120.758 351.606L121.221 351.418L121.663 352.508L121.2 352.696L124.515 360.866L124.979 360.678L125.421 361.768L124.958 361.956L128.273 370.127L128.736 369.939L129.179 371.028L128.715 371.216L132.031 379.387L132.494 379.199L132.936 380.288L132.473 380.476L135.789 388.647L136.252 388.459L136.694 389.548L136.231 389.736L139.546 397.907L140.01 397.719L140.452 398.809L139.988 398.997L143.304 407.167L143.767 406.979L144.209 408.069L143.746 408.257L147.062 416.427L147.525 416.239L147.967 417.329L147.504 417.517L150.819 425.688L151.283 425.5L151.725 426.589L151.261 426.777L154.577 434.948L155.04 434.76L155.483 435.849L155.019 436.037L158.335 444.208L158.798 444.02L159.24 445.109L158.777 445.297L162.093 453.468L162.556 453.28L162.998 454.37L162.535 454.558L165.85 462.728L166.314 462.54L166.756 463.63L166.292 463.818L169.608 471.989L170.071 471.801L170.105 471.883L170.186 471.85L170.373 472.314L178.538 469.017L178.351 468.553L179.439 468.114L179.627 468.577L187.791 465.281L187.604 464.817L188.693 464.377L188.88 464.841L197.045 461.544L196.858 461.081L197.946 460.641L198.133 461.105L206.298 457.808L206.111 457.345L207.199 456.905L207.387 457.369L215.551 454.072L215.364 453.608L216.453 453.169L216.64 453.632L224.805 450.336L224.618 449.872L225.706 449.432L225.893 449.896L234.058 446.599L233.871 446.136L234.959 445.696L235.147 446.16L243.311 442.863L243.124 442.399L244.213 441.96L244.4 442.424L252.565 439.127L252.378 438.663L253.466 438.224L253.653 438.687L261.818 435.391L261.631 434.927L262.719 434.487L262.907 434.951L271.071 431.654L270.884 431.191L271.973 430.751L272.16 431.215L280.325 427.918L280.138 427.454L281.226 427.015L281.413 427.479L289.578 424.182L289.391 423.718L290.48 423.279L290.667 423.742L298.831 420.446L298.644 419.982L298.726 419.949L298.693 419.868L299.157 419.682L295.873 411.518L295.409 411.705L294.972 410.616L295.435 410.43L292.152 402.266L291.688 402.453L291.25 401.365L291.714 401.178L288.43 393.015L287.966 393.201L287.529 392.113L287.992 391.926L284.709 383.763L284.245 383.949L283.807 382.861L284.271 382.674L280.987 374.511L280.524 374.697L280.086 373.609L280.55 373.422L277.266 365.259L276.802 365.446L276.364 364.357L276.828 364.171L273.545 356.007L273.081 356.194L272.643 355.105L273.107 354.919L269.823 346.755L269.359 346.942L268.921 345.854L269.385 345.667L266.102 337.504L265.638 337.69L265.2 336.602L265.664 336.415L262.38 328.252L261.916 328.438L261.478 327.35L261.942 327.163L258.659 319L258.195 319.187L257.757 318.098L258.221 317.912L254.937 309.748L254.473 309.935L254.036 308.846L254.499 308.66L251.216 300.496L250.752 300.683L250.314 299.594L250.778 299.408L247.494 291.244L247.03 291.431L246.998 291.35L246.915 291.384L246.729 290.92Z" fill="url(#paint0_linear_1532_20)" stroke="#2781DB" stroke-dasharray="1.15 8.6"/>
<path id="square-2" class="square-2" d="M656.866 583.653L659.676 592.027L660.15 591.868L660.525 592.984L660.051 593.143L662.86 601.516L663.334 601.357L663.709 602.474L663.235 602.633L666.045 611.006L666.519 610.847L666.893 611.963L666.419 612.122L669.229 620.496L669.703 620.337L670.078 621.453L669.604 621.612L672.413 629.985L672.887 629.826L673.262 630.943L672.788 631.102L675.598 639.475L676.072 639.316L676.446 640.432L675.972 640.591L678.782 648.965L679.256 648.806L679.631 649.922L679.157 650.081L681.966 658.454L682.44 658.295L682.815 659.412L682.341 659.571L685.15 667.944L685.625 667.785L685.999 668.901L685.525 669.06L688.335 677.434L688.809 677.275L689.183 678.391L688.709 678.55L691.519 686.923L691.993 686.764L692.368 687.881L691.894 688.04L694.703 696.413L695.177 696.254L695.552 697.37L695.078 697.53L697.888 705.903L698.362 705.744L698.736 706.86L698.262 707.019L701.072 715.392L701.546 715.233L701.574 715.316L701.655 715.288L701.816 715.761L710.165 712.924L710.004 712.451L711.117 712.072L711.278 712.546L719.627 709.708L719.466 709.235L720.579 708.857L720.74 709.33L729.089 706.492L728.928 706.019L730.041 705.641L730.202 706.114L738.551 703.277L738.39 702.803L739.503 702.425L739.664 702.898L748.013 700.061L747.852 699.588L748.965 699.209L749.126 699.683L757.475 696.845L757.314 696.372L758.427 695.993L758.588 696.467L766.937 693.629L766.776 693.156L767.889 692.778L768.05 693.251L776.399 690.414L776.238 689.94L777.351 689.562L777.512 690.035L785.861 687.198L785.7 686.724L786.813 686.346L786.974 686.82L795.323 683.982L795.162 683.509L796.275 683.13L796.436 683.604L804.785 680.766L804.624 680.293L805.737 679.915L805.898 680.388L814.247 677.551L814.086 677.077L815.2 676.699L815.36 677.172L823.709 674.335L823.548 673.861L824.662 673.483L824.822 673.956L833.171 671.119L833.01 670.646L833.094 670.617L833.066 670.534L833.54 670.374L830.721 662.032L830.247 662.192L829.872 661.08L830.345 660.92L827.526 652.578L827.053 652.738L826.677 651.626L827.151 651.466L824.332 643.124L823.858 643.284L823.482 642.172L823.956 642.012L821.137 633.67L820.663 633.83L820.287 632.718L820.761 632.558L817.942 624.216L817.468 624.376L817.093 623.264L817.566 623.104L814.747 614.762L814.274 614.922L813.898 613.81L814.372 613.65L811.553 605.308L811.079 605.468L810.703 604.356L811.177 604.196L808.358 595.854L807.884 596.014L807.508 594.902L807.982 594.742L805.163 586.4L804.689 586.56L804.314 585.448L804.787 585.288L801.968 576.946L801.495 577.106L801.119 575.994L801.593 575.834L798.774 567.492L798.3 567.652L797.924 566.54L798.398 566.38L795.579 558.038L795.105 558.198L794.729 557.086L795.203 556.926L792.384 548.584L791.91 548.744L791.535 547.632L792.008 547.472L789.189 539.13L788.716 539.291L788.688 539.207L788.605 539.235L788.446 538.761L780.106 541.567L780.265 542.041L779.153 542.415L778.994 541.941L770.654 544.747L770.814 545.221L769.702 545.595L769.542 545.122L761.203 547.927L761.362 548.401L760.25 548.775L760.091 548.302L751.751 551.107L751.911 551.581L750.799 551.956L750.639 551.482L742.299 554.288L742.459 554.761L741.347 555.136L741.188 554.662L732.848 557.468L733.007 557.942L731.895 558.316L731.736 557.842L723.396 560.648L723.556 561.122L722.444 561.496L722.284 561.022L713.945 563.828L714.104 564.302L712.992 564.676L712.833 564.202L704.493 567.008L704.653 567.482L703.541 567.856L703.381 567.382L695.042 570.188L695.201 570.662L694.089 571.036L693.93 570.562L685.59 573.368L685.749 573.842L684.637 574.216L684.478 573.742L676.138 576.548L676.298 577.022L675.186 577.396L675.026 576.922L666.687 579.728L666.846 580.202L665.734 580.576L665.575 580.102L657.235 582.908L657.395 583.382L657.312 583.41L657.34 583.494L656.866 583.653Z" fill="url(#paint1_linear_1532_20)" stroke="#2781DB" stroke-dasharray="1.15 8.6"/>
<path id="square-3" class="square-3" d="M1241.67 471.084L1244.76 462.812L1244.3 462.637L1244.71 461.534L1245.18 461.709L1248.27 453.437L1247.8 453.262L1248.22 452.159L1248.69 452.334L1251.78 444.063L1251.31 443.887L1251.73 442.784L1252.19 442.96L1255.29 434.688L1254.82 434.513L1255.23 433.41L1255.7 433.585L1258.8 425.313L1258.33 425.138L1258.74 424.035L1259.21 424.21L1262.31 415.938L1261.84 415.763L1262.25 414.66L1262.72 414.835L1265.81 406.564L1265.35 406.388L1265.76 405.285L1266.23 405.461L1269.32 397.189L1268.85 397.014L1269.27 395.911L1269.74 396.086L1272.83 387.814L1272.36 387.639L1272.78 386.536L1273.24 386.711L1276.34 378.439L1275.87 378.264L1276.28 377.161L1276.75 377.336L1279.85 369.065L1279.38 368.889L1279.79 367.786L1280.26 367.962L1283.36 359.69L1282.89 359.515L1283.3 358.412L1283.77 358.587L1286.86 350.315L1286.4 350.14L1286.81 349.037L1287.28 349.212L1290.37 340.94L1289.9 340.765L1289.93 340.684L1289.85 340.654L1290.03 340.185L1281.76 337.126L1281.58 337.595L1280.48 337.188L1280.65 336.719L1272.38 333.66L1272.21 334.129L1271.11 333.721L1271.28 333.252L1263.01 330.194L1262.84 330.662L1261.73 330.255L1261.91 329.786L1253.64 326.727L1253.46 327.196L1252.36 326.788L1252.53 326.319L1244.26 323.261L1244.09 323.73L1242.99 323.322L1243.16 322.853L1234.89 319.794L1234.72 320.263L1233.62 319.855L1233.79 319.386L1225.52 316.328L1225.34 316.797L1224.24 316.389L1224.42 315.92L1216.15 312.861L1215.97 313.33L1214.87 312.923L1215.04 312.454L1206.77 309.395L1206.6 309.864L1205.5 309.456L1205.67 308.987L1197.4 305.929L1197.23 306.398L1196.12 305.99L1196.3 305.521L1188.03 302.462L1187.85 302.931L1186.75 302.523L1186.92 302.054L1178.65 298.996L1178.48 299.465L1177.38 299.057L1177.55 298.588L1169.28 295.529L1169.11 295.998L1168 295.59L1168.18 295.121L1159.91 292.063L1159.73 292.532L1159.65 292.501L1159.62 292.583L1159.15 292.409L1156.08 300.662L1156.55 300.837L1156.14 301.937L1155.67 301.763L1152.6 310.016L1153.07 310.19L1152.66 311.291L1152.2 311.116L1149.13 319.37L1149.6 319.544L1149.19 320.644L1148.72 320.47L1145.65 328.723L1146.12 328.897L1145.71 329.998L1145.24 329.824L1142.17 338.077L1142.64 338.251L1142.23 339.351L1141.76 339.177L1138.69 347.43L1139.16 347.605L1138.75 348.705L1138.28 348.531L1135.22 356.784L1135.68 356.958L1135.28 358.059L1134.81 357.884L1131.74 366.138L1132.21 366.312L1131.8 367.412L1131.33 367.238L1128.26 375.491L1128.73 375.665L1128.32 376.766L1127.85 376.592L1124.78 384.845L1125.25 385.019L1124.84 386.119L1124.37 385.945L1121.31 394.198L1121.77 394.373L1121.36 395.473L1120.9 395.299L1117.83 403.552L1118.3 403.726L1117.89 404.827L1117.42 404.652L1114.35 412.906L1114.82 413.08L1114.41 414.18L1113.94 414.006L1110.87 422.259L1111.34 422.433L1111.31 422.516L1111.39 422.546L1111.22 423.015L1119.46 426.092L1119.64 425.623L1120.73 426.034L1120.56 426.502L1128.8 429.579L1128.98 429.111L1130.08 429.521L1129.9 429.99L1138.15 433.067L1138.32 432.598L1139.42 433.009L1139.24 433.477L1147.49 436.554L1147.66 436.086L1148.76 436.496L1148.59 436.965L1156.83 440.042L1157.01 439.574L1158.1 439.984L1157.93 440.452L1166.17 443.53L1166.35 443.061L1167.45 443.471L1167.27 443.94L1175.52 447.017L1175.69 446.549L1176.79 446.959L1176.61 447.427L1184.86 450.505L1185.03 450.036L1186.13 450.447L1185.96 450.915L1194.2 453.992L1194.38 453.524L1195.47 453.934L1195.3 454.403L1203.54 457.48L1203.72 457.011L1204.82 457.422L1204.64 457.89L1212.89 460.967L1213.06 460.499L1214.16 460.909L1213.99 461.378L1222.23 464.455L1222.4 463.987L1223.5 464.397L1223.33 464.865L1231.57 467.943L1231.75 467.474L1232.84 467.884L1232.67 468.353L1240.91 471.43L1241.09 470.962L1241.17 470.992L1241.2 470.909L1241.67 471.084Z" fill="url(#paint2_linear_1532_20)" stroke="#2781DB" stroke-dasharray="1.15 8.6"/>
<path id="square-4" class="square-4" d="M818.654 206.07L816.002 197.645L815.525 197.796L815.172 196.672L815.648 196.522L812.997 188.098L812.52 188.248L812.166 187.125L812.643 186.974L809.991 178.55L809.514 178.7L809.16 177.577L809.637 177.427L806.985 169.002L806.509 169.152L806.155 168.029L806.632 167.879L803.98 159.454L803.503 159.604L803.149 158.481L803.626 158.331L800.974 149.906L800.497 150.057L800.144 148.933L800.621 148.783L797.969 140.359L797.492 140.509L797.138 139.386L797.615 139.235L794.963 130.811L794.486 130.961L794.133 129.838L794.61 129.688L791.958 121.263L791.481 121.413L791.127 120.29L791.604 120.14L788.952 111.715L788.475 111.865L788.122 110.742L788.599 110.592L785.947 102.167L785.47 102.318L785.116 101.194L785.593 101.044L782.941 92.6196L782.464 92.7698L782.111 91.6465L782.588 91.4964L779.936 83.0718L779.459 83.222L779.105 82.0987L779.582 81.9486L776.93 73.524L776.453 73.6742L776.427 73.5913L776.345 73.6174L776.193 73.1411L767.793 75.8213L767.945 76.2976L766.824 76.655L766.672 76.1786L758.272 78.8588L758.424 79.3351L757.304 79.6925L757.152 79.2161L748.751 81.8963L748.903 82.3727L747.783 82.73L747.631 82.2537L739.23 84.9338L739.382 85.4102L738.262 85.7675L738.11 85.2912L729.709 87.9714L729.861 88.4477L728.741 88.8051L728.589 88.3287L720.189 91.0089L720.341 91.4852L719.221 91.8426L719.069 91.3662L710.668 94.0464L710.82 94.5228L709.7 94.8801L709.548 94.4038L701.147 97.0839L701.299 97.5603L700.179 97.9176L700.027 97.4413L691.626 100.121L691.778 100.598L690.658 100.955L690.506 100.479L682.106 103.159L682.258 103.635L681.138 103.993L680.986 103.516L672.585 106.197L672.737 106.673L671.617 107.03L671.465 106.554L663.064 109.234L663.216 109.71L662.096 110.068L661.944 109.591L653.543 112.272L653.695 112.748L652.575 113.105L652.423 112.629L644.023 115.309L644.175 115.785L644.09 115.812L644.117 115.896L643.64 116.047L646.302 124.44L646.778 124.289L647.133 125.408L646.657 125.56L649.318 133.953L649.795 133.802L650.15 134.921L649.673 135.072L652.335 143.465L652.812 143.314L653.167 144.433L652.69 144.584L655.352 152.977L655.828 152.826L656.183 153.945L655.707 154.096L658.368 162.49L658.845 162.339L659.2 163.458L658.723 163.609L661.385 172.002L661.862 171.851L662.217 172.97L661.74 173.121L664.402 181.514L664.878 181.363L665.233 182.482L664.757 182.633L667.418 191.027L667.895 190.875L668.25 191.994L667.773 192.146L670.435 200.539L670.912 200.388L671.267 201.507L670.79 201.658L673.452 210.051L673.928 209.9L674.283 211.019L673.807 211.17L676.468 219.563L676.945 219.412L677.3 220.531L676.823 220.682L679.485 229.076L679.962 228.925L680.316 230.044L679.84 230.195L682.502 238.588L682.978 238.437L683.333 239.556L682.857 239.707L685.518 248.1L685.995 247.949L686.021 248.033L686.105 248.006L686.255 248.483L694.646 245.834L694.495 245.358L695.614 245.004L695.765 245.481L704.156 242.832L704.005 242.356L705.124 242.002L705.274 242.479L713.665 239.83L713.515 239.354L714.634 239L714.784 239.477L723.175 236.828L723.024 236.352L724.143 235.998L724.294 236.475L732.685 233.826L732.534 233.35L733.653 232.996L733.803 233.473L742.194 230.824L742.044 230.348L743.162 229.994L743.313 230.471L751.704 227.822L751.553 227.346L752.672 226.992L752.823 227.469L761.214 224.82L761.063 224.344L762.182 223.99L762.332 224.467L770.723 221.818L770.573 221.341L771.691 220.988L771.842 221.465L780.233 218.816L780.082 218.339L781.201 217.986L781.352 218.463L789.742 215.814L789.592 215.337L790.711 214.984L790.861 215.461L799.252 212.812L799.102 212.335L800.22 211.982L800.371 212.459L808.762 209.81L808.611 209.333L809.73 208.98L809.881 209.457L818.271 206.808L818.121 206.331L818.204 206.305L818.177 206.22L818.654 206.07Z" fill="url(#paint3_linear_1532_20)" stroke="#2781DB" stroke-dasharray="1.15 8.6"/>
</g>
</g>
<defs>
<linearGradient id="paint0_linear_1532_20" x1="258.307" y1="395.473" x2="162.144" y2="370.202" gradientUnits="userSpaceOnUse">
<stop stop-color="#2781DB"/>
<stop offset="1" stop-color="#2781DB" stop-opacity="0"/>
</linearGradient>
<linearGradient id="paint1_linear_1532_20" x1="761.914" y1="578.142" x2="731.123" y2="672.683" gradientUnits="userSpaceOnUse">
<stop stop-color="#2781DB"/>
<stop offset="1" stop-color="#2781DB" stop-opacity="0"/>
</linearGradient>
<linearGradient id="paint2_linear_1532_20" x1="1156.64" y1="409.159" x2="1240.12" y2="355.162" gradientUnits="userSpaceOnUse">
<stop stop-color="#2781DB"/>
<stop offset="1" stop-color="#2781DB" stop-opacity="0"/>
</linearGradient>
<linearGradient id="paint3_linear_1532_20" x1="713.521" y1="209.608" x2="746.082" y2="115.661" gradientUnits="userSpaceOnUse">
<stop stop-color="#2781DB"/>
<stop offset="1" stop-color="#2781DB" stop-opacity="0"/>
</linearGradient>
</defs>
</svg>
