<svg viewBox="0 0 1416 811" fill="none" xmlns="http://www.w3.org/2000/svg">
<g id="svg-squares">
<g id="squares">
<g id="square-1" class="square-1" filter="url(#filter0_f_1021_20)">
<path d="M299.376 420.549L247.275 291.023L117.221 343.214L169.829 472.857L299.376 420.549Z" fill="url(#paint0_linear_1021_20)"/>
<path d="M246.729 291.243L238.532 294.532L238.718 294.996L237.625 295.435L237.439 294.971L229.242 298.26L229.429 298.724L228.336 299.163L228.15 298.699L219.953 301.988L220.139 302.452L219.046 302.89L218.86 302.426L210.663 305.716L210.849 306.18L209.757 306.618L209.57 306.154L201.374 309.444L201.56 309.908L200.467 310.346L200.281 309.882L192.084 313.172L192.27 313.636L191.177 314.074L190.991 313.61L182.794 316.899L182.981 317.363L181.888 317.802L181.702 317.338L173.505 320.627L173.691 321.091L172.598 321.53L172.412 321.066L164.215 324.355L164.401 324.819L163.309 325.258L163.122 324.794L154.926 328.083L155.112 328.547L154.019 328.986L153.833 328.522L145.636 331.811L145.822 332.275L144.729 332.714L144.543 332.25L136.346 335.539L136.533 336.003L135.44 336.441L135.254 335.977L127.057 339.267L127.243 339.731L126.15 340.169L125.964 339.705L117.767 342.995L117.953 343.459L117.873 343.491L117.905 343.571L117.442 343.759L120.757 351.929L121.221 351.741L121.663 352.831L121.2 353.019L124.515 361.19L124.979 361.002L125.421 362.091L124.957 362.279L128.273 370.45L128.736 370.262L129.178 371.351L128.715 371.539L132.031 379.71L132.494 379.522L132.936 380.611L132.473 380.799L135.788 388.97L136.252 388.782L136.694 389.872L136.23 390.06L139.546 398.23L140.009 398.042L140.451 399.132L139.988 399.32L143.304 407.491L143.767 407.303L144.209 408.392L143.746 408.58L147.061 416.751L147.525 416.563L147.967 417.652L147.504 417.84L150.819 426.011L151.282 425.823L151.725 426.912L151.261 427.1L154.577 435.271L155.04 435.083L155.482 436.173L155.019 436.361L158.335 444.531L158.798 444.343L159.24 445.433L158.777 445.621L162.092 453.791L162.556 453.603L162.998 454.693L162.534 454.881L165.85 463.052L166.313 462.864L166.755 463.953L166.292 464.141L169.608 472.312L170.071 472.124L170.104 472.206L170.186 472.173L170.373 472.637L178.538 469.34L178.351 468.877L179.439 468.437L179.626 468.901L187.791 465.604L187.604 465.14L188.693 464.701L188.88 465.164L197.044 461.868L196.857 461.404L197.946 460.964L198.133 461.428L206.298 458.131L206.111 457.668L207.199 457.228L207.386 457.692L215.551 454.395L215.364 453.931L216.453 453.492L216.64 453.956L224.804 450.659L224.617 450.195L225.706 449.756L225.893 450.219L234.058 446.923L233.871 446.459L234.959 446.019L235.146 446.483L243.311 443.186L243.124 442.723L244.213 442.283L244.4 442.747L252.564 439.45L252.377 438.986L253.466 438.547L253.653 439.011L261.818 435.714L261.631 435.25L262.719 434.811L262.906 435.274L271.071 431.978L270.884 431.514L271.973 431.074L272.16 431.538L280.325 428.241L280.137 427.778L281.226 427.338L281.413 427.802L289.578 424.505L289.391 424.041L290.479 423.602L290.666 424.066L298.831 420.769L298.644 420.305L298.725 420.272L298.693 420.191L299.157 420.005L295.873 411.841L295.409 412.028L294.971 410.94L295.435 410.753L292.152 402.59L291.688 402.776L291.25 401.688L291.714 401.501L288.43 393.338L287.966 393.524L287.528 392.436L287.992 392.249L284.709 384.086L284.245 384.273L283.807 383.184L284.271 382.998L280.987 374.834L280.523 375.021L280.085 373.932L280.549 373.746L277.266 365.582L276.802 365.769L276.364 364.68L276.828 364.494L273.544 356.331L273.08 356.517L272.643 355.429L273.106 355.242L269.823 347.079L269.359 347.265L268.921 346.177L269.385 345.99L266.101 337.827L265.637 338.013L265.2 336.925L265.664 336.738L262.38 328.575L261.916 328.762L261.478 327.673L261.942 327.487L258.658 319.323L258.195 319.51L257.757 318.421L258.221 318.235L254.937 310.071L254.473 310.258L254.035 309.17L254.499 308.983L251.216 300.82L250.752 301.006L250.314 299.918L250.778 299.731L247.494 291.568L247.03 291.754L246.998 291.674L246.915 291.707L246.729 291.243Z" stroke="#2781DB" stroke-dasharray="1.15 8.6"/>
</g>
<g id="square-2" class="square-2" filter="url(#filter1_f_1021_20)">
<path d="M789.001 538.898L656.679 583.418L701.259 716.274L833.727 671.253L789.001 538.898Z" fill="url(#paint1_linear_1021_20)"/>
<path d="M656.866 583.977L659.676 592.35L660.15 592.191L660.524 593.307L660.05 593.466L662.86 601.839L663.334 601.68L663.709 602.797L663.235 602.956L666.044 611.329L666.518 611.17L666.893 612.287L666.419 612.446L669.229 620.819L669.703 620.66L670.077 621.776L669.603 621.935L672.413 630.309L672.887 630.149L673.261 631.266L672.787 631.425L675.597 639.798L676.071 639.639L676.446 640.756L675.972 640.915L678.781 649.288L679.255 649.129L679.63 650.245L679.156 650.404L681.966 658.778L682.44 658.619L682.814 659.735L682.34 659.894L685.15 668.267L685.624 668.108L685.999 669.225L685.525 669.384L688.334 677.757L688.808 677.598L689.183 678.714L688.709 678.873L691.519 687.247L691.993 687.088L692.367 688.204L691.893 688.363L694.703 696.736L695.177 696.577L695.552 697.694L695.078 697.853L697.887 706.226L698.361 706.067L698.736 707.183L698.262 707.342L701.072 715.716L701.546 715.557L701.573 715.639L701.655 715.611L701.815 716.085L710.164 713.247L710.003 712.774L711.117 712.396L711.277 712.869L719.626 710.031L719.465 709.558L720.579 709.18L720.739 709.653L729.088 706.816L728.927 706.342L730.041 705.964L730.202 706.437L738.55 703.6L738.39 703.127L739.503 702.748L739.664 703.222L748.012 700.384L747.852 699.911L748.965 699.532L749.126 700.006L757.475 697.168L757.314 696.695L758.427 696.317L758.588 696.79L766.937 693.953L766.776 693.479L767.889 693.101L768.05 693.574L776.399 690.737L776.238 690.263L777.351 689.885L777.512 690.359L785.861 687.521L785.7 687.048L786.813 686.669L786.974 687.143L795.323 684.305L795.162 683.832L796.275 683.454L796.436 683.927L804.785 681.09L804.624 680.616L805.737 680.238L805.898 680.711L814.247 677.874L814.086 677.4L815.199 677.022L815.36 677.495L823.709 674.658L823.548 674.185L824.661 673.806L824.822 674.28L833.171 671.442L833.01 670.969L833.094 670.94L833.066 670.857L833.54 670.697L830.721 662.355L830.247 662.515L829.871 661.403L830.345 661.243L827.526 652.901L827.052 653.061L826.676 651.949L827.15 651.789L824.331 643.447L823.857 643.607L823.482 642.495L823.955 642.335L821.136 633.993L820.663 634.153L820.287 633.041L820.761 632.881L817.942 624.539L817.468 624.699L817.092 623.587L817.566 623.427L814.747 615.085L814.273 615.245L813.897 614.133L814.371 613.973L811.552 605.631L811.078 605.792L810.703 604.679L811.176 604.519L808.357 596.177L807.884 596.338L807.508 595.225L807.982 595.065L805.163 586.724L804.689 586.884L804.313 585.771L804.787 585.611L801.968 577.27L801.494 577.43L801.118 576.317L801.592 576.157L798.773 567.816L798.299 567.976L797.924 566.863L798.397 566.703L795.578 558.362L795.105 558.522L794.729 557.409L795.203 557.249L792.384 548.908L791.91 549.068L791.534 547.955L792.008 547.795L789.189 539.454L788.715 539.614L788.687 539.531L788.604 539.559L788.445 539.085L780.105 541.891L780.265 542.364L779.153 542.739L778.993 542.265L770.654 545.071L770.813 545.545L769.701 545.919L769.542 545.445L761.202 548.251L761.362 548.725L760.25 549.099L760.09 548.625L751.751 551.431L751.91 551.905L750.798 552.279L750.639 551.805L742.299 554.611L742.458 555.085L741.346 555.459L741.187 554.985L732.847 557.791L733.007 558.265L731.895 558.639L731.735 558.165L723.396 560.971L723.555 561.445L722.443 561.819L722.284 561.345L713.944 564.151L714.104 564.625L712.992 564.999L712.832 564.525L704.493 567.331L704.652 567.805L703.54 568.179L703.381 567.705L695.041 570.511L695.2 570.985L694.089 571.359L693.929 570.885L685.589 573.691L685.749 574.165L684.637 574.539L684.477 574.065L676.138 576.871L676.297 577.345L675.185 577.719L675.026 577.245L666.686 580.051L666.846 580.525L665.734 580.899L665.574 580.425L657.235 583.231L657.394 583.705L657.312 583.733L657.34 583.818L656.866 583.977Z" stroke="#2781DB" stroke-dasharray="1.15 8.6"/>
</g>
<g id="square-3" class="square-3" filter="url(#filter2_f_1021_20)">
<path d="M1110.67 423.133L1241.46 471.959L1290.58 340.712L1159.36 292.182L1110.67 423.133Z" fill="url(#paint2_linear_1021_20)"/>
<path d="M1241.67 471.407L1244.76 463.135L1244.3 462.96L1244.71 461.857L1245.18 462.032L1248.27 453.761L1247.8 453.585L1248.22 452.482L1248.69 452.658L1251.78 444.386L1251.31 444.211L1251.73 443.108L1252.19 443.283L1255.29 435.011L1254.82 434.836L1255.23 433.733L1255.7 433.908L1258.8 425.636L1258.33 425.461L1258.74 424.358L1259.21 424.533L1262.31 416.262L1261.84 416.086L1262.25 414.983L1262.72 415.159L1265.81 406.887L1265.35 406.712L1265.76 405.609L1266.23 405.784L1269.32 397.512L1268.85 397.337L1269.27 396.234L1269.74 396.409L1272.83 388.137L1272.36 387.962L1272.78 386.859L1273.24 387.034L1276.34 378.763L1275.87 378.587L1276.28 377.484L1276.75 377.66L1279.85 369.388L1279.38 369.213L1279.79 368.11L1280.26 368.285L1283.36 360.013L1282.89 359.838L1283.3 358.735L1283.77 358.91L1286.86 350.638L1286.4 350.463L1286.81 349.36L1287.28 349.535L1290.37 341.264L1289.9 341.088L1289.93 341.007L1289.85 340.977L1290.03 340.508L1281.76 337.45L1281.58 337.919L1280.48 337.511L1280.65 337.042L1272.38 333.983L1272.21 334.452L1271.11 334.044L1271.28 333.575L1263.01 330.517L1262.84 330.986L1261.73 330.578L1261.91 330.109L1253.64 327.05L1253.46 327.519L1252.36 327.111L1252.53 326.643L1244.26 323.584L1244.09 324.053L1242.99 323.645L1243.16 323.176L1234.89 320.117L1234.72 320.586L1233.62 320.179L1233.79 319.71L1225.52 316.651L1225.34 317.12L1224.24 316.712L1224.42 316.243L1216.15 313.185L1215.97 313.654L1214.87 313.246L1215.04 312.777L1206.77 309.718L1206.6 310.187L1205.5 309.779L1205.67 309.31L1197.4 306.252L1197.23 306.721L1196.12 306.313L1196.3 305.844L1188.03 302.785L1187.85 303.254L1186.75 302.847L1186.92 302.378L1178.65 299.319L1178.48 299.788L1177.38 299.38L1177.55 298.911L1169.28 295.853L1169.11 296.321L1168 295.914L1168.18 295.445L1159.91 292.386L1159.73 292.855L1159.65 292.824L1159.62 292.907L1159.15 292.732L1156.08 300.986L1156.55 301.16L1156.14 302.26L1155.67 302.086L1152.6 310.339L1153.07 310.513L1152.66 311.614L1152.2 311.44L1149.13 319.693L1149.6 319.867L1149.19 320.967L1148.72 320.793L1145.65 329.046L1146.12 329.221L1145.71 330.321L1145.24 330.147L1142.17 338.4L1142.64 338.574L1142.23 339.675L1141.76 339.5L1138.69 347.754L1139.16 347.928L1138.75 349.028L1138.28 348.854L1135.22 357.107L1135.68 357.281L1135.28 358.382L1134.81 358.208L1131.74 366.461L1132.21 366.635L1131.8 367.735L1131.33 367.561L1128.26 375.814L1128.73 375.989L1128.32 377.089L1127.85 376.915L1124.78 385.168L1125.25 385.342L1124.84 386.443L1124.37 386.268L1121.31 394.522L1121.77 394.696L1121.36 395.796L1120.9 395.622L1117.83 403.875L1118.3 404.049L1117.89 405.15L1117.42 404.976L1114.35 413.229L1114.82 413.403L1114.41 414.503L1113.94 414.329L1110.87 422.582L1111.34 422.757L1111.31 422.839L1111.39 422.869L1111.22 423.338L1119.46 426.415L1119.64 425.947L1120.73 426.357L1120.56 426.825L1128.8 429.903L1128.98 429.434L1130.08 429.844L1129.9 430.313L1138.15 433.39L1138.32 432.922L1139.42 433.332L1139.24 433.8L1147.49 436.878L1147.66 436.409L1148.76 436.82L1148.59 437.288L1156.83 440.365L1157.01 439.897L1158.1 440.307L1157.93 440.776L1166.17 443.853L1166.35 443.384L1167.45 443.795L1167.27 444.263L1175.52 447.34L1175.69 446.872L1176.79 447.282L1176.61 447.751L1184.86 450.828L1185.03 450.36L1186.13 450.77L1185.96 451.238L1194.2 454.316L1194.38 453.847L1195.47 454.257L1195.3 454.726L1203.54 457.803L1203.72 457.335L1204.82 457.745L1204.64 458.213L1212.89 461.291L1213.06 460.822L1214.16 461.233L1213.99 461.701L1222.23 464.778L1222.4 464.31L1223.5 464.72L1223.33 465.189L1231.57 468.266L1231.75 467.797L1232.84 468.208L1232.67 468.676L1240.91 471.753L1241.09 471.285L1241.17 471.315L1241.2 471.232L1241.67 471.407Z" stroke="#2781DB" stroke-dasharray="1.15 8.6"/>
</g>
<g id="square-4" class="square-4" filter="url(#filter3_f_1021_20)">
<path d="M685.695 248.983L818.83 206.955L776.753 73.2857L643.462 115.811L685.695 248.983Z" fill="url(#paint3_linear_1021_20)"/>
<path d="M818.653 206.393L816.001 197.969L815.524 198.119L815.171 196.996L815.648 196.845L812.996 188.421L812.519 188.571L812.165 187.448L812.642 187.298L809.99 178.873L809.513 179.023L809.16 177.9L809.637 177.75L806.985 169.325L806.508 169.475L806.154 168.352L806.631 168.202L803.979 159.778L803.502 159.928L803.149 158.804L803.626 158.654L800.974 150.23L800.497 150.38L800.143 149.257L800.62 149.106L797.968 140.682L797.491 140.832L797.138 139.709L797.615 139.559L794.963 131.134L794.486 131.284L794.132 130.161L794.609 130.011L791.957 121.586L791.48 121.736L791.127 120.613L791.603 120.463L788.951 112.039L788.475 112.189L788.121 111.065L788.598 110.915L785.946 102.491L785.469 102.641L785.115 101.518L785.592 101.367L782.94 92.9429L782.463 93.093L782.11 91.9697L782.587 91.8196L779.935 83.3951L779.458 83.5452L779.104 82.4219L779.581 82.2718L776.929 73.8473L776.452 73.9974L776.426 73.9146L776.344 73.9407L776.193 73.4643L767.792 76.1445L767.944 76.6209L766.824 76.9782L766.672 76.5019L758.271 79.182L758.423 79.6584L757.303 80.0157L757.151 79.5394L748.75 82.2196L748.902 82.6959L747.782 83.0533L747.63 82.5769L739.23 85.2571L739.381 85.7334L738.261 86.0908L738.109 85.6144L729.709 88.2946L729.861 88.771L728.741 89.1283L728.589 88.652L720.188 91.3321L720.34 91.8085L719.22 92.1658L719.068 91.6895L710.667 94.3697L710.819 94.846L709.699 95.2034L709.547 94.727L701.146 97.4072L701.298 97.8835L700.178 98.2409L700.026 97.7645L691.626 100.445L691.778 100.921L690.658 101.278L690.506 100.802L682.105 103.482L682.257 103.959L681.137 104.316L680.985 103.84L672.584 106.52L672.736 106.996L671.616 107.353L671.464 106.877L663.063 109.557L663.215 110.034L662.095 110.391L661.943 109.915L653.543 112.595L653.695 113.071L652.574 113.429L652.423 112.952L644.022 115.632L644.174 116.109L644.089 116.136L644.116 116.219L643.639 116.371L646.301 124.764L646.778 124.613L647.133 125.732L646.656 125.883L649.318 134.276L649.794 134.125L650.149 135.244L649.673 135.395L652.334 143.788L652.811 143.637L653.166 144.756L652.689 144.907L655.351 153.301L655.828 153.149L656.182 154.269L655.706 154.42L658.368 162.813L658.844 162.662L659.199 163.781L658.723 163.932L661.384 172.325L661.861 172.174L662.216 173.293L661.739 173.444L664.401 181.837L664.878 181.686L665.232 182.805L664.756 182.957L667.418 191.35L667.894 191.199L668.249 192.318L667.773 192.469L670.434 200.862L670.911 200.711L671.266 201.83L670.789 201.981L673.451 210.374L673.928 210.223L674.282 211.342L673.806 211.493L676.468 219.887L676.944 219.735L677.299 220.855L676.822 221.006L679.484 229.399L679.961 229.248L680.316 230.367L679.839 230.518L682.501 238.911L682.977 238.76L683.332 239.879L682.856 240.03L685.518 248.423L685.994 248.272L686.021 248.356L686.104 248.33L686.254 248.806L694.645 246.158L694.495 245.681L695.614 245.328L695.764 245.804L704.155 243.156L704.004 242.679L705.123 242.326L705.274 242.802L713.665 240.154L713.514 239.677L714.633 239.324L714.783 239.8L723.174 237.152L723.024 236.675L724.142 236.322L724.293 236.798L732.684 234.15L732.533 233.673L733.652 233.32L733.803 233.796L742.193 231.148L742.043 230.671L743.162 230.318L743.312 230.794L751.703 228.146L751.553 227.669L752.671 227.316L752.822 227.792L761.213 225.144L761.062 224.667L762.181 224.314L762.332 224.79L770.722 222.142L770.572 221.665L771.691 221.312L771.841 221.788L780.232 219.14L780.082 218.663L781.2 218.31L781.351 218.786L789.742 216.138L789.591 215.661L790.71 215.308L790.861 215.784L799.251 213.136L799.101 212.659L800.22 212.306L800.37 212.782L808.761 210.134L808.61 209.657L809.729 209.304L809.88 209.78L818.271 207.131L818.12 206.655L818.203 206.628L818.176 206.543L818.653 206.393Z" stroke="#2781DB" stroke-dasharray="1.15 8.6"/>
</g>
</g>
</g>
<defs>
<filter id="filter0_f_1021_20" x="97.2207" y="271.023" width="222.155" height="221.833" filterUnits="userSpaceOnUse" color-interpolation-filters="sRGB">
<feFlood flood-opacity="0" result="BackgroundImageFix"/>
<feBlend mode="normal" in="SourceGraphic" in2="BackgroundImageFix" result="shape"/>
<feGaussianBlur stdDeviation="10" result="effect1_foregroundBlur_1021_20"/>
</filter>
<filter id="filter1_f_1021_20" x="636.679" y="518.897" width="217.049" height="217.376" filterUnits="userSpaceOnUse" color-interpolation-filters="sRGB">
<feFlood flood-opacity="0" result="BackgroundImageFix"/>
<feBlend mode="normal" in="SourceGraphic" in2="BackgroundImageFix" result="shape"/>
<feGaussianBlur stdDeviation="10" result="effect1_foregroundBlur_1021_20"/>
</filter>
<filter id="filter2_f_1021_20" x="1090.67" y="272.182" width="219.911" height="219.776" filterUnits="userSpaceOnUse" color-interpolation-filters="sRGB">
<feFlood flood-opacity="0" result="BackgroundImageFix"/>
<feBlend mode="normal" in="SourceGraphic" in2="BackgroundImageFix" result="shape"/>
<feGaussianBlur stdDeviation="10" result="effect1_foregroundBlur_1021_20"/>
</filter>
<filter id="filter3_f_1021_20" x="623.462" y="53.2856" width="215.368" height="215.697" filterUnits="userSpaceOnUse" color-interpolation-filters="sRGB">
<feFlood flood-opacity="0" result="BackgroundImageFix"/>
<feBlend mode="normal" in="SourceGraphic" in2="BackgroundImageFix" result="shape"/>
<feGaussianBlur stdDeviation="10" result="effect1_foregroundBlur_1021_20"/>
</filter>
<linearGradient id="paint0_linear_1021_20" x1="258.307" y1="395.796" x2="162.143" y2="370.525" gradientUnits="userSpaceOnUse">
<stop stop-color="#2781DB"/>
<stop offset="1" stop-color="#2781DB" stop-opacity="0"/>
</linearGradient>
<linearGradient id="paint1_linear_1021_20" x1="761.914" y1="578.465" x2="731.123" y2="673.006" gradientUnits="userSpaceOnUse">
<stop stop-color="#2781DB"/>
<stop offset="1" stop-color="#2781DB" stop-opacity="0"/>
</linearGradient>
<linearGradient id="paint2_linear_1021_20" x1="1156.64" y1="409.483" x2="1240.12" y2="355.485" gradientUnits="userSpaceOnUse">
<stop stop-color="#2781DB"/>
<stop offset="1" stop-color="#2781DB" stop-opacity="0"/>
</linearGradient>
<linearGradient id="paint3_linear_1021_20" x1="713.52" y1="209.931" x2="746.082" y2="115.985" gradientUnits="userSpaceOnUse">
<stop stop-color="#2781DB"/>
<stop offset="1" stop-color="#2781DB" stop-opacity="0"/>
</linearGradient>
</defs>
</svg>
