<svg viewBox="0 0 829 864" fill="none" xmlns="http://www.w3.org/2000/svg">
<g id="svg-hero">
<g id="circle-hero-3" class="circle-hero-3" filter="url(#filter0_bf_1196_69)">
<path d="M364.29 754.059C264.6 666.536 200.313 527.438 220.702 443.374C241.091 359.31 338.434 362.114 438.125 449.637C537.816 537.16 602.103 676.258 581.714 760.322C561.325 844.386 463.981 841.582 364.29 754.059Z" fill="url(#paint0_linear_1196_69)"/>
</g>
<g id="circle-hero-2" class="circle-hero-2" filter="url(#filter1_bf_1196_69)">
<path d="M727.806 416.244C680.556 537.772 563.947 647.984 467.353 662.411C370.758 676.838 330.756 590.015 378.005 468.487C425.255 346.96 541.864 236.747 638.458 222.32C735.053 207.894 775.055 294.716 727.806 416.244Z" fill="url(#paint1_linear_1196_69)"/>
</g>
<g id="circle-hero-1" class="circle-hero-1" filter="url(#filter2_bf_1196_69)">
<path d="M505.969 281.572C616.483 356.146 632.129 443.977 540.915 477.747C449.701 511.516 286.168 478.437 175.654 403.862C65.1402 329.288 49.4943 241.457 140.708 207.687C231.922 173.918 395.455 206.997 505.969 281.572Z" fill="url(#paint2_linear_1196_69)"/>
</g>
</g>
<defs>
<filter id="filter0_bf_1196_69" x="190.929" y="356.115" width="420.558" height="491.465" filterUnits="userSpaceOnUse" color-interpolation-filters="sRGB">
<feFlood flood-opacity="0" result="BackgroundImageFix"/>
<feGaussianBlur in="BackgroundImageFix" stdDeviation="8.3156"/>
<feComposite in2="SourceAlpha" operator="in" result="effect1_backgroundBlur_1196_69"/>
<feBlend mode="normal" in="SourceGraphic" in2="effect1_backgroundBlur_1196_69" result="shape"/>
<feGaussianBlur stdDeviation="13" result="effect2_foregroundBlur_1196_69"/>
</filter>
<filter id="filter1_bf_1196_69" x="332.158" y="194.754" width="441.495" height="495.224" filterUnits="userSpaceOnUse" color-interpolation-filters="sRGB">
<feFlood flood-opacity="0" result="BackgroundImageFix"/>
<feGaussianBlur in="BackgroundImageFix" stdDeviation="8.3156"/>
<feComposite in2="SourceAlpha" operator="in" result="effect1_backgroundBlur_1196_69"/>
<feBlend mode="normal" in="SourceGraphic" in2="effect1_backgroundBlur_1196_69" result="shape"/>
<feGaussianBlur stdDeviation="13" result="effect2_foregroundBlur_1196_69"/>
</filter>
<filter id="filter2_bf_1196_69" x="55.3467" y="168.452" width="570.93" height="348.53" filterUnits="userSpaceOnUse" color-interpolation-filters="sRGB">
<feFlood flood-opacity="0" result="BackgroundImageFix"/>
<feGaussianBlur in="BackgroundImageFix" stdDeviation="8.3156"/>
<feComposite in2="SourceAlpha" operator="in" result="effect1_backgroundBlur_1196_69"/>
<feBlend mode="normal" in="SourceGraphic" in2="effect1_backgroundBlur_1196_69" result="shape"/>
<feGaussianBlur stdDeviation="13" result="effect2_foregroundBlur_1196_69"/>
</filter>
<linearGradient id="paint0_linear_1196_69" x1="364.29" y1="754.059" x2="547.36" y2="545.538" gradientUnits="userSpaceOnUse">
<stop stop-color="#2781DB"/>
<stop offset="0.874544" stop-color="#2781DB" stop-opacity="0"/>
</linearGradient>
<linearGradient id="paint1_linear_1196_69" x1="727.806" y1="416.244" x2="441.583" y2="304.962" gradientUnits="userSpaceOnUse">
<stop stop-color="#2781DB"/>
<stop offset="0.874544" stop-color="#2781DB" stop-opacity="0"/>
</linearGradient>
<linearGradient id="paint2_linear_1196_69" x1="505.969" y1="281.572" x2="345.917" y2="518.756" gradientUnits="userSpaceOnUse">
<stop stop-color="#2781DB"/>
<stop offset="0.874544" stop-color="#2781DB" stop-opacity="0"/>
</linearGradient>
</defs>
</svg>
