<svg viewBox="0 0 852 887" fill="none" xmlns="http://www.w3.org/2000/svg">
<g id="svg-hero">
<g id="group-hero">
<g id="circle-hero-3" class="circle-hero-3" filter="url(#filter0_bf_530_12)">
<path d="M340.383 758.602C235.3 666.346 167.536 519.724 189.028 431.113C210.52 342.502 313.129 345.458 418.212 437.715C523.295 529.971 591.059 676.593 569.567 765.204C548.075 853.815 445.466 850.859 340.383 758.602Z" fill="url(#paint0_linear_530_12)"/>
<path d="M340.713 758.227C340.568 758.099 340.423 757.972 340.278 757.844L339.948 758.22C337.772 756.304 335.612 754.365 333.468 752.404L333.806 752.035C333.52 751.774 333.235 751.513 332.95 751.251L332.612 751.619C330.477 749.656 328.358 747.67 326.257 745.664L326.602 745.302C326.322 745.035 326.043 744.768 325.764 744.5L325.418 744.861C323.324 742.852 321.247 740.822 319.187 738.772L319.54 738.417C319.266 738.145 318.992 737.872 318.719 737.598L318.366 737.952C316.313 735.899 314.279 733.827 312.262 731.736L312.622 731.389C312.423 731.183 312.225 730.977 312.027 730.771L311.817 730.553L311.457 730.899C309.447 728.806 307.455 726.693 305.481 724.564L305.848 724.224C305.723 724.089 305.598 723.954 305.473 723.818C305.335 723.67 305.198 723.521 305.06 723.372L304.693 723.711C302.724 721.576 300.774 719.424 298.843 717.256L299.217 716.924C298.959 716.635 298.703 716.346 298.446 716.056L298.072 716.388C296.145 714.215 294.238 712.026 292.35 709.821L292.73 709.496C292.478 709.202 292.227 708.908 291.976 708.613L291.595 708.938C289.711 706.727 287.847 704.502 286.003 702.262L286.389 701.945C286.143 701.646 285.897 701.347 285.652 701.048L285.265 701.365C283.423 699.118 281.601 696.856 279.799 694.581L280.191 694.271C279.951 693.968 279.711 693.664 279.472 693.361L279.079 693.67C277.28 691.388 275.5 689.092 273.743 686.784L274.14 686.481C273.906 686.173 273.672 685.865 273.438 685.557L273.04 685.859C271.284 683.543 269.549 681.215 267.837 678.876L268.24 678.58C268.011 678.268 267.783 677.955 267.555 677.643L267.151 677.937C265.439 675.589 263.75 673.229 262.082 670.86L262.491 670.572C262.269 670.256 262.046 669.939 261.825 669.622L261.415 669.909C259.745 667.525 258.099 665.132 256.475 662.729L256.889 662.449C256.673 662.129 256.457 661.809 256.242 661.488L255.827 661.767C254.202 659.352 252.601 656.928 251.024 654.496L251.444 654.224C251.233 653.899 251.023 653.574 250.814 653.249L250.393 653.521C248.816 651.076 247.263 648.623 245.734 646.164L246.159 645.9C245.954 645.571 245.75 645.242 245.546 644.912L245.121 645.175C243.592 642.703 242.087 640.223 240.609 637.739L241.038 637.483C240.84 637.149 240.641 636.815 240.444 636.481L240.013 636.736C238.529 634.229 237.071 631.716 235.639 629.199L236.073 628.952C236.028 628.873 235.983 628.793 235.939 628.714C235.928 628.696 235.918 628.678 235.907 628.66C235.772 628.422 235.637 628.184 235.503 627.946L235.068 628.192C233.631 625.654 232.222 623.111 230.841 620.566L231.28 620.327C231.096 619.987 230.912 619.648 230.729 619.308L230.289 619.545C228.905 616.98 227.548 614.412 226.221 611.842L226.665 611.613C226.487 611.269 226.31 610.925 226.133 610.58L225.688 610.809C224.358 608.218 223.057 605.625 221.785 603.032L222.234 602.812C222.063 602.463 221.892 602.115 221.722 601.766L221.273 601.985C219.997 599.366 218.751 596.747 217.536 594.129L217.989 593.918C217.826 593.568 217.664 593.217 217.503 592.866L217.049 593.076C215.825 590.422 214.634 587.769 213.475 585.119L213.933 584.918C213.779 584.566 213.625 584.213 213.472 583.86L213.013 584.059C211.849 581.378 210.718 578.699 209.621 576.024L210.084 575.835C209.937 575.477 209.791 575.12 209.646 574.763L209.183 574.951C208.082 572.245 207.015 569.543 205.984 566.847L206.451 566.668C206.313 566.306 206.175 565.945 206.038 565.583L205.571 565.76C204.536 563.03 203.537 560.305 202.575 557.588L203.047 557.421C202.917 557.055 202.788 556.689 202.66 556.323L202.188 556.488C201.223 553.734 200.296 550.987 199.407 548.249L199.883 548.095C199.763 547.724 199.643 547.354 199.524 546.984L199.048 547.136C198.156 544.356 197.304 541.585 196.493 538.825L196.973 538.684C196.863 538.312 196.754 537.939 196.646 537.567L196.166 537.706C195.35 534.893 194.576 532.092 193.846 529.304L194.33 529.178C194.233 528.807 194.136 528.436 194.041 528.065L193.556 528.19C192.823 525.349 192.135 522.521 191.493 519.71L191.981 519.599C191.895 519.224 191.811 518.85 191.727 518.476L191.239 518.585C190.597 515.721 190.003 512.875 189.458 510.046L189.949 509.952C189.876 509.574 189.804 509.196 189.733 508.819L189.242 508.912C188.698 506.027 188.206 503.162 187.766 500.319L188.26 500.242C188.202 499.861 188.144 499.481 188.087 499.101L187.592 499.175C187.156 496.271 186.775 493.39 186.45 490.535L186.947 490.478C186.903 490.095 186.861 489.712 186.819 489.33L186.322 489.384C186.004 486.464 185.745 483.57 185.545 480.705L186.044 480.67C186.017 480.286 185.991 479.902 185.967 479.518L185.468 479.55C185.28 476.617 185.155 473.714 185.094 470.845L185.594 470.834C185.586 470.449 185.579 470.065 185.573 469.681L185.073 469.688C185.028 466.748 185.052 463.843 185.145 460.976L185.644 460.992C185.657 460.608 185.671 460.224 185.686 459.841L185.186 459.821C185.301 456.882 185.489 453.983 185.753 451.128L186.251 451.174C186.286 450.792 186.323 450.41 186.361 450.03L185.863 449.98C186.155 447.053 186.527 444.172 186.98 441.342L187.474 441.421C187.535 441.043 187.597 440.666 187.66 440.29L187.167 440.207C187.656 437.307 188.231 434.46 188.894 431.671L189.38 431.787C189.424 431.601 189.469 431.416 189.514 431.231C189.559 431.043 189.605 430.855 189.652 430.668L189.166 430.548C189.867 427.716 190.652 424.979 191.517 422.336L191.992 422.492C192.111 422.126 192.233 421.762 192.355 421.4L191.882 421.24C192.818 418.479 193.844 415.823 194.956 413.273L195.414 413.472C195.566 413.124 195.72 412.777 195.875 412.433L195.419 412.227C196.613 409.576 197.902 407.041 199.283 404.622L199.717 404.87C199.903 404.543 200.091 404.219 200.281 403.897L199.85 403.643C201.318 401.148 202.885 398.78 204.548 396.537L204.949 396.835C205.175 396.53 205.403 396.228 205.633 395.928L205.235 395.624C206.991 393.329 208.848 391.17 210.803 389.147L211.163 389.495C211.426 389.223 211.69 388.954 211.956 388.687L211.602 388.334C213.627 386.305 215.754 384.417 217.978 382.671L218.287 383.065C218.582 382.832 218.88 382.603 219.179 382.376L218.877 381.977C221.146 380.255 223.514 378.676 225.974 377.242L226.226 377.674C226.551 377.484 226.878 377.297 227.206 377.113L226.961 376.677C229.43 375.291 231.989 374.047 234.634 372.945L234.826 373.407C235.175 373.262 235.525 373.119 235.877 372.979L235.691 372.514C238.309 371.471 241.008 370.564 243.784 369.794L243.918 370.276C244.278 370.176 244.639 370.079 245.002 369.984L244.875 369.5C247.586 368.788 250.37 368.205 253.222 367.75L253.3 368.244C253.673 368.185 254.046 368.128 254.42 368.073L254.348 367.578C257.119 367.171 259.952 366.884 262.845 366.717L262.874 367.216C263.254 367.194 263.635 367.174 264.018 367.156L263.994 366.657C266.789 366.526 269.637 366.506 272.537 366.596L272.521 367.096C272.893 367.108 273.265 367.121 273.639 367.136L273.659 366.637C276.45 366.75 279.286 366.965 282.166 367.281L282.112 367.778C282.484 367.819 282.857 367.861 283.231 367.905L283.29 367.409C286.065 367.737 288.88 368.159 291.732 368.673L291.643 369.165C292.014 369.232 292.386 369.301 292.758 369.371L292.851 368.88C295.599 369.397 298.381 370.001 301.194 370.69L301.075 371.175C301.443 371.265 301.811 371.357 302.18 371.45L302.303 370.965C305.015 371.65 307.757 372.413 310.525 373.256L310.379 373.734C310.743 373.845 311.107 373.957 311.471 374.07L311.62 373.593C314.292 374.424 316.989 375.329 319.709 376.307L319.54 376.778C319.898 376.907 320.256 377.037 320.615 377.168L320.787 376.699C323.416 377.661 326.067 378.692 328.736 379.791L328.546 380.253C328.898 380.398 329.25 380.544 329.603 380.692L329.796 380.23C332.381 381.31 334.984 382.454 337.604 383.661L337.395 384.115C337.74 384.274 338.086 384.434 338.432 384.596L338.643 384.143C341.184 385.328 343.741 386.573 346.311 387.878L346.085 388.324C346.423 388.496 346.762 388.669 347.101 388.843L347.329 388.398C349.827 389.68 352.337 391.018 354.859 392.412L354.618 392.849C354.949 393.032 355.28 393.217 355.612 393.402L355.856 392.965C358.311 394.335 360.777 395.758 363.253 397.234L362.997 397.664C363.321 397.857 363.645 398.051 363.969 398.246L364.227 397.817C366.641 399.269 369.065 400.771 371.496 402.324L371.227 402.745C371.544 402.947 371.861 403.15 372.177 403.354L372.448 402.933C374.823 404.461 377.205 406.037 379.594 407.66L379.313 408.074C379.622 408.284 379.931 408.495 380.241 408.707L380.523 408.294C382.847 409.885 385.178 411.521 387.513 413.203L387.221 413.608C387.532 413.832 387.843 414.057 388.154 414.282L388.448 413.877C390.72 415.524 392.997 417.214 395.278 418.946L394.975 419.344C395.279 419.574 395.582 419.805 395.885 420.037L396.189 419.64C398.425 421.349 400.666 423.099 402.909 424.89L402.597 425.281C402.717 425.376 402.837 425.472 402.957 425.569C403.133 425.709 403.308 425.85 403.484 425.991L403.797 425.601C405.999 427.37 408.204 429.178 410.411 431.025L410.09 431.409C410.378 431.65 410.667 431.892 410.955 432.135L411.277 431.752C413.442 433.575 415.61 435.436 417.778 437.334L417.448 437.71C417.593 437.837 417.737 437.963 417.882 438.09C418.027 438.218 418.172 438.345 418.317 438.473L418.647 438.097C420.823 440.013 422.983 441.951 425.127 443.913L424.789 444.281C425.075 444.543 425.36 444.804 425.645 445.066L425.983 444.698C428.118 446.661 430.237 448.647 432.338 450.653L431.993 451.015C432.272 451.282 432.552 451.549 432.831 451.817L433.177 451.456C435.271 453.465 437.348 455.495 439.407 457.545L439.055 457.899L439.268 458.112C439.471 458.314 439.673 458.516 439.876 458.719L440.229 458.365C442.281 460.418 444.316 462.49 446.333 464.581L445.973 464.928C446.241 465.206 446.51 465.485 446.777 465.764L447.138 465.418C449.148 467.511 451.14 469.624 453.114 471.753L452.747 472.093C453.01 472.377 453.272 472.661 453.534 472.945L453.902 472.606C455.87 474.741 457.82 476.892 459.751 479.061L459.378 479.393C459.635 479.682 459.892 479.971 460.149 480.261L460.523 479.929C462.449 482.102 464.357 484.291 466.245 486.496L465.865 486.821C466.117 487.115 466.368 487.409 466.619 487.704L466.999 487.379C468.883 489.59 470.748 491.815 472.592 494.055L472.206 494.372C472.452 494.671 472.698 494.97 472.943 495.269L473.329 494.952C475.172 497.199 476.994 499.461 478.796 501.736L478.404 502.046C478.644 502.349 478.884 502.653 479.123 502.956L479.516 502.646C481.315 504.929 483.094 507.225 484.852 509.533L484.454 509.836C484.525 509.929 484.596 510.022 484.666 510.115C484.677 510.128 484.687 510.141 484.697 510.154C484.85 510.356 485.003 510.558 485.156 510.76L485.555 510.458C487.311 512.774 489.045 515.102 490.758 517.441L490.355 517.736C490.472 517.896 490.589 518.057 490.706 518.217C490.817 518.369 490.929 518.522 491.04 518.674L491.444 518.38C493.156 520.728 494.845 523.088 496.512 525.457L496.104 525.745C496.326 526.061 496.548 526.378 496.77 526.694L497.18 526.408C498.849 528.792 500.496 531.185 502.12 533.588L501.706 533.868C501.922 534.188 502.138 534.508 502.353 534.829L502.768 534.55C504.393 536.965 505.994 539.389 507.571 541.821L507.151 542.093C507.362 542.418 507.572 542.743 507.781 543.067L508.201 542.796C509.779 545.241 511.332 547.694 512.861 550.153L512.436 550.417C512.641 550.746 512.845 551.075 513.049 551.404L513.474 551.141C515.003 553.614 516.507 556.094 517.986 558.578L517.557 558.834C517.649 558.989 517.741 559.143 517.832 559.298C517.939 559.477 518.045 559.656 518.151 559.836L518.581 559.581C520.066 562.088 521.524 564.601 522.956 567.118L522.521 567.365C522.591 567.488 522.661 567.612 522.731 567.735C522.852 567.947 522.972 568.159 523.092 568.371L523.527 568.125C524.963 570.663 526.372 573.206 527.754 575.751L527.314 575.99C527.499 576.329 527.683 576.669 527.866 577.009L528.306 576.772C529.69 579.337 531.046 581.905 532.374 584.474L531.93 584.704C532.107 585.048 532.285 585.392 532.462 585.737L532.906 585.508C534.237 588.099 535.538 590.692 536.81 593.285L536.361 593.505C536.532 593.854 536.703 594.202 536.873 594.551L537.322 594.332C538.598 596.951 539.844 599.57 541.059 602.188L540.606 602.399C540.768 602.749 540.93 603.1 541.092 603.451L541.546 603.241C542.769 605.895 543.961 608.548 545.12 611.198L544.662 611.398C544.728 611.549 544.793 611.7 544.859 611.851C544.947 612.053 545.035 612.255 545.123 612.457L545.582 612.258C546.746 614.939 547.877 617.618 548.974 620.293L548.511 620.482C548.658 620.84 548.804 621.197 548.949 621.554L549.412 621.366C550.513 624.072 551.579 626.774 552.611 629.47L552.144 629.649C552.282 630.011 552.42 630.372 552.557 630.734L553.024 630.556C554.059 633.287 555.058 636.012 556.019 638.729L555.548 638.896C555.678 639.262 555.807 639.628 555.935 639.994L556.407 639.829C557.372 642.583 558.299 645.33 559.187 648.068L558.712 648.222C558.832 648.593 558.952 648.963 559.07 649.333L559.546 649.18C560.439 651.961 561.291 654.732 562.102 657.492L561.622 657.633C561.732 658.005 561.84 658.378 561.948 658.75L562.429 658.611C563.245 661.424 564.018 664.225 564.749 667.013L564.265 667.139C564.324 667.366 564.383 667.592 564.442 667.819C564.48 667.963 564.517 668.107 564.554 668.252L565.038 668.127C565.772 670.968 566.46 673.796 567.101 676.607L566.614 676.718C566.699 677.093 566.784 677.467 566.868 677.841L567.356 677.732C567.998 680.595 568.592 683.442 569.137 686.271L568.646 686.365C568.719 686.743 568.791 687.121 568.862 687.498L569.353 687.405C569.896 690.29 570.389 693.155 570.828 695.998L570.334 696.075C570.393 696.455 570.451 696.836 570.508 697.216L571.003 697.142C571.439 700.045 571.82 702.926 572.145 705.782L571.648 705.839C571.692 706.222 571.734 706.605 571.776 706.987L572.273 706.933C572.591 709.853 572.85 712.747 573.05 715.612L572.551 715.647C572.578 716.031 572.603 716.415 572.628 716.799L573.127 716.767C573.315 719.7 573.44 722.603 573.501 725.472L573.001 725.483C573.009 725.868 573.016 726.252 573.022 726.636L573.522 726.629C573.567 729.569 573.543 732.474 573.45 735.341L572.95 735.325C572.938 735.709 572.924 736.093 572.909 736.476L573.409 736.496C573.294 739.435 573.105 742.334 572.842 745.189L572.344 745.143C572.309 745.525 572.272 745.907 572.234 746.287L572.731 746.337C572.439 749.264 572.067 752.145 571.614 754.975L571.121 754.896C571.06 755.274 570.998 755.651 570.935 756.027L571.428 756.11C570.939 759.01 570.364 761.857 569.701 764.646L569.214 764.53C569.17 764.716 569.126 764.901 569.081 765.086C569.035 765.274 568.989 765.462 568.943 765.649L569.428 765.769C568.728 768.601 567.943 771.338 567.078 773.981L566.603 773.825C566.547 773.997 566.49 774.169 566.433 774.34C566.369 774.533 566.304 774.725 566.239 774.917L566.713 775.077C565.777 777.838 564.751 780.493 563.639 783.044L563.18 782.845C563.142 782.933 563.103 783.021 563.065 783.109C562.95 783.369 562.835 783.627 562.72 783.884L563.175 784.09C561.982 786.741 560.693 789.276 559.312 791.695L558.878 791.447C558.692 791.774 558.504 792.098 558.314 792.42L558.745 792.674C557.277 795.169 555.71 797.537 554.047 799.78L553.645 799.482C553.419 799.787 553.192 800.089 552.962 800.389L553.359 800.693C551.604 802.988 549.747 805.147 547.791 807.17L547.432 806.822C547.338 806.919 547.243 807.017 547.149 807.113C546.979 807.286 546.809 807.458 546.639 807.63L546.993 807.983C544.967 810.012 542.84 811.9 540.617 813.646L540.308 813.252C540.012 813.484 539.715 813.714 539.416 813.941L539.718 814.339C537.448 816.062 535.081 817.641 532.621 819.075L532.369 818.643C532.256 818.709 532.143 818.774 532.03 818.839C531.817 818.962 531.603 819.083 531.389 819.204L531.633 819.64C529.165 821.026 526.606 822.27 523.961 823.371L523.769 822.91C523.577 822.99 523.385 823.069 523.193 823.147C523.035 823.211 522.877 823.275 522.718 823.338L522.903 823.803C520.286 824.846 517.587 825.753 514.81 826.523L514.677 826.041C514.317 826.141 513.955 826.238 513.593 826.333L513.72 826.817C511.008 827.529 508.225 828.112 505.373 828.567L505.294 828.073C505.12 828.101 504.945 828.128 504.77 828.155C504.572 828.185 504.373 828.215 504.174 828.244L504.247 828.739C501.476 829.146 498.642 829.433 495.749 829.6L495.721 829.101C495.341 829.123 494.959 829.143 494.577 829.161L494.601 829.66C491.806 829.791 488.958 829.811 486.058 829.721L486.074 829.221C485.702 829.209 485.329 829.196 484.956 829.181L484.935 829.68C482.145 829.567 479.309 829.352 476.429 829.036L476.483 828.539C476.111 828.498 475.737 828.456 475.363 828.412L475.305 828.908C472.529 828.58 469.715 828.158 466.863 827.644L466.952 827.152C466.581 827.085 466.209 827.016 465.836 826.946L465.744 827.437C462.996 826.92 460.214 826.316 457.401 825.627L457.52 825.142C457.152 825.051 456.784 824.96 456.414 824.867L456.292 825.352C453.58 824.667 450.838 823.904 448.07 823.061L448.215 822.583C447.852 822.472 447.488 822.36 447.123 822.247L446.975 822.724C444.303 821.893 441.606 820.988 438.886 820.009L439.055 819.539C438.697 819.41 438.339 819.28 437.98 819.149L437.808 819.618C435.178 818.656 432.528 817.625 429.858 816.526L430.049 816.064C429.944 816.02 429.839 815.977 429.735 815.934C429.487 815.832 429.239 815.729 428.992 815.625L428.799 816.087C426.214 815.007 423.61 813.863 420.991 812.656L421.2 812.202C420.855 812.043 420.509 811.883 420.163 811.721L419.952 812.174C417.41 810.989 414.854 809.744 412.284 808.439L412.51 807.993C412.172 807.821 411.833 807.648 411.494 807.474L411.266 807.919C408.768 806.637 406.258 805.299 403.735 803.905L403.977 803.468C403.646 803.284 403.315 803.1 402.983 802.915L402.739 803.352C400.284 801.982 397.818 800.559 395.342 799.083L395.598 798.653L395.348 798.504C395.107 798.36 394.866 798.216 394.625 798.071L394.368 798.499C391.953 797.048 389.53 795.546 387.098 793.993L387.368 793.572C387.051 793.37 386.734 793.167 386.417 792.963L386.147 793.383C383.772 791.856 381.39 790.28 379.001 788.656L379.282 788.243C379.08 788.105 378.878 787.968 378.675 787.83C378.568 787.756 378.461 787.683 378.354 787.61L378.072 788.023C375.747 786.432 373.417 784.796 371.082 783.114L371.374 782.709C371.063 782.485 370.752 782.26 370.441 782.035L370.147 782.439C367.875 780.793 365.598 779.103 363.317 777.371L363.62 776.973C363.316 776.743 363.013 776.512 362.709 776.28L362.406 776.677C360.169 774.968 357.929 773.218 355.686 771.427L355.998 771.036C355.702 770.8 355.407 770.563 355.111 770.326L354.798 770.716C352.595 768.947 350.391 767.139 348.184 765.292L348.505 764.908C348.359 764.786 348.212 764.663 348.066 764.541C347.924 764.421 347.782 764.302 347.64 764.182L347.318 764.565C345.152 762.742 342.985 760.881 340.817 758.983L341.146 758.607C341.002 758.48 340.857 758.353 340.713 758.227Z" stroke="#0C5FB3" stroke-dasharray="1.15 8.6"/>
</g>
<g id="circle-hero-2" class="circle-hero-2" filter="url(#filter1_bf_530_12)">
<path d="M723.56 402.516C673.755 530.616 550.839 646.79 449.019 661.997C347.2 677.204 305.034 585.686 354.839 457.585C404.644 329.484 527.56 213.31 629.38 198.103C731.199 182.896 773.365 274.415 723.56 402.516Z" fill="url(#paint1_linear_530_12)"/>
<path d="M723.094 402.334C723.024 402.513 722.955 402.691 722.885 402.869L723.351 403.051C722.305 405.73 721.227 408.403 720.118 411.07L719.657 410.878C719.509 411.233 719.361 411.588 719.212 411.943L719.673 412.137C718.561 414.79 717.418 417.438 716.245 420.078L715.788 419.875C715.633 420.226 715.476 420.577 715.319 420.928L715.776 421.132C714.599 423.761 713.394 426.383 712.159 428.997L711.707 428.784C711.543 429.131 711.379 429.477 711.214 429.824L711.666 430.039C710.428 432.641 709.163 435.235 707.87 437.821L707.422 437.598C707.251 437.941 707.079 438.284 706.906 438.627L707.353 438.852C706.058 441.423 704.737 443.986 703.389 446.539L702.947 446.306C702.767 446.646 702.587 446.985 702.407 447.325L702.849 447.56C701.498 450.103 700.121 452.638 698.718 455.162L698.281 454.919C698.095 455.255 697.908 455.59 697.72 455.926L698.157 456.17C696.751 458.686 695.32 461.191 693.864 463.686L693.432 463.434C693.239 463.765 693.045 464.097 692.851 464.428L693.282 464.681C691.823 467.168 690.341 469.643 688.835 472.107L688.408 471.846C688.208 472.174 688.007 472.501 687.806 472.829L688.232 473.091C686.722 475.546 685.19 477.989 683.636 480.42L683.215 480.151C683.008 480.475 682.8 480.798 682.593 481.121L683.013 481.392C681.454 483.818 679.873 486.23 678.271 488.63L677.855 488.352C677.641 488.672 677.428 488.991 677.213 489.31L677.629 489.589C676.021 491.984 674.392 494.365 672.743 496.732L672.333 496.446C672.113 496.761 671.893 497.076 671.673 497.391L672.083 497.678C670.428 500.041 668.754 502.39 667.059 504.723L666.655 504.429C666.429 504.74 666.203 505.051 665.977 505.361L666.381 505.656C664.68 507.987 662.959 510.304 661.22 512.604L660.821 512.303C660.59 512.609 660.358 512.915 660.125 513.221L660.523 513.523C658.777 515.822 657.013 518.105 655.23 520.37L654.837 520.061C654.725 520.204 654.613 520.346 654.501 520.488C654.375 520.648 654.249 520.807 654.123 520.967L654.515 521.277C652.726 523.541 650.918 525.788 649.094 528.018L648.707 527.701C648.463 527.999 648.219 528.296 647.975 528.593L648.361 528.911C646.527 531.141 644.677 533.354 642.81 535.547L642.429 535.223C642.181 535.515 641.932 535.807 641.683 536.099L642.063 536.424C640.184 538.621 638.29 540.799 636.38 542.957L636.005 542.626C635.751 542.914 635.496 543.201 635.241 543.488L635.615 543.82C633.695 545.98 631.759 548.12 629.809 550.239L629.441 549.9C629.181 550.183 628.921 550.466 628.66 550.748L629.027 551.088C627.066 553.209 625.091 555.309 623.102 557.387L622.741 557.041C622.474 557.319 622.208 557.597 621.941 557.875L622.301 558.221C620.298 560.305 618.281 562.366 616.251 564.404L615.897 564.051C615.723 564.226 615.549 564.4 615.375 564.575C615.278 564.671 615.181 564.768 615.085 564.865L615.438 565.218C613.39 567.265 611.329 569.289 609.256 571.288L608.909 570.928C608.633 571.194 608.356 571.46 608.079 571.725L608.426 572.086C606.337 574.09 604.237 576.069 602.126 578.023L601.786 577.656C601.504 577.917 601.221 578.178 600.939 578.438L601.277 578.806C599.15 580.765 597.011 582.698 594.862 584.603L594.531 584.229C594.242 584.485 593.954 584.741 593.665 584.995L593.996 585.37C591.827 587.284 589.648 589.17 587.46 591.028L587.137 590.646C586.844 590.895 586.551 591.143 586.258 591.39L586.581 591.772C584.365 593.644 582.14 595.486 579.906 597.298L579.591 596.91C579.294 597.151 578.996 597.392 578.698 597.632L579.012 598.022C576.755 599.843 574.489 601.633 572.216 603.392L571.91 602.997C571.607 603.232 571.303 603.466 570.999 603.7L571.304 604.097C569.007 605.864 566.702 607.599 564.391 609.3L564.095 608.898C563.784 609.126 563.474 609.354 563.164 609.581L563.459 609.984C561.122 611.695 558.779 613.371 556.43 615.011L556.144 614.602C555.827 614.823 555.51 615.043 555.193 615.263L555.478 615.674C553.099 617.326 550.713 618.942 548.324 620.52L548.048 620.103C547.892 620.206 547.737 620.308 547.581 620.411C547.416 620.519 547.251 620.628 547.086 620.736L547.361 621.154C544.93 622.748 542.496 624.304 540.058 625.82L539.794 625.395C539.641 625.49 539.488 625.585 539.335 625.68C539.163 625.787 538.991 625.893 538.82 625.999L539.082 626.424C536.608 627.952 534.13 629.438 531.65 630.882L531.399 630.45C531.315 630.499 531.231 630.548 531.147 630.597C531.135 630.604 531.123 630.611 531.111 630.618C530.876 630.754 530.641 630.891 530.405 631.026L530.656 631.459C528.139 632.914 525.62 634.324 523.101 635.69L522.862 635.251C522.525 635.434 522.187 635.616 521.849 635.797L522.086 636.238C519.526 637.613 516.966 638.942 514.407 640.224L514.183 639.777C513.839 639.949 513.495 640.121 513.15 640.291L513.372 640.739C510.77 642.03 508.168 643.271 505.569 644.461L505.361 644.006C505.203 644.078 505.045 644.15 504.888 644.222C504.694 644.31 504.501 644.398 504.308 644.486L504.514 644.941C501.868 646.139 499.224 647.284 496.585 648.376L496.394 647.913C496.036 648.061 495.679 648.208 495.322 648.354L495.511 648.817C492.821 649.914 490.136 650.955 487.457 651.938L487.285 651.469C486.921 651.602 486.557 651.735 486.193 651.866L486.363 652.337C483.63 653.324 480.904 654.251 478.185 655.116L478.034 654.639C477.664 654.757 477.295 654.873 476.926 654.988L477.075 655.465C474.297 656.333 471.528 657.134 468.769 657.869L468.64 657.386C468.268 657.485 467.896 657.583 467.525 657.68L467.651 658.164C464.832 658.897 462.024 659.56 459.23 660.151L459.127 659.662C458.917 659.707 458.707 659.751 458.498 659.794C458.332 659.829 458.167 659.863 458.001 659.897L458.102 660.386C455.248 660.971 452.408 661.48 449.584 661.912L449.508 661.418C449.321 661.447 449.133 661.475 448.945 661.503C448.752 661.532 448.558 661.56 448.365 661.589L448.437 662.083C445.527 662.507 442.667 662.844 439.857 663.094L439.812 662.596C439.425 662.631 439.039 662.664 438.653 662.695L438.694 663.193C435.763 663.431 432.886 663.575 430.065 663.627L430.056 663.127C429.666 663.134 429.277 663.139 428.89 663.143L428.894 663.643C425.952 663.671 423.071 663.597 420.252 663.425L420.283 662.926C419.897 662.903 419.511 662.877 419.127 662.85L419.092 663.349C416.159 663.14 413.294 662.823 410.5 662.401L410.574 661.907C410.195 661.85 409.816 661.79 409.439 661.729L409.359 662.223C406.463 661.752 403.643 661.168 400.9 660.471L401.023 659.987C400.654 659.893 400.286 659.797 399.92 659.7L399.791 660.183C396.965 659.429 394.223 658.555 391.566 657.564L391.74 657.096C391.381 656.962 391.024 656.826 390.668 656.688L390.487 657.154C387.764 656.098 385.133 654.917 382.593 653.616L382.821 653.171C382.48 652.997 382.141 652.82 381.803 652.64L381.569 653.082C379.004 651.722 376.535 650.236 374.165 648.629L374.446 648.216C374.13 648.002 373.816 647.785 373.504 647.567L373.217 647.977C370.85 646.321 368.583 644.542 366.418 642.644L366.748 642.268C366.461 642.016 366.176 641.763 365.893 641.507L365.558 641.878C363.426 639.952 361.395 637.908 359.469 635.75L359.842 635.417C359.588 635.132 359.335 634.846 359.085 634.557L358.707 634.885C356.832 632.723 355.059 630.451 353.388 628.071L353.797 627.784C353.577 627.47 353.358 627.154 353.142 626.836L352.729 627.118C351.122 624.763 349.614 622.306 348.207 619.75L348.645 619.509C348.462 619.178 348.281 618.844 348.102 618.509L347.661 618.745C346.321 616.24 345.076 613.643 343.927 610.956L344.386 610.76C344.236 610.409 344.088 610.057 343.942 609.704L343.48 609.895C342.393 607.274 341.396 604.569 340.49 601.784L340.966 601.629C340.847 601.264 340.73 600.898 340.614 600.53L340.137 600.68C339.287 597.973 338.522 595.193 337.844 592.34L338.331 592.224C338.241 591.848 338.153 591.47 338.067 591.092L337.579 591.203C336.948 588.438 336.398 585.607 335.928 582.713L336.422 582.633C336.361 582.259 336.302 581.885 336.244 581.51L335.75 581.586C335.318 578.784 334.962 575.922 334.682 573.004L335.18 572.956C335.144 572.58 335.109 572.203 335.076 571.825L334.578 571.869C334.327 569.043 334.147 566.164 334.04 563.235L334.539 563.216C334.525 562.838 334.513 562.458 334.501 562.078L334.001 562.093C333.915 559.255 333.896 556.37 333.945 553.44L334.445 553.448C334.451 553.069 334.459 552.689 334.467 552.308L333.967 552.297C334.031 549.456 334.158 546.573 334.349 543.649L334.848 543.682C334.873 543.303 334.898 542.924 334.925 542.544L334.427 542.508C334.627 539.671 334.888 536.796 335.208 533.884L335.705 533.939C335.747 533.562 335.789 533.185 335.833 532.806L335.336 532.749C335.662 529.92 336.045 527.056 336.484 524.16L336.979 524.235C337.035 523.861 337.093 523.486 337.152 523.111L336.658 523.033C337.099 520.215 337.594 517.366 338.144 514.487L338.635 514.58C338.706 514.21 338.777 513.838 338.85 513.467L338.359 513.371C338.905 510.577 339.501 507.756 340.149 504.908L340.637 505.019C340.723 504.64 340.81 504.261 340.898 503.881L340.411 503.768C341.051 501.006 341.74 498.219 342.477 495.407L342.961 495.534C343.059 495.16 343.158 494.785 343.258 494.41L342.775 494.282C343.506 491.536 344.283 488.768 345.107 485.979L345.586 486.12C345.695 485.751 345.805 485.382 345.916 485.012L345.437 484.869C346.253 482.14 347.114 479.39 348.02 476.621L348.495 476.776C348.614 476.413 348.734 476.049 348.854 475.685L348.38 475.528C349.277 472.815 350.217 470.083 351.2 467.333L351.671 467.502C351.799 467.144 351.928 466.786 352.057 466.427L351.587 466.257C352.559 463.565 353.572 460.856 354.628 458.13L355.094 458.311C355.164 458.129 355.235 457.948 355.305 457.766C355.375 457.587 355.444 457.409 355.514 457.231L355.048 457.049C356.094 454.37 357.172 451.697 358.281 449.03L358.742 449.222C358.89 448.867 359.038 448.512 359.187 448.157L358.726 447.964C359.838 445.31 360.981 442.662 362.154 440.022L362.611 440.225C362.767 439.874 362.923 439.523 363.08 439.172L362.623 438.968C363.8 436.339 365.005 433.717 366.24 431.103L366.692 431.317C366.856 430.97 367.02 430.623 367.185 430.276L366.733 430.062C367.971 427.459 369.236 424.865 370.529 422.279L370.977 422.503C371.148 422.159 371.32 421.816 371.493 421.473L371.046 421.248C372.341 418.677 373.662 416.114 375.01 413.561L375.452 413.795C375.526 413.655 375.6 413.515 375.674 413.375C375.78 413.175 375.886 412.975 375.992 412.775L375.55 412.54C376.901 409.997 378.278 407.463 379.681 404.939L380.118 405.181C380.304 404.846 380.491 404.51 380.679 404.175L380.242 403.931C381.648 401.415 383.079 398.909 384.535 396.414L384.967 396.666C385.16 396.335 385.354 396.003 385.548 395.672L385.117 395.419C386.576 392.933 388.058 390.457 389.564 387.994L389.991 388.254C390.191 387.927 390.392 387.599 390.593 387.271L390.168 387.01C391.677 384.554 393.209 382.111 394.763 379.68L395.184 379.949C395.391 379.626 395.599 379.302 395.806 378.979L395.386 378.708C396.945 376.283 398.526 373.87 400.129 371.47L400.544 371.748C400.758 371.428 400.971 371.109 401.186 370.79L400.77 370.512C402.378 368.117 404.007 365.735 405.656 363.368L406.066 363.654C406.286 363.339 406.506 363.024 406.726 362.709L406.316 362.422C407.971 360.059 409.646 357.711 411.34 355.377L411.744 355.671C411.97 355.36 412.196 355.05 412.422 354.739L412.018 354.445C413.719 352.113 415.44 349.796 417.179 347.496L417.578 347.798C417.809 347.491 418.041 347.185 418.274 346.879L417.876 346.577C419.622 344.278 421.387 341.995 423.169 339.73L423.562 340.039C423.8 339.737 424.038 339.435 424.276 339.134L423.884 338.824C425.673 336.559 427.481 334.312 429.305 332.082L429.692 332.399C429.936 332.101 430.18 331.804 430.424 331.507L430.038 331.189C431.872 328.959 433.722 326.746 435.589 324.553L435.97 324.877C436.038 324.796 436.107 324.715 436.176 324.634C436.356 324.423 436.536 324.212 436.716 324.001L436.336 323.677C438.215 321.479 440.109 319.301 442.019 317.143L442.394 317.474C442.648 317.187 442.903 316.899 443.158 316.612L442.784 316.28C444.704 314.12 446.64 311.98 448.59 309.861L448.958 310.2C449.218 309.917 449.479 309.634 449.739 309.352L449.372 309.013C451.333 306.891 453.308 304.792 455.297 302.714L455.658 303.059C455.753 302.96 455.847 302.862 455.942 302.763C456.114 302.584 456.286 302.405 456.458 302.226L456.098 301.879C458.101 299.795 460.118 297.734 462.148 295.696L462.502 296.049C462.773 295.777 463.043 295.506 463.314 295.236L462.961 294.882C465.009 292.835 467.07 290.812 469.143 288.813L469.49 289.173C469.766 288.906 470.043 288.64 470.32 288.375L469.973 288.014C472.062 286.01 474.162 284.031 476.273 282.077L476.613 282.444C476.895 282.183 477.178 281.922 477.46 281.662L477.122 281.294C479.249 279.335 481.388 277.403 483.537 275.497L483.868 275.871C484.157 275.615 484.445 275.36 484.734 275.105L484.403 274.73C486.572 272.816 488.751 270.93 490.939 269.073L491.262 269.454C491.555 269.205 491.848 268.958 492.141 268.71L491.818 268.328C494.034 266.457 496.259 264.614 498.493 262.802L498.808 263.19C499.105 262.949 499.403 262.708 499.701 262.468L499.387 262.079C501.644 260.257 503.91 258.467 506.183 256.708L506.489 257.103C506.792 256.868 507.096 256.634 507.4 256.4L507.095 256.004C509.392 254.236 511.697 252.501 514.008 250.8L514.304 251.203C514.615 250.974 514.925 250.746 515.235 250.519L514.94 250.116C517.277 248.406 519.62 246.73 521.969 245.089L522.255 245.499C522.572 245.277 522.889 245.057 523.206 244.837L522.921 244.426C525.3 242.774 527.686 241.159 530.075 239.58L530.351 239.997C530.671 239.786 530.992 239.575 531.313 239.364L531.038 238.946C533.469 237.352 535.903 235.796 538.341 234.28L538.605 234.705C538.93 234.503 539.255 234.302 539.579 234.102L539.317 233.676C541.791 232.149 544.269 230.662 546.749 229.218L547 229.65C547.331 229.457 547.662 229.265 547.994 229.074L547.743 228.641C550.26 227.187 552.779 225.776 555.298 224.41L555.537 224.85C555.874 224.667 556.212 224.484 556.55 224.303L556.313 223.862C558.873 222.487 561.433 221.158 563.992 219.876L564.216 220.324C564.56 220.151 564.904 219.98 565.249 219.809L565.027 219.361C567.629 218.071 570.231 216.83 572.83 215.639L573.038 216.094C573.389 215.933 573.74 215.773 574.091 215.615L573.885 215.159C576.531 213.961 579.175 212.816 581.814 211.725L582.005 212.187C582.363 212.039 582.72 211.892 583.077 211.746L582.888 211.283C585.578 210.186 588.263 209.145 590.942 208.162L591.114 208.631C591.478 208.498 591.842 208.365 592.206 208.234L592.036 207.764C594.769 206.776 597.495 205.849 600.214 204.985L600.365 205.461C600.735 205.344 601.104 205.227 601.473 205.112L601.324 204.635C604.102 203.768 606.871 202.966 609.63 202.231L609.759 202.714C610.131 202.615 610.503 202.517 610.874 202.42L610.748 201.936C613.567 201.203 616.375 200.54 619.169 199.949L619.272 200.438C619.648 200.358 620.023 200.28 620.398 200.204L620.297 199.714C623.151 199.129 625.991 198.62 628.815 198.188L628.891 198.682C629.078 198.654 629.266 198.625 629.454 198.597C629.647 198.568 629.841 198.54 630.034 198.512L629.962 198.017C632.872 197.593 635.732 197.257 638.542 197.006L638.587 197.504C638.974 197.47 639.36 197.437 639.746 197.405L639.705 196.907C642.636 196.669 645.513 196.525 648.334 196.473L648.343 196.973C648.733 196.966 649.122 196.961 649.509 196.957L649.505 196.457C652.447 196.429 655.328 196.503 658.147 196.675L658.116 197.174C658.503 197.198 658.888 197.223 659.272 197.25L659.307 196.752C662.24 196.96 665.105 197.277 667.899 197.699L667.825 198.193C668.204 198.251 668.583 198.31 668.96 198.371L669.04 197.878C671.936 198.348 674.756 198.933 677.499 199.629L677.376 200.113C677.745 200.207 678.113 200.303 678.479 200.4L678.608 199.917C681.434 200.671 684.176 201.545 686.833 202.536L686.659 203.004C687.018 203.138 687.375 203.274 687.731 203.412L687.912 202.946C690.635 204.002 693.266 205.183 695.806 206.484L695.578 206.929C695.919 207.104 696.258 207.281 696.596 207.46L696.83 207.018C699.395 208.379 701.864 209.864 704.234 211.471L703.953 211.885C704.269 212.099 704.583 212.315 704.895 212.533L705.182 212.124C707.549 213.779 709.816 215.558 711.981 217.457L711.651 217.832C711.938 218.084 712.223 218.338 712.506 218.593L712.841 218.222C714.973 220.148 717.004 222.192 718.93 224.35L718.557 224.683C718.811 224.968 719.064 225.255 719.314 225.543L719.692 225.216C721.567 227.377 723.34 229.649 725.011 232.029L724.602 232.316C724.822 232.63 725.041 232.946 725.258 233.264L725.671 232.982C727.277 235.337 728.785 237.794 730.192 240.35L729.754 240.591C729.937 240.923 730.118 241.256 730.297 241.591L730.738 241.355C732.078 243.86 733.323 246.457 734.472 249.144L734.013 249.34C734.163 249.691 734.311 250.043 734.457 250.396L734.919 250.205C736.006 252.826 737.003 255.531 737.909 258.316L737.433 258.471C737.552 258.836 737.669 259.202 737.785 259.57L738.262 259.421C739.112 262.127 739.877 264.908 740.555 267.76L740.068 267.876C740.158 268.252 740.246 268.63 740.332 269.009L740.82 268.897C741.451 271.662 742.001 274.493 742.471 277.388L741.977 277.468C742.038 277.841 742.097 278.215 742.155 278.59L742.649 278.514C743.081 281.316 743.437 284.178 743.717 287.096L743.219 287.144C743.255 287.52 743.29 287.897 743.323 288.275L743.821 288.231C744.072 291.057 744.252 293.936 744.359 296.865L743.86 296.884C743.874 297.262 743.886 297.642 743.898 298.022L744.398 298.007C744.484 300.845 744.503 303.73 744.454 306.66L743.954 306.652C743.951 306.817 743.948 306.982 743.945 307.148C743.941 307.362 743.937 307.577 743.932 307.792L744.432 307.804C744.368 310.644 744.241 313.527 744.05 316.451L743.551 316.418C743.526 316.797 743.501 317.176 743.474 317.557L743.972 317.592C743.772 320.429 743.512 323.304 743.191 326.216L742.694 326.161C742.652 326.538 742.61 326.916 742.566 327.294L743.063 327.351C742.737 330.18 742.354 333.044 741.915 335.94L741.42 335.865C741.364 336.239 741.306 336.614 741.247 336.99L741.741 337.067C741.3 339.885 740.805 342.735 740.255 345.614L739.764 345.52C739.693 345.891 739.622 346.262 739.549 346.634L740.04 346.729C739.494 349.523 738.898 352.344 738.25 355.192L737.762 355.081C737.72 355.267 737.678 355.453 737.635 355.639C737.59 355.833 737.546 356.026 737.501 356.22L737.988 356.332C737.348 359.095 736.659 361.882 735.922 364.693L735.438 364.566C735.34 364.94 735.241 365.315 735.141 365.69L735.625 365.818C734.893 368.564 734.116 371.332 733.292 374.122L732.813 373.98C732.704 374.349 732.594 374.718 732.483 375.088L732.962 375.231C732.146 377.96 731.285 380.71 730.379 383.479L729.904 383.324C729.785 383.687 729.665 384.051 729.545 384.415L730.019 384.572C729.122 387.285 728.182 390.017 727.199 392.767L726.728 392.598C726.6 392.956 726.471 393.314 726.342 393.673L726.812 393.843C725.84 396.535 724.827 399.244 723.771 401.97L723.305 401.79C723.235 401.971 723.164 402.153 723.094 402.334Z" stroke="#0C5FB3" stroke-dasharray="1.15 8.6"/>
</g>
<g id="circle-hero-1" class="circle-hero-1" filter="url(#filter2_bf_530_12)">
<path d="M489.725 260.559C606.216 339.167 622.708 431.749 526.561 467.345C430.413 502.941 258.035 468.073 141.544 389.464C25.0522 310.856 8.56009 218.275 104.708 182.678C200.855 147.082 373.233 181.951 489.725 260.559Z" fill="url(#paint2_linear_530_12)"/>
<path d="M482.168 255.571C484.553 257.111 486.916 258.668 489.257 260.244L488.978 260.659L489.24 260.835L489.445 260.973C489.608 261.083 489.77 261.193 489.932 261.302L490.212 260.888C492.646 262.535 495.036 264.188 497.382 265.847L497.093 266.255C497.238 266.358 497.382 266.46 497.527 266.562C497.694 266.681 497.861 266.8 498.028 266.918L498.318 266.511C500.71 268.212 503.055 269.918 505.355 271.63L505.056 272.031C505.365 272.261 505.674 272.492 505.981 272.722L506.281 272.322C508.624 274.076 510.918 275.836 513.163 277.6L512.854 277.993C513.16 278.233 513.464 278.473 513.768 278.713L514.078 278.321C516.369 280.133 518.609 281.95 520.797 283.77L520.478 284.154C520.778 284.404 521.078 284.654 521.376 284.905L521.697 284.521C523.94 286.4 526.128 288.282 528.261 290.167L527.93 290.542C528.219 290.797 528.507 291.053 528.794 291.309L529.127 290.935C531.325 292.893 533.463 294.853 535.543 296.815L535.2 297.179C535.476 297.44 535.752 297.701 536.027 297.962L536.371 297.6C538.507 299.631 540.579 301.665 542.588 303.699L542.232 304.051C542.5 304.322 542.767 304.594 543.033 304.866L543.39 304.516C545.452 306.622 547.445 308.729 549.368 310.836L548.999 311.173C549.117 311.301 549.234 311.43 549.351 311.559C549.491 311.713 549.63 311.866 549.77 312.02L550.14 311.685C552.118 313.871 554.021 316.056 555.85 318.239L555.467 318.56C555.553 318.663 555.639 318.766 555.725 318.868C555.884 319.059 556.043 319.25 556.201 319.441L556.586 319.122C558.468 321.393 560.27 323.661 561.991 325.926L561.593 326.228C561.824 326.533 562.054 326.837 562.283 327.142L562.683 326.842C564.455 329.202 566.139 331.559 567.735 333.908L567.321 334.189C567.536 334.505 567.748 334.82 567.96 335.136L568.375 334.858C570.019 337.312 571.565 339.76 573.015 342.198L572.586 342.453C572.78 342.78 572.972 343.106 573.163 343.432L573.595 343.18C575.086 345.731 576.471 348.271 577.749 350.799L577.303 351.024C577.478 351.37 577.651 351.716 577.822 352.062L578.27 351.84C579.583 354.494 580.778 357.133 581.854 359.756L581.391 359.945C581.539 360.306 581.685 360.665 581.828 361.025L582.292 360.84C583.388 363.589 584.353 366.319 585.187 369.026L584.709 369.173C584.822 369.541 584.933 369.908 585.041 370.275L585.521 370.133C586.357 372.965 587.049 375.772 587.595 378.55L587.105 378.646C587.178 379.019 587.249 379.391 587.317 379.763L587.809 379.673C588.341 382.578 588.713 385.452 588.925 388.288L588.426 388.326C588.455 388.711 588.48 389.096 588.503 389.48L589.002 389.45C589.176 392.383 589.177 395.276 589.004 398.125L588.505 398.094C588.482 398.476 588.456 398.856 588.426 399.236L588.925 399.275C588.7 402.185 588.291 405.049 587.699 407.859L587.209 407.756C587.13 408.132 587.048 408.506 586.962 408.88L587.449 408.992C586.802 411.815 585.966 414.584 584.942 417.293L584.475 417.117C584.339 417.475 584.201 417.833 584.059 418.189L584.523 418.374C583.459 421.042 582.211 423.651 580.777 426.197L580.341 425.951C580.279 426.061 580.217 426.171 580.154 426.281C580.028 426.502 579.901 426.722 579.772 426.942L580.203 427.195C578.762 429.653 577.145 432.05 575.352 434.382L574.955 434.077C574.721 434.381 574.484 434.685 574.243 434.987L574.635 435.299C572.867 437.523 570.936 439.687 568.841 441.786L568.487 441.433C568.221 441.699 567.953 441.964 567.682 442.228L568.031 442.586C566.011 444.555 563.845 446.465 561.531 448.313L561.219 447.923C560.921 448.161 560.621 448.397 560.319 448.633L560.626 449.027C558.402 450.761 556.045 452.439 553.556 454.058L553.284 453.639C552.96 453.849 552.635 454.058 552.307 454.266L552.575 454.688C550.194 456.202 547.696 457.662 545.079 459.068L544.842 458.627C544.676 458.717 544.509 458.806 544.342 458.895C544.164 458.989 543.986 459.083 543.807 459.177L544.039 459.62C541.542 460.932 538.94 462.195 536.232 463.406L536.027 462.95C535.671 463.109 535.313 463.268 534.953 463.425L535.153 463.883C532.569 465.015 529.89 466.1 527.117 467.138L526.942 466.67C526.874 466.695 526.806 466.72 526.738 466.746C526.729 466.749 526.719 466.753 526.709 466.756C526.602 466.796 526.495 466.836 526.387 466.876C526.213 466.94 526.039 467.005 525.864 467.069L526.036 467.538C523.409 468.501 520.725 469.412 517.988 470.271L517.838 469.793C517.747 469.822 517.656 469.85 517.565 469.879C517.296 469.963 517.026 470.047 516.756 470.13L516.903 470.608C514.229 471.429 511.504 472.202 508.732 472.926L508.606 472.442C508.423 472.49 508.241 472.537 508.059 472.584C507.872 472.633 507.685 472.681 507.498 472.728L507.622 473.213C504.914 473.905 502.161 474.551 499.365 475.152L499.26 474.663C498.888 474.743 498.515 474.822 498.142 474.9L498.245 475.39C495.507 475.964 492.73 476.496 489.914 476.985L489.828 476.492C489.454 476.557 489.08 476.621 488.705 476.685L488.788 477.178C486.027 477.644 483.23 478.071 480.398 478.457L480.331 477.962C479.956 478.013 479.58 478.063 479.204 478.113L479.269 478.609C476.489 478.976 473.677 479.306 470.833 479.597L470.782 479.099C470.407 479.138 470.031 479.176 469.655 479.213L469.704 479.71C466.909 479.986 464.084 480.226 461.232 480.429L461.196 479.93C461.049 479.941 460.903 479.951 460.756 479.961C460.527 479.977 460.298 479.993 460.069 480.008L460.103 480.507C457.295 480.698 454.461 480.853 451.603 480.974L451.581 480.475C451.207 480.491 450.832 480.506 450.457 480.521L450.476 481.02C447.659 481.13 444.818 481.208 441.955 481.252L441.947 480.752C441.79 480.754 441.633 480.757 441.477 480.759C441.26 480.762 441.042 480.765 440.825 480.767L440.831 481.267C438.02 481.302 435.187 481.305 432.335 481.278L432.34 480.778C431.96 480.774 431.58 480.77 431.199 480.765L431.193 481.265C428.384 481.229 425.557 481.163 422.713 481.068L422.729 480.568C422.544 480.562 422.358 480.555 422.173 480.549C421.98 480.542 421.787 480.535 421.594 480.528L421.576 481.028C418.763 480.926 415.933 480.794 413.087 480.634L413.116 480.135C412.739 480.114 412.363 480.092 411.986 480.07L411.957 480.569C409.14 480.403 406.309 480.209 403.464 479.987L403.503 479.489C403.129 479.46 402.754 479.43 402.379 479.4L402.339 479.898C399.525 479.672 396.697 479.418 393.857 479.138L393.906 478.64C393.531 478.603 393.154 478.566 392.778 478.527L392.728 479.025C389.928 478.742 387.116 478.432 384.294 478.097L384.353 477.601C383.977 477.556 383.601 477.511 383.224 477.465L383.164 477.962C380.366 477.623 377.557 477.259 374.74 476.869L374.808 476.374C374.434 476.322 374.061 476.27 373.687 476.218L373.617 476.713C370.82 476.32 368.013 475.903 365.2 475.461L365.278 474.967C365.122 474.942 364.966 474.918 364.81 474.893C364.594 474.859 364.378 474.825 364.163 474.79L364.084 475.284C361.293 474.839 358.494 474.371 355.69 473.879L355.776 473.386C355.403 473.321 355.03 473.255 354.657 473.188L354.569 473.681C351.794 473.187 349.012 472.671 346.226 472.131L346.321 471.64C345.95 471.568 345.578 471.496 345.207 471.423L345.111 471.914C342.339 471.371 339.562 470.806 336.782 470.218L336.885 469.728C336.517 469.65 336.148 469.572 335.779 469.493L335.674 469.982C332.907 469.391 330.137 468.778 327.364 468.142L327.476 467.655C327.109 467.571 326.742 467.487 326.375 467.402L326.263 467.889C323.509 467.252 320.752 466.593 317.995 465.913L318.115 465.428C317.747 465.337 317.38 465.246 317.013 465.155L316.892 465.64C314.15 464.958 311.406 464.255 308.663 463.53L308.791 463.047C308.426 462.95 308.061 462.853 307.695 462.756L307.567 463.239C304.832 462.512 302.098 461.763 299.364 460.993L299.5 460.512C299.321 460.462 299.142 460.411 298.964 460.361C298.779 460.309 298.595 460.257 298.411 460.204L298.275 460.686C295.551 459.913 292.828 459.12 290.108 458.307L290.251 457.828C289.889 457.72 289.527 457.611 289.165 457.502L289.021 457.981C286.312 457.165 283.606 456.33 280.903 455.474L281.054 454.998C280.694 454.884 280.334 454.769 279.974 454.655L279.822 455.131C277.125 454.271 274.43 453.392 271.74 452.493L271.899 452.018C271.541 451.899 271.183 451.779 270.825 451.658L270.666 452.132C267.981 451.229 265.3 450.306 262.625 449.364L262.791 448.892C262.435 448.767 262.079 448.641 261.724 448.515L261.557 448.987C258.887 448.041 256.222 447.075 253.565 446.09L253.738 445.622C253.524 445.542 253.309 445.462 253.094 445.383C252.955 445.331 252.816 445.279 252.677 445.227L252.502 445.696C249.846 444.706 247.198 443.697 244.557 442.67L244.738 442.204C244.386 442.067 244.034 441.93 243.683 441.792L243.501 442.258C240.861 441.225 238.229 440.173 235.606 439.103L235.795 438.64C235.446 438.497 235.096 438.354 234.747 438.211L234.557 438.673C231.934 437.597 229.32 436.502 226.716 435.389L226.913 434.929C226.566 434.781 226.219 434.632 225.873 434.483L225.675 434.942C223.069 433.822 220.473 432.683 217.887 431.525L218.092 431.069C217.747 430.915 217.403 430.76 217.059 430.605L216.854 431.061C214.267 429.897 211.692 428.714 209.128 427.514L209.34 427.061C208.998 426.901 208.656 426.74 208.314 426.579L208.101 427.031C205.536 425.823 202.983 424.597 200.443 423.352L200.663 422.903C200.324 422.737 199.985 422.571 199.647 422.404L199.426 422.853C196.878 421.598 194.344 420.325 191.824 419.033L192.052 418.588C191.716 418.416 191.38 418.244 191.045 418.071L190.816 418.516C188.292 417.216 185.782 415.898 183.288 414.561L183.525 414.121C183.192 413.942 182.859 413.763 182.526 413.584L182.289 414.025C179.792 412.679 177.31 411.316 174.845 409.935L175.089 409.499C174.759 409.314 174.429 409.129 174.099 408.943L173.854 409.379C171.379 407.985 168.921 406.573 166.481 405.143L166.734 404.712C166.409 404.521 166.084 404.33 165.76 404.139L165.506 404.57C163.056 403.127 160.625 401.666 158.213 400.187L158.475 399.76C158.354 399.687 158.234 399.613 158.114 399.539C157.913 399.415 157.712 399.291 157.511 399.167L157.248 399.593C154.83 398.102 152.432 396.594 150.055 395.067L150.326 394.646C150.007 394.442 149.689 394.237 149.372 394.032L149.1 394.452C146.716 392.912 144.352 391.355 142.012 389.78L142.291 389.365L142.106 389.241C142.012 389.177 141.918 389.113 141.823 389.05C141.741 388.994 141.658 388.938 141.576 388.883C141.496 388.829 141.416 388.775 141.337 388.721L141.057 389.135C138.623 387.488 136.233 385.835 133.887 384.176L134.176 383.768C133.863 383.547 133.552 383.326 133.241 383.105L132.951 383.513C130.559 381.812 128.213 380.105 125.914 378.393L126.213 377.992C125.903 377.762 125.595 377.532 125.287 377.301L124.988 377.702C122.645 375.947 120.351 374.187 118.105 372.423L118.414 372.03C118.301 371.941 118.188 371.852 118.075 371.763C117.883 371.612 117.692 371.461 117.501 371.31L117.191 371.702C114.9 369.89 112.66 368.073 110.471 366.253L110.791 365.869C110.491 365.619 110.191 365.369 109.892 365.119L109.571 365.502C107.329 363.624 105.141 361.741 103.008 359.856L103.339 359.482C103.05 359.226 102.762 358.97 102.475 358.715L102.142 359.088C99.944 357.131 97.8052 355.171 95.7259 353.208L96.0691 352.845C95.7923 352.584 95.5166 352.322 95.242 352.061L94.8974 352.423C92.7614 350.392 90.6892 348.358 88.6809 346.324L89.0367 345.973C88.7685 345.701 88.5015 345.429 88.2355 345.158L87.8782 345.507C85.8169 343.401 83.8241 341.294 81.9002 339.188L82.2694 338.85C82.0113 338.568 81.7546 338.285 81.499 338.003L81.1282 338.338C79.1506 336.152 77.2472 333.967 75.4181 331.784L75.8014 331.463C75.5555 331.169 75.3109 330.876 75.0677 330.582L74.6827 330.901C72.8005 328.63 70.9988 326.362 69.2779 324.098L69.676 323.795C69.4445 323.49 69.2145 323.186 68.9859 322.881L68.586 323.182C66.8138 320.821 65.1296 318.465 63.5338 316.115L63.9474 315.834C63.733 315.518 63.5202 315.203 63.3089 314.887L62.8935 315.166C61.25 312.711 59.7031 310.264 58.2532 307.826L58.683 307.57C58.4888 307.244 58.2964 306.917 58.1057 306.591L57.6741 306.843C56.1828 304.293 54.7978 301.752 53.5197 299.225L53.9659 298.999C53.7909 298.653 53.618 298.307 53.4471 297.962L52.9989 298.183C51.6859 295.529 50.491 292.89 49.4148 290.268L49.8774 290.078C49.7295 289.718 49.584 289.358 49.4406 288.998L48.9762 289.184C47.8802 286.434 46.9152 283.705 46.0816 280.997L46.5595 280.85C46.4462 280.483 46.3354 280.115 46.2271 279.748L45.7476 279.89C44.9113 277.058 44.2196 274.252 43.6731 271.474L44.1637 271.377C44.0904 271.004 44.0197 270.632 43.9516 270.26L43.4598 270.35C42.9278 267.445 42.5557 264.572 42.3441 261.735L42.8427 261.698C42.814 261.312 42.7882 260.927 42.7654 260.543L42.2663 260.573C42.0924 257.64 42.0915 254.747 42.2643 251.899L42.7634 251.929C42.7865 251.547 42.8128 251.167 42.8422 250.787L42.3437 250.748C42.5691 247.838 42.9775 244.975 43.5699 242.164L44.0592 242.267C44.1383 241.892 44.2207 241.517 44.3064 241.144L43.8191 241.032C44.467 238.209 45.3024 235.44 46.3262 232.73L46.7939 232.907C46.9293 232.548 47.0681 232.191 47.2101 231.834L46.7457 231.649C47.8092 228.981 49.0577 226.372 50.4919 223.827L50.9275 224.072C51.1141 223.741 51.304 223.411 51.497 223.081L51.0656 222.828C52.5069 220.371 54.1236 217.974 55.9168 215.642L56.3131 215.947C56.5474 215.642 56.7847 215.338 57.0251 215.036L56.6337 214.725C58.4018 212.5 60.3329 210.336 62.4277 208.237L62.7816 208.59C63.0473 208.324 63.3156 208.059 63.5865 207.795L63.2376 207.437C65.2576 205.468 67.424 203.558 69.7375 201.71L70.0496 202.1C70.3471 201.863 70.6471 201.626 70.9496 201.39L70.6422 200.996C72.8671 199.262 75.2236 197.585 77.7124 195.966L77.9851 196.385C78.3083 196.174 78.6337 195.965 78.9614 195.757L78.6932 195.335C81.0741 193.822 83.5729 192.361 86.1898 190.955L86.4264 191.396C86.7695 191.212 87.1147 191.028 87.4619 190.846L87.2293 190.403C89.7266 189.091 92.329 187.829 95.037 186.617L95.2412 187.074C95.5976 186.914 95.9558 186.756 96.3159 186.598L96.1154 186.14C98.6998 185.009 101.379 183.923 104.152 182.885L104.327 183.354C104.511 183.285 104.696 183.216 104.881 183.147C105.055 183.083 105.23 183.019 105.404 182.955L105.232 182.485C107.859 181.522 110.543 180.612 113.28 179.753L113.43 180.23C113.79 180.117 114.151 180.005 114.513 179.894L114.366 179.416C117.04 178.594 119.764 177.822 122.537 177.097L122.663 177.581C123.031 177.485 123.4 177.39 123.77 177.295L123.647 176.811C126.355 176.119 129.108 175.473 131.903 174.871L132.008 175.36C132.38 175.28 132.753 175.201 133.127 175.123L133.024 174.633C135.761 174.059 138.539 173.528 141.355 173.039L141.44 173.531C141.814 173.466 142.189 173.402 142.564 173.339L142.481 172.846C145.242 172.379 148.039 171.953 150.87 171.566L150.938 172.062C151.313 172.011 151.688 171.96 152.065 171.91L151.999 171.415C154.779 171.047 157.592 170.718 160.435 170.426L160.486 170.924C160.861 170.885 161.237 170.848 161.614 170.81L161.565 170.313C164.36 170.037 167.185 169.798 170.037 169.594L170.073 170.093C170.448 170.066 170.823 170.04 171.199 170.015L171.166 169.516C173.973 169.326 176.807 169.17 179.666 169.049L179.687 169.549C180.062 169.533 180.437 169.517 180.812 169.503L180.792 169.003C183.61 168.893 186.451 168.816 189.314 168.772L189.322 169.272C189.695 169.266 190.069 169.261 190.444 169.256L190.437 168.756C193.249 168.721 196.081 168.718 198.934 168.746L198.929 169.246C199.309 169.249 199.689 169.254 200.069 169.259L200.076 168.759C202.884 168.794 205.711 168.86 208.556 168.956L208.539 169.455C208.917 169.468 209.296 169.481 209.674 169.495L209.692 168.995C212.506 169.098 215.336 169.229 218.181 169.389L218.153 169.889C218.529 169.91 218.906 169.931 219.283 169.954L219.312 169.454C222.128 169.62 224.96 169.814 227.805 170.036L227.766 170.535C228.14 170.564 228.515 170.593 228.89 170.624L228.93 170.125C231.744 170.352 234.572 170.605 237.411 170.886L237.362 171.383C237.738 171.42 238.114 171.458 238.49 171.496L238.541 170.998C241.341 171.282 244.153 171.591 246.975 171.926L246.916 172.423C247.292 172.467 247.668 172.512 248.044 172.558L248.104 172.062C250.903 172.4 253.712 172.765 256.529 173.154L256.46 173.649C256.834 173.701 257.208 173.753 257.582 173.806L257.651 173.31C260.449 173.703 263.255 174.121 266.069 174.563L265.991 175.057C266.363 175.115 266.734 175.174 267.106 175.233L267.185 174.739C269.976 175.184 272.774 175.652 275.579 176.145L275.492 176.637C275.865 176.703 276.238 176.769 276.612 176.835L276.699 176.343C279.475 176.836 282.257 177.353 285.043 177.892L284.948 178.383C285.319 178.455 285.69 178.527 286.062 178.6L286.158 178.109C288.93 178.652 291.706 179.218 294.487 179.806L294.383 180.295C294.752 180.373 295.121 180.451 295.49 180.53L295.594 180.041C298.361 180.632 301.132 181.245 303.904 181.881L303.793 182.368C304.159 182.452 304.526 182.537 304.893 182.622L305.006 182.134C307.76 182.771 310.516 183.43 313.274 184.11L313.154 184.595C313.521 184.686 313.889 184.777 314.256 184.868L314.377 184.383C317.119 185.065 319.862 185.769 322.606 186.493L322.478 186.977C322.843 187.073 323.208 187.17 323.573 187.267L323.702 186.784C326.436 187.512 329.171 188.26 331.904 189.03L331.769 189.511C332.132 189.613 332.495 189.716 332.858 189.819L332.994 189.338C335.718 190.11 338.44 190.903 341.16 191.716L341.017 192.195C341.379 192.304 341.741 192.412 342.103 192.521L342.248 192.043C344.956 192.858 347.662 193.694 350.365 194.549L350.214 195.026C350.574 195.14 350.934 195.254 351.294 195.369L351.446 194.892C354.144 195.752 356.838 196.631 359.528 197.531L359.37 198.005C359.55 198.065 359.73 198.125 359.91 198.186C360.088 198.245 360.266 198.305 360.443 198.365L360.603 197.891C363.288 198.794 365.969 199.717 368.644 200.659L368.478 201.131C368.834 201.256 369.189 201.382 369.545 201.508L369.712 201.037C372.382 201.983 375.046 202.948 377.704 203.933L377.53 204.402C377.884 204.533 378.238 204.664 378.592 204.796L378.767 204.328C381.422 205.317 384.071 206.326 386.712 207.353L386.531 207.819C386.883 207.956 387.234 208.094 387.586 208.231L387.768 207.766C390.408 208.798 393.039 209.85 395.662 210.92L395.473 211.383C395.823 211.526 396.173 211.669 396.522 211.812L396.712 211.35C399.334 212.426 401.948 213.521 404.552 214.635L404.356 215.094C404.526 215.167 404.696 215.24 404.866 215.313C405.043 215.389 405.219 215.464 405.396 215.54L405.593 215.081C408.2 216.201 410.796 217.34 413.381 218.498L413.177 218.954C413.346 219.03 413.515 219.106 413.683 219.181C413.859 219.26 414.034 219.339 414.21 219.418L414.415 218.962C417.002 220.126 419.577 221.309 422.14 222.51L421.928 222.962C422.098 223.042 422.267 223.121 422.437 223.201C422.609 223.282 422.782 223.363 422.954 223.444L423.167 222.992C425.733 224.2 428.286 225.427 430.826 226.671L430.606 227.12C430.753 227.192 430.9 227.264 431.046 227.336C431.238 227.43 431.43 227.525 431.622 227.619L431.843 227.171C434.39 228.426 436.925 229.699 439.445 230.99L439.217 231.435C439.553 231.607 439.888 231.779 440.223 231.952L440.452 231.507C442.977 232.808 445.486 234.126 447.98 235.462L447.744 235.903C448.077 236.081 448.41 236.26 448.742 236.439L448.979 235.999C451.477 237.344 453.959 238.707 456.424 240.088L456.179 240.524C456.51 240.709 456.84 240.895 457.169 241.08L457.415 240.645C459.89 242.039 462.348 243.451 464.788 244.88L464.535 245.312C464.86 245.502 465.184 245.693 465.509 245.884L465.762 245.453C468.212 246.896 470.644 248.358 473.055 249.837L472.794 250.263C473.116 250.46 473.437 250.658 473.758 250.856L474.021 250.43C476.438 251.921 478.836 253.43 481.213 254.956L480.943 255.377C481.261 255.581 481.579 255.786 481.897 255.991L482.168 255.571Z" stroke="#0C5FB3" stroke-dasharray="1.15 8.6"/>
</g>
</g>
</g>
<defs>
<filter id="filter0_bf_530_12" x="159.051" y="340.541" width="440.493" height="515.235" filterUnits="userSpaceOnUse" color-interpolation-filters="sRGB">
<feFlood flood-opacity="0" result="BackgroundImageFix"/>
<feGaussianBlur in="BackgroundImage" stdDeviation="8.3156"/>
<feComposite in2="SourceAlpha" operator="in" result="effect1_backgroundBlur_530_12"/>
<feBlend mode="normal" in="SourceGraphic" in2="effect1_backgroundBlur_530_12" result="shape"/>
<feGaussianBlur stdDeviation="13" result="effect2_foregroundBlur_530_12"/>
</filter>
<filter id="filter1_bf_530_12" x="307.919" y="170.451" width="462.562" height="519.197" filterUnits="userSpaceOnUse" color-interpolation-filters="sRGB">
<feFlood flood-opacity="0" result="BackgroundImageFix"/>
<feGaussianBlur in="BackgroundImage" stdDeviation="8.3156"/>
<feComposite in2="SourceAlpha" operator="in" result="effect1_backgroundBlur_530_12"/>
<feBlend mode="normal" in="SourceGraphic" in2="effect1_backgroundBlur_530_12" result="shape"/>
<feGaussianBlur stdDeviation="13" result="effect2_foregroundBlur_530_12"/>
</filter>
<filter id="filter2_bf_530_12" x="16.1353" y="142.727" width="598.998" height="364.569" filterUnits="userSpaceOnUse" color-interpolation-filters="sRGB">
<feFlood flood-opacity="0" result="BackgroundImageFix"/>
<feGaussianBlur in="BackgroundImage" stdDeviation="8.3156"/>
<feComposite in2="SourceAlpha" operator="in" result="effect1_backgroundBlur_530_12"/>
<feBlend mode="normal" in="SourceGraphic" in2="effect1_backgroundBlur_530_12" result="shape"/>
<feGaussianBlur stdDeviation="13" result="effect2_foregroundBlur_530_12"/>
</filter>
<linearGradient id="paint0_linear_530_12" x1="340.383" y1="758.602" x2="533.354" y2="538.803" gradientUnits="userSpaceOnUse">
<stop stop-color="#2781DB"/>
<stop offset="0.874544" stop-color="#2781DB" stop-opacity="0"/>
</linearGradient>
<linearGradient id="paint1_linear_530_12" x1="723.56" y1="402.516" x2="421.856" y2="285.214" gradientUnits="userSpaceOnUse">
<stop stop-color="#2781DB"/>
<stop offset="0.874544" stop-color="#2781DB" stop-opacity="0"/>
</linearGradient>
<linearGradient id="paint2_linear_530_12" x1="489.725" y1="260.559" x2="321.016" y2="510.572" gradientUnits="userSpaceOnUse">
<stop stop-color="#2781DB"/>
<stop offset="0.874544" stop-color="#2781DB" stop-opacity="0"/>
</linearGradient>
</defs>
</svg>
