<svg width="1441" height="721" viewBox="0 0 1441 721" fill="none" xmlns="http://www.w3.org/2000/svg">
<g id="bg-squares">
<g id="Vector">
<mask id="path-1-inside-1_275_942" fill="white">
<path d="M0.863525 0.149414H48.8635V48.1494H0.863525V0.149414Z"/>
<path d="M48.8635 0.149414H96.8635V48.1494H48.8635V0.149414Z"/>
<path d="M96.8635 0.149414H144.864V48.1494H96.8635V0.149414Z"/>
<path d="M144.864 0.149414H192.864V48.1494H144.864V0.149414Z"/>
<path d="M192.864 0.149414H240.864V48.1494H192.864V0.149414Z"/>
<path d="M240.864 0.149414H288.864V48.1494H240.864V0.149414Z"/>
<path d="M288.864 0.149414H336.864V48.1494H288.864V0.149414Z"/>
<path d="M336.864 0.149414H384.864V48.1494H336.864V0.149414Z"/>
<path d="M384.864 0.149414H432.864V48.1494H384.864V0.149414Z"/>
<path d="M432.864 0.149414H480.864V48.1494H432.864V0.149414Z"/>
<path d="M480.864 0.149414H528.864V48.1494H480.864V0.149414Z"/>
<path d="M528.864 0.149414H576.864V48.1494H528.864V0.149414Z"/>
<path d="M576.864 0.149414H624.864V48.1494H576.864V0.149414Z"/>
<path d="M624.864 0.149414H672.864V48.1494H624.864V0.149414Z"/>
<path d="M672.864 0.149414H720.864V48.1494H672.864V0.149414Z"/>
<path d="M720.864 0.149414H768.864V48.1494H720.864V0.149414Z"/>
<path d="M768.864 0.149414H816.864V48.1494H768.864V0.149414Z"/>
<path d="M816.864 0.149414H864.864V48.1494H816.864V0.149414Z"/>
<path d="M864.864 0.149414H912.864V48.1494H864.864V0.149414Z"/>
<path d="M912.864 0.149414H960.864V48.1494H912.864V0.149414Z"/>
<path d="M960.864 0.149414H1008.86V48.1494H960.864V0.149414Z"/>
<path d="M1008.86 0.149414H1056.86V48.1494H1008.86V0.149414Z"/>
<path d="M1056.86 0.149414H1104.86V48.1494H1056.86V0.149414Z"/>
<path d="M1104.86 0.149414H1152.86V48.1494H1104.86V0.149414Z"/>
<path d="M1152.86 0.149414H1200.86V48.1494H1152.86V0.149414Z"/>
<path d="M1200.86 0.149414H1248.86V48.1494H1200.86V0.149414Z"/>
<path d="M1248.86 0.149414H1296.86V48.1494H1248.86V0.149414Z"/>
<path d="M1296.86 0.149414H1344.86V48.1494H1296.86V0.149414Z"/>
<path d="M1344.86 0.149414H1392.86V48.1494H1344.86V0.149414Z"/>
<path d="M1392.86 0.149414H1440.86V48.1494H1392.86V0.149414Z"/>
<path d="M0.863525 48.1494H48.8635V96.1494H0.863525V48.1494Z"/>
<path d="M48.8635 48.1494H96.8635V96.1494H48.8635V48.1494Z"/>
<path d="M96.8635 48.1494H144.864V96.1494H96.8635V48.1494Z"/>
<path d="M144.864 48.1494H192.864V96.1494H144.864V48.1494Z"/>
<path d="M192.864 48.1494H240.864V96.1494H192.864V48.1494Z"/>
<path d="M240.864 48.1494H288.864V96.1494H240.864V48.1494Z"/>
<path d="M288.864 48.1494H336.864V96.1494H288.864V48.1494Z"/>
<path d="M336.864 48.1494H384.864V96.1494H336.864V48.1494Z"/>
<path d="M384.864 48.1494H432.864V96.1494H384.864V48.1494Z"/>
<path d="M432.864 48.1494H480.864V96.1494H432.864V48.1494Z"/>
<path d="M480.864 48.1494H528.864V96.1494H480.864V48.1494Z"/>
<path d="M528.864 48.1494H576.864V96.1494H528.864V48.1494Z"/>
<path d="M576.864 48.1494H624.864V96.1494H576.864V48.1494Z"/>
<path d="M624.864 48.1494H672.864V96.1494H624.864V48.1494Z"/>
<path d="M672.864 48.1494H720.864V96.1494H672.864V48.1494Z"/>
<path d="M720.864 48.1494H768.864V96.1494H720.864V48.1494Z"/>
<path d="M768.864 48.1494H816.864V96.1494H768.864V48.1494Z"/>
<path d="M816.864 48.1494H864.864V96.1494H816.864V48.1494Z"/>
<path d="M864.864 48.1494H912.864V96.1494H864.864V48.1494Z"/>
<path d="M912.864 48.1494H960.864V96.1494H912.864V48.1494Z"/>
<path d="M960.864 48.1494H1008.86V96.1494H960.864V48.1494Z"/>
<path d="M1008.86 48.1494H1056.86V96.1494H1008.86V48.1494Z"/>
<path d="M1056.86 48.1494H1104.86V96.1494H1056.86V48.1494Z"/>
<path d="M1104.86 48.1494H1152.86V96.1494H1104.86V48.1494Z"/>
<path d="M1152.86 48.1494H1200.86V96.1494H1152.86V48.1494Z"/>
<path d="M1200.86 48.1494H1248.86V96.1494H1200.86V48.1494Z"/>
<path d="M1248.86 48.1494H1296.86V96.1494H1248.86V48.1494Z"/>
<path d="M1296.86 48.1494H1344.86V96.1494H1296.86V48.1494Z"/>
<path d="M1344.86 48.1494H1392.86V96.1494H1344.86V48.1494Z"/>
<path d="M1392.86 48.1494H1440.86V96.1494H1392.86V48.1494Z"/>
<path d="M0.863525 96.1494H48.8635V144.149H0.863525V96.1494Z"/>
<path d="M48.8635 96.1494H96.8635V144.149H48.8635V96.1494Z"/>
<path d="M96.8635 96.1494H144.864V144.149H96.8635V96.1494Z"/>
<path d="M144.864 96.1494H192.864V144.149H144.864V96.1494Z"/>
<path d="M192.864 96.1494H240.864V144.149H192.864V96.1494Z"/>
<path d="M240.864 96.1494H288.864V144.149H240.864V96.1494Z"/>
<path d="M288.864 96.1494H336.864V144.149H288.864V96.1494Z"/>
<path d="M336.864 96.1494H384.864V144.149H336.864V96.1494Z"/>
<path d="M384.864 96.1494H432.864V144.149H384.864V96.1494Z"/>
<path d="M432.864 96.1494H480.864V144.149H432.864V96.1494Z"/>
<path d="M480.864 96.1494H528.864V144.149H480.864V96.1494Z"/>
<path d="M528.864 96.1494H576.864V144.149H528.864V96.1494Z"/>
<path d="M576.864 96.1494H624.864V144.149H576.864V96.1494Z"/>
<path d="M624.864 96.1494H672.864V144.149H624.864V96.1494Z"/>
<path d="M672.864 96.1494H720.864V144.149H672.864V96.1494Z"/>
<path d="M720.864 96.1494H768.864V144.149H720.864V96.1494Z"/>
<path d="M768.864 96.1494H816.864V144.149H768.864V96.1494Z"/>
<path d="M816.864 96.1494H864.864V144.149H816.864V96.1494Z"/>
<path d="M864.864 96.1494H912.864V144.149H864.864V96.1494Z"/>
<path d="M912.864 96.1494H960.864V144.149H912.864V96.1494Z"/>
<path d="M960.864 96.1494H1008.86V144.149H960.864V96.1494Z"/>
<path d="M1008.86 96.1494H1056.86V144.149H1008.86V96.1494Z"/>
<path d="M1056.86 96.1494H1104.86V144.149H1056.86V96.1494Z"/>
<path d="M1104.86 96.1494H1152.86V144.149H1104.86V96.1494Z"/>
<path d="M1152.86 96.1494H1200.86V144.149H1152.86V96.1494Z"/>
<path d="M1200.86 96.1494H1248.86V144.149H1200.86V96.1494Z"/>
<path d="M1248.86 96.1494H1296.86V144.149H1248.86V96.1494Z"/>
<path d="M1296.86 96.1494H1344.86V144.149H1296.86V96.1494Z"/>
<path d="M1344.86 96.1494H1392.86V144.149H1344.86V96.1494Z"/>
<path d="M1392.86 96.1494H1440.86V144.149H1392.86V96.1494Z"/>
<path d="M0.863525 144.149H48.8635V192.149H0.863525V144.149Z"/>
<path d="M48.8635 144.149H96.8635V192.149H48.8635V144.149Z"/>
<path d="M96.8635 144.149H144.864V192.149H96.8635V144.149Z"/>
<path d="M144.864 144.149H192.864V192.149H144.864V144.149Z"/>
<path d="M192.864 144.149H240.864V192.149H192.864V144.149Z"/>
<path d="M240.864 144.149H288.864V192.149H240.864V144.149Z"/>
<path d="M288.864 144.149H336.864V192.149H288.864V144.149Z"/>
<path d="M336.864 144.149H384.864V192.149H336.864V144.149Z"/>
<path d="M384.864 144.149H432.864V192.149H384.864V144.149Z"/>
<path d="M432.864 144.149H480.864V192.149H432.864V144.149Z"/>
<path d="M480.864 144.149H528.864V192.149H480.864V144.149Z"/>
<path d="M528.864 144.149H576.864V192.149H528.864V144.149Z"/>
<path d="M576.864 144.149H624.864V192.149H576.864V144.149Z"/>
<path d="M624.864 144.149H672.864V192.149H624.864V144.149Z"/>
<path d="M672.864 144.149H720.864V192.149H672.864V144.149Z"/>
<path d="M720.864 144.149H768.864V192.149H720.864V144.149Z"/>
<path d="M768.864 144.149H816.864V192.149H768.864V144.149Z"/>
<path d="M816.864 144.149H864.864V192.149H816.864V144.149Z"/>
<path d="M864.864 144.149H912.864V192.149H864.864V144.149Z"/>
<path d="M912.864 144.149H960.864V192.149H912.864V144.149Z"/>
<path d="M960.864 144.149H1008.86V192.149H960.864V144.149Z"/>
<path d="M1008.86 144.149H1056.86V192.149H1008.86V144.149Z"/>
<path d="M1056.86 144.149H1104.86V192.149H1056.86V144.149Z"/>
<path d="M1104.86 144.149H1152.86V192.149H1104.86V144.149Z"/>
<path d="M1152.86 144.149H1200.86V192.149H1152.86V144.149Z"/>
<path d="M1200.86 144.149H1248.86V192.149H1200.86V144.149Z"/>
<path d="M1248.86 144.149H1296.86V192.149H1248.86V144.149Z"/>
<path d="M1296.86 144.149H1344.86V192.149H1296.86V144.149Z"/>
<path d="M1344.86 144.149H1392.86V192.149H1344.86V144.149Z"/>
<path d="M1392.86 144.149H1440.86V192.149H1392.86V144.149Z"/>
<path d="M0.863525 192.149H48.8635V240.149H0.863525V192.149Z"/>
<path d="M48.8635 192.149H96.8635V240.149H48.8635V192.149Z"/>
<path d="M96.8635 192.149H144.864V240.149H96.8635V192.149Z"/>
<path d="M144.864 192.149H192.864V240.149H144.864V192.149Z"/>
<path d="M192.864 192.149H240.864V240.149H192.864V192.149Z"/>
<path d="M240.864 192.149H288.864V240.149H240.864V192.149Z"/>
<path d="M288.864 192.149H336.864V240.149H288.864V192.149Z"/>
<path d="M336.864 192.149H384.864V240.149H336.864V192.149Z"/>
<path d="M384.864 192.149H432.864V240.149H384.864V192.149Z"/>
<path d="M432.864 192.149H480.864V240.149H432.864V192.149Z"/>
<path d="M480.864 192.149H528.864V240.149H480.864V192.149Z"/>
<path d="M528.864 192.149H576.864V240.149H528.864V192.149Z"/>
<path d="M576.864 192.149H624.864V240.149H576.864V192.149Z"/>
<path d="M624.864 192.149H672.864V240.149H624.864V192.149Z"/>
<path d="M672.864 192.149H720.864V240.149H672.864V192.149Z"/>
<path d="M720.864 192.149H768.864V240.149H720.864V192.149Z"/>
<path d="M768.864 192.149H816.864V240.149H768.864V192.149Z"/>
<path d="M816.864 192.149H864.864V240.149H816.864V192.149Z"/>
<path d="M864.864 192.149H912.864V240.149H864.864V192.149Z"/>
<path d="M912.864 192.149H960.864V240.149H912.864V192.149Z"/>
<path d="M960.864 192.149H1008.86V240.149H960.864V192.149Z"/>
<path d="M1008.86 192.149H1056.86V240.149H1008.86V192.149Z"/>
<path d="M1056.86 192.149H1104.86V240.149H1056.86V192.149Z"/>
<path d="M1104.86 192.149H1152.86V240.149H1104.86V192.149Z"/>
<path d="M1152.86 192.149H1200.86V240.149H1152.86V192.149Z"/>
<path d="M1200.86 192.149H1248.86V240.149H1200.86V192.149Z"/>
<path d="M1248.86 192.149H1296.86V240.149H1248.86V192.149Z"/>
<path d="M1296.86 192.149H1344.86V240.149H1296.86V192.149Z"/>
<path d="M1344.86 192.149H1392.86V240.149H1344.86V192.149Z"/>
<path d="M1392.86 192.149H1440.86V240.149H1392.86V192.149Z"/>
<path d="M0.863525 240.149H48.8635V288.149H0.863525V240.149Z"/>
<path d="M48.8635 240.149H96.8635V288.149H48.8635V240.149Z"/>
<path d="M96.8635 240.149H144.864V288.149H96.8635V240.149Z"/>
<path d="M144.864 240.149H192.864V288.149H144.864V240.149Z"/>
<path d="M192.864 240.149H240.864V288.149H192.864V240.149Z"/>
<path d="M240.864 240.149H288.864V288.149H240.864V240.149Z"/>
<path d="M288.864 240.149H336.864V288.149H288.864V240.149Z"/>
<path d="M336.864 240.149H384.864V288.149H336.864V240.149Z"/>
<path d="M384.864 240.149H432.864V288.149H384.864V240.149Z"/>
<path d="M432.864 240.149H480.864V288.149H432.864V240.149Z"/>
<path d="M480.864 240.149H528.864V288.149H480.864V240.149Z"/>
<path d="M528.864 240.149H576.864V288.149H528.864V240.149Z"/>
<path d="M576.864 240.149H624.864V288.149H576.864V240.149Z"/>
<path d="M624.864 240.149H672.864V288.149H624.864V240.149Z"/>
<path d="M672.864 240.149H720.864V288.149H672.864V240.149Z"/>
<path d="M720.864 240.149H768.864V288.149H720.864V240.149Z"/>
<path d="M768.864 240.149H816.864V288.149H768.864V240.149Z"/>
<path d="M816.864 240.149H864.864V288.149H816.864V240.149Z"/>
<path d="M864.864 240.149H912.864V288.149H864.864V240.149Z"/>
<path d="M912.864 240.149H960.864V288.149H912.864V240.149Z"/>
<path d="M960.864 240.149H1008.86V288.149H960.864V240.149Z"/>
<path d="M1008.86 240.149H1056.86V288.149H1008.86V240.149Z"/>
<path d="M1056.86 240.149H1104.86V288.149H1056.86V240.149Z"/>
<path d="M1104.86 240.149H1152.86V288.149H1104.86V240.149Z"/>
<path d="M1152.86 240.149H1200.86V288.149H1152.86V240.149Z"/>
<path d="M1200.86 240.149H1248.86V288.149H1200.86V240.149Z"/>
<path d="M1248.86 240.149H1296.86V288.149H1248.86V240.149Z"/>
<path d="M1296.86 240.149H1344.86V288.149H1296.86V240.149Z"/>
<path d="M1344.86 240.149H1392.86V288.149H1344.86V240.149Z"/>
<path d="M1392.86 240.149H1440.86V288.149H1392.86V240.149Z"/>
<path d="M0.863525 288.149H48.8635V336.149H0.863525V288.149Z"/>
<path d="M48.8635 288.149H96.8635V336.149H48.8635V288.149Z"/>
<path d="M96.8635 288.149H144.864V336.149H96.8635V288.149Z"/>
<path d="M144.864 288.149H192.864V336.149H144.864V288.149Z"/>
<path d="M192.864 288.149H240.864V336.149H192.864V288.149Z"/>
<path d="M240.864 288.149H288.864V336.149H240.864V288.149Z"/>
<path d="M288.864 288.149H336.864V336.149H288.864V288.149Z"/>
<path d="M336.864 288.149H384.864V336.149H336.864V288.149Z"/>
<path d="M384.864 288.149H432.864V336.149H384.864V288.149Z"/>
<path d="M432.864 288.149H480.864V336.149H432.864V288.149Z"/>
<path d="M480.864 288.149H528.864V336.149H480.864V288.149Z"/>
<path d="M528.864 288.149H576.864V336.149H528.864V288.149Z"/>
<path d="M576.864 288.149H624.864V336.149H576.864V288.149Z"/>
<path d="M624.864 288.149H672.864V336.149H624.864V288.149Z"/>
<path d="M672.864 288.149H720.864V336.149H672.864V288.149Z"/>
<path d="M720.864 288.149H768.864V336.149H720.864V288.149Z"/>
<path d="M768.864 288.149H816.864V336.149H768.864V288.149Z"/>
<path d="M816.864 288.149H864.864V336.149H816.864V288.149Z"/>
<path d="M864.864 288.149H912.864V336.149H864.864V288.149Z"/>
<path d="M912.864 288.149H960.864V336.149H912.864V288.149Z"/>
<path d="M960.864 288.149H1008.86V336.149H960.864V288.149Z"/>
<path d="M1008.86 288.149H1056.86V336.149H1008.86V288.149Z"/>
<path d="M1056.86 288.149H1104.86V336.149H1056.86V288.149Z"/>
<path d="M1104.86 288.149H1152.86V336.149H1104.86V288.149Z"/>
<path d="M1152.86 288.149H1200.86V336.149H1152.86V288.149Z"/>
<path d="M1200.86 288.149H1248.86V336.149H1200.86V288.149Z"/>
<path d="M1248.86 288.149H1296.86V336.149H1248.86V288.149Z"/>
<path d="M1296.86 288.149H1344.86V336.149H1296.86V288.149Z"/>
<path d="M1344.86 288.149H1392.86V336.149H1344.86V288.149Z"/>
<path d="M1392.86 288.149H1440.86V336.149H1392.86V288.149Z"/>
<path d="M0.863525 336.149H48.8635V384.149H0.863525V336.149Z"/>
<path d="M48.8635 336.149H96.8635V384.149H48.8635V336.149Z"/>
<path d="M96.8635 336.149H144.864V384.149H96.8635V336.149Z"/>
<path d="M144.864 336.149H192.864V384.149H144.864V336.149Z"/>
<path d="M192.864 336.149H240.864V384.149H192.864V336.149Z"/>
<path d="M240.864 336.149H288.864V384.149H240.864V336.149Z"/>
<path d="M288.864 336.149H336.864V384.149H288.864V336.149Z"/>
<path d="M336.864 336.149H384.864V384.149H336.864V336.149Z"/>
<path d="M384.864 336.149H432.864V384.149H384.864V336.149Z"/>
<path d="M432.864 336.149H480.864V384.149H432.864V336.149Z"/>
<path d="M480.864 336.149H528.864V384.149H480.864V336.149Z"/>
<path d="M528.864 336.149H576.864V384.149H528.864V336.149Z"/>
<path d="M576.864 336.149H624.864V384.149H576.864V336.149Z"/>
<path d="M624.864 336.149H672.864V384.149H624.864V336.149Z"/>
<path d="M672.864 336.149H720.864V384.149H672.864V336.149Z"/>
<path d="M720.864 336.149H768.864V384.149H720.864V336.149Z"/>
<path d="M768.864 336.149H816.864V384.149H768.864V336.149Z"/>
<path d="M816.864 336.149H864.864V384.149H816.864V336.149Z"/>
<path d="M864.864 336.149H912.864V384.149H864.864V336.149Z"/>
<path d="M912.864 336.149H960.864V384.149H912.864V336.149Z"/>
<path d="M960.864 336.149H1008.86V384.149H960.864V336.149Z"/>
<path d="M1008.86 336.149H1056.86V384.149H1008.86V336.149Z"/>
<path d="M1056.86 336.149H1104.86V384.149H1056.86V336.149Z"/>
<path d="M1104.86 336.149H1152.86V384.149H1104.86V336.149Z"/>
<path d="M1152.86 336.149H1200.86V384.149H1152.86V336.149Z"/>
<path d="M1200.86 336.149H1248.86V384.149H1200.86V336.149Z"/>
<path d="M1248.86 336.149H1296.86V384.149H1248.86V336.149Z"/>
<path d="M1296.86 336.149H1344.86V384.149H1296.86V336.149Z"/>
<path d="M1344.86 336.149H1392.86V384.149H1344.86V336.149Z"/>
<path d="M1392.86 336.149H1440.86V384.149H1392.86V336.149Z"/>
<path d="M0.863525 384.149H48.8635V432.149H0.863525V384.149Z"/>
<path d="M48.8635 384.149H96.8635V432.149H48.8635V384.149Z"/>
<path d="M96.8635 384.149H144.864V432.149H96.8635V384.149Z"/>
<path d="M144.864 384.149H192.864V432.149H144.864V384.149Z"/>
<path d="M192.864 384.149H240.864V432.149H192.864V384.149Z"/>
<path d="M240.864 384.149H288.864V432.149H240.864V384.149Z"/>
<path d="M288.864 384.149H336.864V432.149H288.864V384.149Z"/>
<path d="M336.864 384.149H384.864V432.149H336.864V384.149Z"/>
<path d="M384.864 384.149H432.864V432.149H384.864V384.149Z"/>
<path d="M432.864 384.149H480.864V432.149H432.864V384.149Z"/>
<path d="M480.864 384.149H528.864V432.149H480.864V384.149Z"/>
<path d="M528.864 384.149H576.864V432.149H528.864V384.149Z"/>
<path d="M576.864 384.149H624.864V432.149H576.864V384.149Z"/>
<path d="M624.864 384.149H672.864V432.149H624.864V384.149Z"/>
<path d="M672.864 384.149H720.864V432.149H672.864V384.149Z"/>
<path d="M720.864 384.149H768.864V432.149H720.864V384.149Z"/>
<path d="M768.864 384.149H816.864V432.149H768.864V384.149Z"/>
<path d="M816.864 384.149H864.864V432.149H816.864V384.149Z"/>
<path d="M864.864 384.149H912.864V432.149H864.864V384.149Z"/>
<path d="M912.864 384.149H960.864V432.149H912.864V384.149Z"/>
<path d="M960.864 384.149H1008.86V432.149H960.864V384.149Z"/>
<path d="M1008.86 384.149H1056.86V432.149H1008.86V384.149Z"/>
<path d="M1056.86 384.149H1104.86V432.149H1056.86V384.149Z"/>
<path d="M1104.86 384.149H1152.86V432.149H1104.86V384.149Z"/>
<path d="M1152.86 384.149H1200.86V432.149H1152.86V384.149Z"/>
<path d="M1200.86 384.149H1248.86V432.149H1200.86V384.149Z"/>
<path d="M1248.86 384.149H1296.86V432.149H1248.86V384.149Z"/>
<path d="M1296.86 384.149H1344.86V432.149H1296.86V384.149Z"/>
<path d="M1344.86 384.149H1392.86V432.149H1344.86V384.149Z"/>
<path d="M1392.86 384.149H1440.86V432.149H1392.86V384.149Z"/>
<path d="M0.863525 432.149H48.8635V480.149H0.863525V432.149Z"/>
<path d="M48.8635 432.149H96.8635V480.149H48.8635V432.149Z"/>
<path d="M96.8635 432.149H144.864V480.149H96.8635V432.149Z"/>
<path d="M144.864 432.149H192.864V480.149H144.864V432.149Z"/>
<path d="M192.864 432.149H240.864V480.149H192.864V432.149Z"/>
<path d="M240.864 432.149H288.864V480.149H240.864V432.149Z"/>
<path d="M288.864 432.149H336.864V480.149H288.864V432.149Z"/>
<path d="M336.864 432.149H384.864V480.149H336.864V432.149Z"/>
<path d="M384.864 432.149H432.864V480.149H384.864V432.149Z"/>
<path d="M432.864 432.149H480.864V480.149H432.864V432.149Z"/>
<path d="M480.864 432.149H528.864V480.149H480.864V432.149Z"/>
<path d="M528.864 432.149H576.864V480.149H528.864V432.149Z"/>
<path d="M576.864 432.149H624.864V480.149H576.864V432.149Z"/>
<path d="M624.864 432.149H672.864V480.149H624.864V432.149Z"/>
<path d="M672.864 432.149H720.864V480.149H672.864V432.149Z"/>
<path d="M720.864 432.149H768.864V480.149H720.864V432.149Z"/>
<path d="M768.864 432.149H816.864V480.149H768.864V432.149Z"/>
<path d="M816.864 432.149H864.864V480.149H816.864V432.149Z"/>
<path d="M864.864 432.149H912.864V480.149H864.864V432.149Z"/>
<path d="M912.864 432.149H960.864V480.149H912.864V432.149Z"/>
<path d="M960.864 432.149H1008.86V480.149H960.864V432.149Z"/>
<path d="M1008.86 432.149H1056.86V480.149H1008.86V432.149Z"/>
<path d="M1056.86 432.149H1104.86V480.149H1056.86V432.149Z"/>
<path d="M1104.86 432.149H1152.86V480.149H1104.86V432.149Z"/>
<path d="M1152.86 432.149H1200.86V480.149H1152.86V432.149Z"/>
<path d="M1200.86 432.149H1248.86V480.149H1200.86V432.149Z"/>
<path d="M1248.86 432.149H1296.86V480.149H1248.86V432.149Z"/>
<path d="M1296.86 432.149H1344.86V480.149H1296.86V432.149Z"/>
<path d="M1344.86 432.149H1392.86V480.149H1344.86V432.149Z"/>
<path d="M1392.86 432.149H1440.86V480.149H1392.86V432.149Z"/>
<path d="M0.863525 480.149H48.8635V528.149H0.863525V480.149Z"/>
<path d="M48.8635 480.149H96.8635V528.149H48.8635V480.149Z"/>
<path d="M96.8635 480.149H144.864V528.149H96.8635V480.149Z"/>
<path d="M144.864 480.149H192.864V528.149H144.864V480.149Z"/>
<path d="M192.864 480.149H240.864V528.149H192.864V480.149Z"/>
<path d="M240.864 480.149H288.864V528.149H240.864V480.149Z"/>
<path d="M288.864 480.149H336.864V528.149H288.864V480.149Z"/>
<path d="M336.864 480.149H384.864V528.149H336.864V480.149Z"/>
<path d="M384.864 480.149H432.864V528.149H384.864V480.149Z"/>
<path d="M432.864 480.149H480.864V528.149H432.864V480.149Z"/>
<path d="M480.864 480.149H528.864V528.149H480.864V480.149Z"/>
<path d="M528.864 480.149H576.864V528.149H528.864V480.149Z"/>
<path d="M576.864 480.149H624.864V528.149H576.864V480.149Z"/>
<path d="M624.864 480.149H672.864V528.149H624.864V480.149Z"/>
<path d="M672.864 480.149H720.864V528.149H672.864V480.149Z"/>
<path d="M720.864 480.149H768.864V528.149H720.864V480.149Z"/>
<path d="M768.864 480.149H816.864V528.149H768.864V480.149Z"/>
<path d="M816.864 480.149H864.864V528.149H816.864V480.149Z"/>
<path d="M864.864 480.149H912.864V528.149H864.864V480.149Z"/>
<path d="M912.864 480.149H960.864V528.149H912.864V480.149Z"/>
<path d="M960.864 480.149H1008.86V528.149H960.864V480.149Z"/>
<path d="M1008.86 480.149H1056.86V528.149H1008.86V480.149Z"/>
<path d="M1056.86 480.149H1104.86V528.149H1056.86V480.149Z"/>
<path d="M1104.86 480.149H1152.86V528.149H1104.86V480.149Z"/>
<path d="M1152.86 480.149H1200.86V528.149H1152.86V480.149Z"/>
<path d="M1200.86 480.149H1248.86V528.149H1200.86V480.149Z"/>
<path d="M1248.86 480.149H1296.86V528.149H1248.86V480.149Z"/>
<path d="M1296.86 480.149H1344.86V528.149H1296.86V480.149Z"/>
<path d="M1344.86 480.149H1392.86V528.149H1344.86V480.149Z"/>
<path d="M1392.86 480.149H1440.86V528.149H1392.86V480.149Z"/>
<path d="M0.863525 528.149H48.8635V576.149H0.863525V528.149Z"/>
<path d="M48.8635 528.149H96.8635V576.149H48.8635V528.149Z"/>
<path d="M96.8635 528.149H144.864V576.149H96.8635V528.149Z"/>
<path d="M144.864 528.149H192.864V576.149H144.864V528.149Z"/>
<path d="M192.864 528.149H240.864V576.149H192.864V528.149Z"/>
<path d="M240.864 528.149H288.864V576.149H240.864V528.149Z"/>
<path d="M288.864 528.149H336.864V576.149H288.864V528.149Z"/>
<path d="M336.864 528.149H384.864V576.149H336.864V528.149Z"/>
<path d="M384.864 528.149H432.864V576.149H384.864V528.149Z"/>
<path d="M432.864 528.149H480.864V576.149H432.864V528.149Z"/>
<path d="M480.864 528.149H528.864V576.149H480.864V528.149Z"/>
<path d="M528.864 528.149H576.864V576.149H528.864V528.149Z"/>
<path d="M576.864 528.149H624.864V576.149H576.864V528.149Z"/>
<path d="M624.864 528.149H672.864V576.149H624.864V528.149Z"/>
<path d="M672.864 528.149H720.864V576.149H672.864V528.149Z"/>
<path d="M720.864 528.149H768.864V576.149H720.864V528.149Z"/>
<path d="M768.864 528.149H816.864V576.149H768.864V528.149Z"/>
<path d="M816.864 528.149H864.864V576.149H816.864V528.149Z"/>
<path d="M864.864 528.149H912.864V576.149H864.864V528.149Z"/>
<path d="M912.864 528.149H960.864V576.149H912.864V528.149Z"/>
<path d="M960.864 528.149H1008.86V576.149H960.864V528.149Z"/>
<path d="M1008.86 528.149H1056.86V576.149H1008.86V528.149Z"/>
<path d="M1056.86 528.149H1104.86V576.149H1056.86V528.149Z"/>
<path d="M1104.86 528.149H1152.86V576.149H1104.86V528.149Z"/>
<path d="M1152.86 528.149H1200.86V576.149H1152.86V528.149Z"/>
<path d="M1200.86 528.149H1248.86V576.149H1200.86V528.149Z"/>
<path d="M1248.86 528.149H1296.86V576.149H1248.86V528.149Z"/>
<path d="M1296.86 528.149H1344.86V576.149H1296.86V528.149Z"/>
<path d="M1344.86 528.149H1392.86V576.149H1344.86V528.149Z"/>
<path d="M1392.86 528.149H1440.86V576.149H1392.86V528.149Z"/>
<path d="M0.863525 576.149H48.8635V624.149H0.863525V576.149Z"/>
<path d="M48.8635 576.149H96.8635V624.149H48.8635V576.149Z"/>
<path d="M96.8635 576.149H144.864V624.149H96.8635V576.149Z"/>
<path d="M144.864 576.149H192.864V624.149H144.864V576.149Z"/>
<path d="M192.864 576.149H240.864V624.149H192.864V576.149Z"/>
<path d="M240.864 576.149H288.864V624.149H240.864V576.149Z"/>
<path d="M288.864 576.149H336.864V624.149H288.864V576.149Z"/>
<path d="M336.864 576.149H384.864V624.149H336.864V576.149Z"/>
<path d="M384.864 576.149H432.864V624.149H384.864V576.149Z"/>
<path d="M432.864 576.149H480.864V624.149H432.864V576.149Z"/>
<path d="M480.864 576.149H528.864V624.149H480.864V576.149Z"/>
<path d="M528.864 576.149H576.864V624.149H528.864V576.149Z"/>
<path d="M576.864 576.149H624.864V624.149H576.864V576.149Z"/>
<path d="M624.864 576.149H672.864V624.149H624.864V576.149Z"/>
<path d="M672.864 576.149H720.864V624.149H672.864V576.149Z"/>
<path d="M720.864 576.149H768.864V624.149H720.864V576.149Z"/>
<path d="M768.864 576.149H816.864V624.149H768.864V576.149Z"/>
<path d="M816.864 576.149H864.864V624.149H816.864V576.149Z"/>
<path d="M864.864 576.149H912.864V624.149H864.864V576.149Z"/>
<path d="M912.864 576.149H960.864V624.149H912.864V576.149Z"/>
<path d="M960.864 576.149H1008.86V624.149H960.864V576.149Z"/>
<path d="M1008.86 576.149H1056.86V624.149H1008.86V576.149Z"/>
<path d="M1056.86 576.149H1104.86V624.149H1056.86V576.149Z"/>
<path d="M1104.86 576.149H1152.86V624.149H1104.86V576.149Z"/>
<path d="M1152.86 576.149H1200.86V624.149H1152.86V576.149Z"/>
<path d="M1200.86 576.149H1248.86V624.149H1200.86V576.149Z"/>
<path d="M1248.86 576.149H1296.86V624.149H1248.86V576.149Z"/>
<path d="M1296.86 576.149H1344.86V624.149H1296.86V576.149Z"/>
<path d="M1344.86 576.149H1392.86V624.149H1344.86V576.149Z"/>
<path d="M1392.86 576.149H1440.86V624.149H1392.86V576.149Z"/>
<path d="M0.863525 624.149H48.8635V672.149H0.863525V624.149Z"/>
<path d="M48.8635 624.149H96.8635V672.149H48.8635V624.149Z"/>
<path d="M96.8635 624.149H144.864V672.149H96.8635V624.149Z"/>
<path d="M144.864 624.149H192.864V672.149H144.864V624.149Z"/>
<path d="M192.864 624.149H240.864V672.149H192.864V624.149Z"/>
<path d="M240.864 624.149H288.864V672.149H240.864V624.149Z"/>
<path d="M288.864 624.149H336.864V672.149H288.864V624.149Z"/>
<path d="M336.864 624.149H384.864V672.149H336.864V624.149Z"/>
<path d="M384.864 624.149H432.864V672.149H384.864V624.149Z"/>
<path d="M432.864 624.149H480.864V672.149H432.864V624.149Z"/>
<path d="M480.864 624.149H528.864V672.149H480.864V624.149Z"/>
<path d="M528.864 624.149H576.864V672.149H528.864V624.149Z"/>
<path d="M576.864 624.149H624.864V672.149H576.864V624.149Z"/>
<path d="M624.864 624.149H672.864V672.149H624.864V624.149Z"/>
<path d="M672.864 624.149H720.864V672.149H672.864V624.149Z"/>
<path d="M720.864 624.149H768.864V672.149H720.864V624.149Z"/>
<path d="M768.864 624.149H816.864V672.149H768.864V624.149Z"/>
<path d="M816.864 624.149H864.864V672.149H816.864V624.149Z"/>
<path d="M864.864 624.149H912.864V672.149H864.864V624.149Z"/>
<path d="M912.864 624.149H960.864V672.149H912.864V624.149Z"/>
<path d="M960.864 624.149H1008.86V672.149H960.864V624.149Z"/>
<path d="M1008.86 624.149H1056.86V672.149H1008.86V624.149Z"/>
<path d="M1056.86 624.149H1104.86V672.149H1056.86V624.149Z"/>
<path d="M1104.86 624.149H1152.86V672.149H1104.86V624.149Z"/>
<path d="M1152.86 624.149H1200.86V672.149H1152.86V624.149Z"/>
<path d="M1200.86 624.149H1248.86V672.149H1200.86V624.149Z"/>
<path d="M1248.86 624.149H1296.86V672.149H1248.86V624.149Z"/>
<path d="M1296.86 624.149H1344.86V672.149H1296.86V624.149Z"/>
<path d="M1344.86 624.149H1392.86V672.149H1344.86V624.149Z"/>
<path d="M1392.86 624.149H1440.86V672.149H1392.86V624.149Z"/>
<path d="M0.863525 672.149H48.8635V720.149H0.863525V672.149Z"/>
<path d="M48.8635 672.149H96.8635V720.149H48.8635V672.149Z"/>
<path d="M96.8635 672.149H144.864V720.149H96.8635V672.149Z"/>
<path d="M144.864 672.149H192.864V720.149H144.864V672.149Z"/>
<path d="M192.864 672.149H240.864V720.149H192.864V672.149Z"/>
<path d="M240.864 672.149H288.864V720.149H240.864V672.149Z"/>
<path d="M288.864 672.149H336.864V720.149H288.864V672.149Z"/>
<path d="M336.864 672.149H384.864V720.149H336.864V672.149Z"/>
<path d="M384.864 672.149H432.864V720.149H384.864V672.149Z"/>
<path d="M432.864 672.149H480.864V720.149H432.864V672.149Z"/>
<path d="M480.864 672.149H528.864V720.149H480.864V672.149Z"/>
<path d="M528.864 672.149H576.864V720.149H528.864V672.149Z"/>
<path d="M576.864 672.149H624.864V720.149H576.864V672.149Z"/>
<path d="M624.864 672.149H672.864V720.149H624.864V672.149Z"/>
<path d="M672.864 672.149H720.864V720.149H672.864V672.149Z"/>
<path d="M720.864 672.149H768.864V720.149H720.864V672.149Z"/>
<path d="M768.864 672.149H816.864V720.149H768.864V672.149Z"/>
<path d="M816.864 672.149H864.864V720.149H816.864V672.149Z"/>
<path d="M864.864 672.149H912.864V720.149H864.864V672.149Z"/>
<path d="M912.864 672.149H960.864V720.149H912.864V672.149Z"/>
<path d="M960.864 672.149H1008.86V720.149H960.864V672.149Z"/>
<path d="M1008.86 672.149H1056.86V720.149H1008.86V672.149Z"/>
<path d="M1056.86 672.149H1104.86V720.149H1056.86V672.149Z"/>
<path d="M1104.86 672.149H1152.86V720.149H1104.86V672.149Z"/>
<path d="M1152.86 672.149H1200.86V720.149H1152.86V672.149Z"/>
<path d="M1200.86 672.149H1248.86V720.149H1200.86V672.149Z"/>
<path d="M1248.86 672.149H1296.86V720.149H1248.86V672.149Z"/>
<path d="M1296.86 672.149H1344.86V720.149H1296.86V672.149Z"/>
<path d="M1344.86 672.149H1392.86V720.149H1344.86V672.149Z"/>
<path d="M1392.86 672.149H1440.86V720.149H1392.86V672.149Z"/>
</mask>
<path d="M48.6135 0.149414V48.1494H49.1135V0.149414H48.6135ZM48.8635 47.8994H0.863525V48.3994H48.8635V47.8994ZM96.6135 0.149414V48.1494H97.1135V0.149414H96.6135ZM96.8635 47.8994H48.8635V48.3994H96.8635V47.8994ZM144.614 0.149414V48.1494H145.114V0.149414H144.614ZM144.864 47.8994H96.8635V48.3994H144.864V47.8994ZM192.614 0.149414V48.1494H193.114V0.149414H192.614ZM192.864 47.8994H144.864V48.3994H192.864V47.8994ZM240.614 0.149414V48.1494H241.114V0.149414H240.614ZM240.864 47.8994H192.864V48.3994H240.864V47.8994ZM288.614 0.149414V48.1494H289.114V0.149414H288.614ZM288.864 47.8994H240.864V48.3994H288.864V47.8994ZM336.614 0.149414V48.1494H337.114V0.149414H336.614ZM336.864 47.8994H288.864V48.3994H336.864V47.8994ZM384.614 0.149414V48.1494H385.114V0.149414H384.614ZM384.864 47.8994H336.864V48.3994H384.864V47.8994ZM432.614 0.149414V48.1494H433.114V0.149414H432.614ZM432.864 47.8994H384.864V48.3994H432.864V47.8994ZM480.614 0.149414V48.1494H481.114V0.149414H480.614ZM480.864 47.8994H432.864V48.3994H480.864V47.8994ZM528.614 0.149414V48.1494H529.114V0.149414H528.614ZM528.864 47.8994H480.864V48.3994H528.864V47.8994ZM576.614 0.149414V48.1494H577.114V0.149414H576.614ZM576.864 47.8994H528.864V48.3994H576.864V47.8994ZM624.614 0.149414V48.1494H625.114V0.149414H624.614ZM624.864 47.8994H576.864V48.3994H624.864V47.8994ZM672.614 0.149414V48.1494H673.114V0.149414H672.614ZM672.864 47.8994H624.864V48.3994H672.864V47.8994ZM720.614 0.149414V48.1494H721.114V0.149414H720.614ZM720.864 47.8994H672.864V48.3994H720.864V47.8994ZM768.614 0.149414V48.1494H769.114V0.149414H768.614ZM768.864 47.8994H720.864V48.3994H768.864V47.8994ZM816.614 0.149414V48.1494H817.114V0.149414H816.614ZM816.864 47.8994H768.864V48.3994H816.864V47.8994ZM864.614 0.149414V48.1494H865.114V0.149414H864.614ZM864.864 47.8994H816.864V48.3994H864.864V47.8994ZM912.614 0.149414V48.1494H913.114V0.149414H912.614ZM912.864 47.8994H864.864V48.3994H912.864V47.8994ZM960.614 0.149414V48.1494H961.114V0.149414H960.614ZM960.864 47.8994H912.864V48.3994H960.864V47.8994ZM1008.61 0.149414V48.1494H1009.11V0.149414H1008.61ZM1008.86 47.8994H960.864V48.3994H1008.86V47.8994ZM1056.61 0.149414V48.1494H1057.11V0.149414H1056.61ZM1056.86 47.8994H1008.86V48.3994H1056.86V47.8994ZM1104.61 0.149414V48.1494H1105.11V0.149414H1104.61ZM1104.86 47.8994H1056.86V48.3994H1104.86V47.8994ZM1152.61 0.149414V48.1494H1153.11V0.149414H1152.61ZM1152.86 47.8994H1104.86V48.3994H1152.86V47.8994ZM1200.61 0.149414V48.1494H1201.11V0.149414H1200.61ZM1200.86 47.8994H1152.86V48.3994H1200.86V47.8994ZM1248.61 0.149414V48.1494H1249.11V0.149414H1248.61ZM1248.86 47.8994H1200.86V48.3994H1248.86V47.8994ZM1296.61 0.149414V48.1494H1297.11V0.149414H1296.61ZM1296.86 47.8994H1248.86V48.3994H1296.86V47.8994ZM1344.61 0.149414V48.1494H1345.11V0.149414H1344.61ZM1344.86 47.8994H1296.86V48.3994H1344.86V47.8994ZM1392.61 0.149414V48.1494H1393.11V0.149414H1392.61ZM1392.86 47.8994H1344.86V48.3994H1392.86V47.8994ZM1440.86 47.8994H1392.86V48.3994H1440.86V47.8994ZM48.6135 48.1494V96.1494H49.1135V48.1494H48.6135ZM48.8635 95.8994H0.863525V96.3994H48.8635V95.8994ZM96.6135 48.1494V96.1494H97.1135V48.1494H96.6135ZM96.8635 95.8994H48.8635V96.3994H96.8635V95.8994ZM144.614 48.1494V96.1494H145.114V48.1494H144.614ZM144.864 95.8994H96.8635V96.3994H144.864V95.8994ZM192.614 48.1494V96.1494H193.114V48.1494H192.614ZM192.864 95.8994H144.864V96.3994H192.864V95.8994ZM240.614 48.1494V96.1494H241.114V48.1494H240.614ZM240.864 95.8994H192.864V96.3994H240.864V95.8994ZM288.614 48.1494V96.1494H289.114V48.1494H288.614ZM288.864 95.8994H240.864V96.3994H288.864V95.8994ZM336.614 48.1494V96.1494H337.114V48.1494H336.614ZM336.864 95.8994H288.864V96.3994H336.864V95.8994ZM384.614 48.1494V96.1494H385.114V48.1494H384.614ZM384.864 95.8994H336.864V96.3994H384.864V95.8994ZM432.614 48.1494V96.1494H433.114V48.1494H432.614ZM432.864 95.8994H384.864V96.3994H432.864V95.8994ZM480.614 48.1494V96.1494H481.114V48.1494H480.614ZM480.864 95.8994H432.864V96.3994H480.864V95.8994ZM528.614 48.1494V96.1494H529.114V48.1494H528.614ZM528.864 95.8994H480.864V96.3994H528.864V95.8994ZM576.614 48.1494V96.1494H577.114V48.1494H576.614ZM576.864 95.8994H528.864V96.3994H576.864V95.8994ZM624.614 48.1494V96.1494H625.114V48.1494H624.614ZM624.864 95.8994H576.864V96.3994H624.864V95.8994ZM672.614 48.1494V96.1494H673.114V48.1494H672.614ZM672.864 95.8994H624.864V96.3994H672.864V95.8994ZM720.614 48.1494V96.1494H721.114V48.1494H720.614ZM720.864 95.8994H672.864V96.3994H720.864V95.8994ZM768.614 48.1494V96.1494H769.114V48.1494H768.614ZM768.864 95.8994H720.864V96.3994H768.864V95.8994ZM816.614 48.1494V96.1494H817.114V48.1494H816.614ZM816.864 95.8994H768.864V96.3994H816.864V95.8994ZM864.614 48.1494V96.1494H865.114V48.1494H864.614ZM864.864 95.8994H816.864V96.3994H864.864V95.8994ZM912.614 48.1494V96.1494H913.114V48.1494H912.614ZM912.864 95.8994H864.864V96.3994H912.864V95.8994ZM960.614 48.1494V96.1494H961.114V48.1494H960.614ZM960.864 95.8994H912.864V96.3994H960.864V95.8994ZM1008.61 48.1494V96.1494H1009.11V48.1494H1008.61ZM1008.86 95.8994H960.864V96.3994H1008.86V95.8994ZM1056.61 48.1494V96.1494H1057.11V48.1494H1056.61ZM1056.86 95.8994H1008.86V96.3994H1056.86V95.8994ZM1104.61 48.1494V96.1494H1105.11V48.1494H1104.61ZM1104.86 95.8994H1056.86V96.3994H1104.86V95.8994ZM1152.61 48.1494V96.1494H1153.11V48.1494H1152.61ZM1152.86 95.8994H1104.86V96.3994H1152.86V95.8994ZM1200.61 48.1494V96.1494H1201.11V48.1494H1200.61ZM1200.86 95.8994H1152.86V96.3994H1200.86V95.8994ZM1248.61 48.1494V96.1494H1249.11V48.1494H1248.61ZM1248.86 95.8994H1200.86V96.3994H1248.86V95.8994ZM1296.61 48.1494V96.1494H1297.11V48.1494H1296.61ZM1296.86 95.8994H1248.86V96.3994H1296.86V95.8994ZM1344.61 48.1494V96.1494H1345.11V48.1494H1344.61ZM1344.86 95.8994H1296.86V96.3994H1344.86V95.8994ZM1392.61 48.1494V96.1494H1393.11V48.1494H1392.61ZM1392.86 95.8994H1344.86V96.3994H1392.86V95.8994ZM1440.86 95.8994H1392.86V96.3994H1440.86V95.8994ZM48.6135 96.1494V144.149H49.1135V96.1494H48.6135ZM48.8635 143.899H0.863525V144.399H48.8635V143.899ZM96.6135 96.1494V144.149H97.1135V96.1494H96.6135ZM96.8635 143.899H48.8635V144.399H96.8635V143.899ZM144.614 96.1494V144.149H145.114V96.1494H144.614ZM144.864 143.899H96.8635V144.399H144.864V143.899ZM192.614 96.1494V144.149H193.114V96.1494H192.614ZM192.864 143.899H144.864V144.399H192.864V143.899ZM240.614 96.1494V144.149H241.114V96.1494H240.614ZM240.864 143.899H192.864V144.399H240.864V143.899ZM288.614 96.1494V144.149H289.114V96.1494H288.614ZM288.864 143.899H240.864V144.399H288.864V143.899ZM336.614 96.1494V144.149H337.114V96.1494H336.614ZM336.864 143.899H288.864V144.399H336.864V143.899ZM384.614 96.1494V144.149H385.114V96.1494H384.614ZM384.864 143.899H336.864V144.399H384.864V143.899ZM432.614 96.1494V144.149H433.114V96.1494H432.614ZM432.864 143.899H384.864V144.399H432.864V143.899ZM480.614 96.1494V144.149H481.114V96.1494H480.614ZM480.864 143.899H432.864V144.399H480.864V143.899ZM528.614 96.1494V144.149H529.114V96.1494H528.614ZM528.864 143.899H480.864V144.399H528.864V143.899ZM576.614 96.1494V144.149H577.114V96.1494H576.614ZM576.864 143.899H528.864V144.399H576.864V143.899ZM624.614 96.1494V144.149H625.114V96.1494H624.614ZM624.864 143.899H576.864V144.399H624.864V143.899ZM672.614 96.1494V144.149H673.114V96.1494H672.614ZM672.864 143.899H624.864V144.399H672.864V143.899ZM720.614 96.1494V144.149H721.114V96.1494H720.614ZM720.864 143.899H672.864V144.399H720.864V143.899ZM768.614 96.1494V144.149H769.114V96.1494H768.614ZM768.864 143.899H720.864V144.399H768.864V143.899ZM816.614 96.1494V144.149H817.114V96.1494H816.614ZM816.864 143.899H768.864V144.399H816.864V143.899ZM864.614 96.1494V144.149H865.114V96.1494H864.614ZM864.864 143.899H816.864V144.399H864.864V143.899ZM912.614 96.1494V144.149H913.114V96.1494H912.614ZM912.864 143.899H864.864V144.399H912.864V143.899ZM960.614 96.1494V144.149H961.114V96.1494H960.614ZM960.864 143.899H912.864V144.399H960.864V143.899ZM1008.61 96.1494V144.149H1009.11V96.1494H1008.61ZM1008.86 143.899H960.864V144.399H1008.86V143.899ZM1056.61 96.1494V144.149H1057.11V96.1494H1056.61ZM1056.86 143.899H1008.86V144.399H1056.86V143.899ZM1104.61 96.1494V144.149H1105.11V96.1494H1104.61ZM1104.86 143.899H1056.86V144.399H1104.86V143.899ZM1152.61 96.1494V144.149H1153.11V96.1494H1152.61ZM1152.86 143.899H1104.86V144.399H1152.86V143.899ZM1200.61 96.1494V144.149H1201.11V96.1494H1200.61ZM1200.86 143.899H1152.86V144.399H1200.86V143.899ZM1248.61 96.1494V144.149H1249.11V96.1494H1248.61ZM1248.86 143.899H1200.86V144.399H1248.86V143.899ZM1296.61 96.1494V144.149H1297.11V96.1494H1296.61ZM1296.86 143.899H1248.86V144.399H1296.86V143.899ZM1344.61 96.1494V144.149H1345.11V96.1494H1344.61ZM1344.86 143.899H1296.86V144.399H1344.86V143.899ZM1392.61 96.1494V144.149H1393.11V96.1494H1392.61ZM1392.86 143.899H1344.86V144.399H1392.86V143.899ZM1440.86 143.899H1392.86V144.399H1440.86V143.899ZM48.6135 144.149V192.149H49.1135V144.149H48.6135ZM48.8635 191.899H0.863525V192.399H48.8635V191.899ZM96.6135 144.149V192.149H97.1135V144.149H96.6135ZM96.8635 191.899H48.8635V192.399H96.8635V191.899ZM144.614 144.149V192.149H145.114V144.149H144.614ZM144.864 191.899H96.8635V192.399H144.864V191.899ZM192.614 144.149V192.149H193.114V144.149H192.614ZM192.864 191.899H144.864V192.399H192.864V191.899ZM240.614 144.149V192.149H241.114V144.149H240.614ZM240.864 191.899H192.864V192.399H240.864V191.899ZM288.614 144.149V192.149H289.114V144.149H288.614ZM288.864 191.899H240.864V192.399H288.864V191.899ZM336.614 144.149V192.149H337.114V144.149H336.614ZM336.864 191.899H288.864V192.399H336.864V191.899ZM384.614 144.149V192.149H385.114V144.149H384.614ZM384.864 191.899H336.864V192.399H384.864V191.899ZM432.614 144.149V192.149H433.114V144.149H432.614ZM432.864 191.899H384.864V192.399H432.864V191.899ZM480.614 144.149V192.149H481.114V144.149H480.614ZM480.864 191.899H432.864V192.399H480.864V191.899ZM528.614 144.149V192.149H529.114V144.149H528.614ZM528.864 191.899H480.864V192.399H528.864V191.899ZM576.614 144.149V192.149H577.114V144.149H576.614ZM576.864 191.899H528.864V192.399H576.864V191.899ZM624.614 144.149V192.149H625.114V144.149H624.614ZM624.864 191.899H576.864V192.399H624.864V191.899ZM672.614 144.149V192.149H673.114V144.149H672.614ZM672.864 191.899H624.864V192.399H672.864V191.899ZM720.614 144.149V192.149H721.114V144.149H720.614ZM720.864 191.899H672.864V192.399H720.864V191.899ZM768.614 144.149V192.149H769.114V144.149H768.614ZM768.864 191.899H720.864V192.399H768.864V191.899ZM816.614 144.149V192.149H817.114V144.149H816.614ZM816.864 191.899H768.864V192.399H816.864V191.899ZM864.614 144.149V192.149H865.114V144.149H864.614ZM864.864 191.899H816.864V192.399H864.864V191.899ZM912.614 144.149V192.149H913.114V144.149H912.614ZM912.864 191.899H864.864V192.399H912.864V191.899ZM960.614 144.149V192.149H961.114V144.149H960.614ZM960.864 191.899H912.864V192.399H960.864V191.899ZM1008.61 144.149V192.149H1009.11V144.149H1008.61ZM1008.86 191.899H960.864V192.399H1008.86V191.899ZM1056.61 144.149V192.149H1057.11V144.149H1056.61ZM1056.86 191.899H1008.86V192.399H1056.86V191.899ZM1104.61 144.149V192.149H1105.11V144.149H1104.61ZM1104.86 191.899H1056.86V192.399H1104.86V191.899ZM1152.61 144.149V192.149H1153.11V144.149H1152.61ZM1152.86 191.899H1104.86V192.399H1152.86V191.899ZM1200.61 144.149V192.149H1201.11V144.149H1200.61ZM1200.86 191.899H1152.86V192.399H1200.86V191.899ZM1248.61 144.149V192.149H1249.11V144.149H1248.61ZM1248.86 191.899H1200.86V192.399H1248.86V191.899ZM1296.61 144.149V192.149H1297.11V144.149H1296.61ZM1296.86 191.899H1248.86V192.399H1296.86V191.899ZM1344.61 144.149V192.149H1345.11V144.149H1344.61ZM1344.86 191.899H1296.86V192.399H1344.86V191.899ZM1392.61 144.149V192.149H1393.11V144.149H1392.61ZM1392.86 191.899H1344.86V192.399H1392.86V191.899ZM1440.86 191.899H1392.86V192.399H1440.86V191.899ZM48.6135 192.149V240.149H49.1135V192.149H48.6135ZM48.8635 239.899H0.863525V240.399H48.8635V239.899ZM96.6135 192.149V240.149H97.1135V192.149H96.6135ZM96.8635 239.899H48.8635V240.399H96.8635V239.899ZM144.614 192.149V240.149H145.114V192.149H144.614ZM144.864 239.899H96.8635V240.399H144.864V239.899ZM192.614 192.149V240.149H193.114V192.149H192.614ZM192.864 239.899H144.864V240.399H192.864V239.899ZM240.614 192.149V240.149H241.114V192.149H240.614ZM240.864 239.899H192.864V240.399H240.864V239.899ZM288.614 192.149V240.149H289.114V192.149H288.614ZM288.864 239.899H240.864V240.399H288.864V239.899ZM336.614 192.149V240.149H337.114V192.149H336.614ZM336.864 239.899H288.864V240.399H336.864V239.899ZM384.614 192.149V240.149H385.114V192.149H384.614ZM384.864 239.899H336.864V240.399H384.864V239.899ZM432.614 192.149V240.149H433.114V192.149H432.614ZM432.864 239.899H384.864V240.399H432.864V239.899ZM480.614 192.149V240.149H481.114V192.149H480.614ZM480.864 239.899H432.864V240.399H480.864V239.899ZM528.614 192.149V240.149H529.114V192.149H528.614ZM528.864 239.899H480.864V240.399H528.864V239.899ZM576.614 192.149V240.149H577.114V192.149H576.614ZM576.864 239.899H528.864V240.399H576.864V239.899ZM624.614 192.149V240.149H625.114V192.149H624.614ZM624.864 239.899H576.864V240.399H624.864V239.899ZM672.614 192.149V240.149H673.114V192.149H672.614ZM672.864 239.899H624.864V240.399H672.864V239.899ZM720.614 192.149V240.149H721.114V192.149H720.614ZM720.864 239.899H672.864V240.399H720.864V239.899ZM768.614 192.149V240.149H769.114V192.149H768.614ZM768.864 239.899H720.864V240.399H768.864V239.899ZM816.614 192.149V240.149H817.114V192.149H816.614ZM816.864 239.899H768.864V240.399H816.864V239.899ZM864.614 192.149V240.149H865.114V192.149H864.614ZM864.864 239.899H816.864V240.399H864.864V239.899ZM912.614 192.149V240.149H913.114V192.149H912.614ZM912.864 239.899H864.864V240.399H912.864V239.899ZM960.614 192.149V240.149H961.114V192.149H960.614ZM960.864 239.899H912.864V240.399H960.864V239.899ZM1008.61 192.149V240.149H1009.11V192.149H1008.61ZM1008.86 239.899H960.864V240.399H1008.86V239.899ZM1056.61 192.149V240.149H1057.11V192.149H1056.61ZM1056.86 239.899H1008.86V240.399H1056.86V239.899ZM1104.61 192.149V240.149H1105.11V192.149H1104.61ZM1104.86 239.899H1056.86V240.399H1104.86V239.899ZM1152.61 192.149V240.149H1153.11V192.149H1152.61ZM1152.86 239.899H1104.86V240.399H1152.86V239.899ZM1200.61 192.149V240.149H1201.11V192.149H1200.61ZM1200.86 239.899H1152.86V240.399H1200.86V239.899ZM1248.61 192.149V240.149H1249.11V192.149H1248.61ZM1248.86 239.899H1200.86V240.399H1248.86V239.899ZM1296.61 192.149V240.149H1297.11V192.149H1296.61ZM1296.86 239.899H1248.86V240.399H1296.86V239.899ZM1344.61 192.149V240.149H1345.11V192.149H1344.61ZM1344.86 239.899H1296.86V240.399H1344.86V239.899ZM1392.61 192.149V240.149H1393.11V192.149H1392.61ZM1392.86 239.899H1344.86V240.399H1392.86V239.899ZM1440.86 239.899H1392.86V240.399H1440.86V239.899ZM48.6135 240.149V288.149H49.1135V240.149H48.6135ZM48.8635 287.899H0.863525V288.399H48.8635V287.899ZM96.6135 240.149V288.149H97.1135V240.149H96.6135ZM96.8635 287.899H48.8635V288.399H96.8635V287.899ZM144.614 240.149V288.149H145.114V240.149H144.614ZM144.864 287.899H96.8635V288.399H144.864V287.899ZM192.614 240.149V288.149H193.114V240.149H192.614ZM192.864 287.899H144.864V288.399H192.864V287.899ZM240.614 240.149V288.149H241.114V240.149H240.614ZM240.864 287.899H192.864V288.399H240.864V287.899ZM288.614 240.149V288.149H289.114V240.149H288.614ZM288.864 287.899H240.864V288.399H288.864V287.899ZM336.614 240.149V288.149H337.114V240.149H336.614ZM336.864 287.899H288.864V288.399H336.864V287.899ZM384.614 240.149V288.149H385.114V240.149H384.614ZM384.864 287.899H336.864V288.399H384.864V287.899ZM432.614 240.149V288.149H433.114V240.149H432.614ZM432.864 287.899H384.864V288.399H432.864V287.899ZM480.614 240.149V288.149H481.114V240.149H480.614ZM480.864 287.899H432.864V288.399H480.864V287.899ZM528.614 240.149V288.149H529.114V240.149H528.614ZM528.864 287.899H480.864V288.399H528.864V287.899ZM576.614 240.149V288.149H577.114V240.149H576.614ZM576.864 287.899H528.864V288.399H576.864V287.899ZM624.614 240.149V288.149H625.114V240.149H624.614ZM624.864 287.899H576.864V288.399H624.864V287.899ZM672.614 240.149V288.149H673.114V240.149H672.614ZM672.864 287.899H624.864V288.399H672.864V287.899ZM720.614 240.149V288.149H721.114V240.149H720.614ZM720.864 287.899H672.864V288.399H720.864V287.899ZM768.614 240.149V288.149H769.114V240.149H768.614ZM768.864 287.899H720.864V288.399H768.864V287.899ZM816.614 240.149V288.149H817.114V240.149H816.614ZM816.864 287.899H768.864V288.399H816.864V287.899ZM864.614 240.149V288.149H865.114V240.149H864.614ZM864.864 287.899H816.864V288.399H864.864V287.899ZM912.614 240.149V288.149H913.114V240.149H912.614ZM912.864 287.899H864.864V288.399H912.864V287.899ZM960.614 240.149V288.149H961.114V240.149H960.614ZM960.864 287.899H912.864V288.399H960.864V287.899ZM1008.61 240.149V288.149H1009.11V240.149H1008.61ZM1008.86 287.899H960.864V288.399H1008.86V287.899ZM1056.61 240.149V288.149H1057.11V240.149H1056.61ZM1056.86 287.899H1008.86V288.399H1056.86V287.899ZM1104.61 240.149V288.149H1105.11V240.149H1104.61ZM1104.86 287.899H1056.86V288.399H1104.86V287.899ZM1152.61 240.149V288.149H1153.11V240.149H1152.61ZM1152.86 287.899H1104.86V288.399H1152.86V287.899ZM1200.61 240.149V288.149H1201.11V240.149H1200.61ZM1200.86 287.899H1152.86V288.399H1200.86V287.899ZM1248.61 240.149V288.149H1249.11V240.149H1248.61ZM1248.86 287.899H1200.86V288.399H1248.86V287.899ZM1296.61 240.149V288.149H1297.11V240.149H1296.61ZM1296.86 287.899H1248.86V288.399H1296.86V287.899ZM1344.61 240.149V288.149H1345.11V240.149H1344.61ZM1344.86 287.899H1296.86V288.399H1344.86V287.899ZM1392.61 240.149V288.149H1393.11V240.149H1392.61ZM1392.86 287.899H1344.86V288.399H1392.86V287.899ZM1440.86 287.899H1392.86V288.399H1440.86V287.899ZM48.6135 288.149V336.149H49.1135V288.149H48.6135ZM48.8635 335.899H0.863525V336.399H48.8635V335.899ZM96.6135 288.149V336.149H97.1135V288.149H96.6135ZM96.8635 335.899H48.8635V336.399H96.8635V335.899ZM144.614 288.149V336.149H145.114V288.149H144.614ZM144.864 335.899H96.8635V336.399H144.864V335.899ZM192.614 288.149V336.149H193.114V288.149H192.614ZM192.864 335.899H144.864V336.399H192.864V335.899ZM240.614 288.149V336.149H241.114V288.149H240.614ZM240.864 335.899H192.864V336.399H240.864V335.899ZM288.614 288.149V336.149H289.114V288.149H288.614ZM288.864 335.899H240.864V336.399H288.864V335.899ZM336.614 288.149V336.149H337.114V288.149H336.614ZM336.864 335.899H288.864V336.399H336.864V335.899ZM384.614 288.149V336.149H385.114V288.149H384.614ZM384.864 335.899H336.864V336.399H384.864V335.899ZM432.614 288.149V336.149H433.114V288.149H432.614ZM432.864 335.899H384.864V336.399H432.864V335.899ZM480.614 288.149V336.149H481.114V288.149H480.614ZM480.864 335.899H432.864V336.399H480.864V335.899ZM528.614 288.149V336.149H529.114V288.149H528.614ZM528.864 335.899H480.864V336.399H528.864V335.899ZM576.614 288.149V336.149H577.114V288.149H576.614ZM576.864 335.899H528.864V336.399H576.864V335.899ZM624.614 288.149V336.149H625.114V288.149H624.614ZM624.864 335.899H576.864V336.399H624.864V335.899ZM672.614 288.149V336.149H673.114V288.149H672.614ZM672.864 335.899H624.864V336.399H672.864V335.899ZM720.614 288.149V336.149H721.114V288.149H720.614ZM720.864 335.899H672.864V336.399H720.864V335.899ZM768.614 288.149V336.149H769.114V288.149H768.614ZM768.864 335.899H720.864V336.399H768.864V335.899ZM816.614 288.149V336.149H817.114V288.149H816.614ZM816.864 335.899H768.864V336.399H816.864V335.899ZM864.614 288.149V336.149H865.114V288.149H864.614ZM864.864 335.899H816.864V336.399H864.864V335.899ZM912.614 288.149V336.149H913.114V288.149H912.614ZM912.864 335.899H864.864V336.399H912.864V335.899ZM960.614 288.149V336.149H961.114V288.149H960.614ZM960.864 335.899H912.864V336.399H960.864V335.899ZM1008.61 288.149V336.149H1009.11V288.149H1008.61ZM1008.86 335.899H960.864V336.399H1008.86V335.899ZM1056.61 288.149V336.149H1057.11V288.149H1056.61ZM1056.86 335.899H1008.86V336.399H1056.86V335.899ZM1104.61 288.149V336.149H1105.11V288.149H1104.61ZM1104.86 335.899H1056.86V336.399H1104.86V335.899ZM1152.61 288.149V336.149H1153.11V288.149H1152.61ZM1152.86 335.899H1104.86V336.399H1152.86V335.899ZM1200.61 288.149V336.149H1201.11V288.149H1200.61ZM1200.86 335.899H1152.86V336.399H1200.86V335.899ZM1248.61 288.149V336.149H1249.11V288.149H1248.61ZM1248.86 335.899H1200.86V336.399H1248.86V335.899ZM1296.61 288.149V336.149H1297.11V288.149H1296.61ZM1296.86 335.899H1248.86V336.399H1296.86V335.899ZM1344.61 288.149V336.149H1345.11V288.149H1344.61ZM1344.86 335.899H1296.86V336.399H1344.86V335.899ZM1392.61 288.149V336.149H1393.11V288.149H1392.61ZM1392.86 335.899H1344.86V336.399H1392.86V335.899ZM1440.86 335.899H1392.86V336.399H1440.86V335.899ZM48.6135 336.149V384.149H49.1135V336.149H48.6135ZM48.8635 383.899H0.863525V384.399H48.8635V383.899ZM96.6135 336.149V384.149H97.1135V336.149H96.6135ZM96.8635 383.899H48.8635V384.399H96.8635V383.899ZM144.614 336.149V384.149H145.114V336.149H144.614ZM144.864 383.899H96.8635V384.399H144.864V383.899ZM192.614 336.149V384.149H193.114V336.149H192.614ZM192.864 383.899H144.864V384.399H192.864V383.899ZM240.614 336.149V384.149H241.114V336.149H240.614ZM240.864 383.899H192.864V384.399H240.864V383.899ZM288.614 336.149V384.149H289.114V336.149H288.614ZM288.864 383.899H240.864V384.399H288.864V383.899ZM336.614 336.149V384.149H337.114V336.149H336.614ZM336.864 383.899H288.864V384.399H336.864V383.899ZM384.614 336.149V384.149H385.114V336.149H384.614ZM384.864 383.899H336.864V384.399H384.864V383.899ZM432.614 336.149V384.149H433.114V336.149H432.614ZM432.864 383.899H384.864V384.399H432.864V383.899ZM480.614 336.149V384.149H481.114V336.149H480.614ZM480.864 383.899H432.864V384.399H480.864V383.899ZM528.614 336.149V384.149H529.114V336.149H528.614ZM528.864 383.899H480.864V384.399H528.864V383.899ZM576.614 336.149V384.149H577.114V336.149H576.614ZM576.864 383.899H528.864V384.399H576.864V383.899ZM624.614 336.149V384.149H625.114V336.149H624.614ZM624.864 383.899H576.864V384.399H624.864V383.899ZM672.614 336.149V384.149H673.114V336.149H672.614ZM672.864 383.899H624.864V384.399H672.864V383.899ZM720.614 336.149V384.149H721.114V336.149H720.614ZM720.864 383.899H672.864V384.399H720.864V383.899ZM768.614 336.149V384.149H769.114V336.149H768.614ZM768.864 383.899H720.864V384.399H768.864V383.899ZM816.614 336.149V384.149H817.114V336.149H816.614ZM816.864 383.899H768.864V384.399H816.864V383.899ZM864.614 336.149V384.149H865.114V336.149H864.614ZM864.864 383.899H816.864V384.399H864.864V383.899ZM912.614 336.149V384.149H913.114V336.149H912.614ZM912.864 383.899H864.864V384.399H912.864V383.899ZM960.614 336.149V384.149H961.114V336.149H960.614ZM960.864 383.899H912.864V384.399H960.864V383.899ZM1008.61 336.149V384.149H1009.11V336.149H1008.61ZM1008.86 383.899H960.864V384.399H1008.86V383.899ZM1056.61 336.149V384.149H1057.11V336.149H1056.61ZM1056.86 383.899H1008.86V384.399H1056.86V383.899ZM1104.61 336.149V384.149H1105.11V336.149H1104.61ZM1104.86 383.899H1056.86V384.399H1104.86V383.899ZM1152.61 336.149V384.149H1153.11V336.149H1152.61ZM1152.86 383.899H1104.86V384.399H1152.86V383.899ZM1200.61 336.149V384.149H1201.11V336.149H1200.61ZM1200.86 383.899H1152.86V384.399H1200.86V383.899ZM1248.61 336.149V384.149H1249.11V336.149H1248.61ZM1248.86 383.899H1200.86V384.399H1248.86V383.899ZM1296.61 336.149V384.149H1297.11V336.149H1296.61ZM1296.86 383.899H1248.86V384.399H1296.86V383.899ZM1344.61 336.149V384.149H1345.11V336.149H1344.61ZM1344.86 383.899H1296.86V384.399H1344.86V383.899ZM1392.61 336.149V384.149H1393.11V336.149H1392.61ZM1392.86 383.899H1344.86V384.399H1392.86V383.899ZM1440.86 383.899H1392.86V384.399H1440.86V383.899ZM48.6135 384.149V432.149H49.1135V384.149H48.6135ZM48.8635 431.899H0.863525V432.399H48.8635V431.899ZM96.6135 384.149V432.149H97.1135V384.149H96.6135ZM96.8635 431.899H48.8635V432.399H96.8635V431.899ZM144.614 384.149V432.149H145.114V384.149H144.614ZM144.864 431.899H96.8635V432.399H144.864V431.899ZM192.614 384.149V432.149H193.114V384.149H192.614ZM192.864 431.899H144.864V432.399H192.864V431.899ZM240.614 384.149V432.149H241.114V384.149H240.614ZM240.864 431.899H192.864V432.399H240.864V431.899ZM288.614 384.149V432.149H289.114V384.149H288.614ZM288.864 431.899H240.864V432.399H288.864V431.899ZM336.614 384.149V432.149H337.114V384.149H336.614ZM336.864 431.899H288.864V432.399H336.864V431.899ZM384.614 384.149V432.149H385.114V384.149H384.614ZM384.864 431.899H336.864V432.399H384.864V431.899ZM432.614 384.149V432.149H433.114V384.149H432.614ZM432.864 431.899H384.864V432.399H432.864V431.899ZM480.614 384.149V432.149H481.114V384.149H480.614ZM480.864 431.899H432.864V432.399H480.864V431.899ZM528.614 384.149V432.149H529.114V384.149H528.614ZM528.864 431.899H480.864V432.399H528.864V431.899ZM576.614 384.149V432.149H577.114V384.149H576.614ZM576.864 431.899H528.864V432.399H576.864V431.899ZM624.614 384.149V432.149H625.114V384.149H624.614ZM624.864 431.899H576.864V432.399H624.864V431.899ZM672.614 384.149V432.149H673.114V384.149H672.614ZM672.864 431.899H624.864V432.399H672.864V431.899ZM720.614 384.149V432.149H721.114V384.149H720.614ZM720.864 431.899H672.864V432.399H720.864V431.899ZM768.614 384.149V432.149H769.114V384.149H768.614ZM768.864 431.899H720.864V432.399H768.864V431.899ZM816.614 384.149V432.149H817.114V384.149H816.614ZM816.864 431.899H768.864V432.399H816.864V431.899ZM864.614 384.149V432.149H865.114V384.149H864.614ZM864.864 431.899H816.864V432.399H864.864V431.899ZM912.614 384.149V432.149H913.114V384.149H912.614ZM912.864 431.899H864.864V432.399H912.864V431.899ZM960.614 384.149V432.149H961.114V384.149H960.614ZM960.864 431.899H912.864V432.399H960.864V431.899ZM1008.61 384.149V432.149H1009.11V384.149H1008.61ZM1008.86 431.899H960.864V432.399H1008.86V431.899ZM1056.61 384.149V432.149H1057.11V384.149H1056.61ZM1056.86 431.899H1008.86V432.399H1056.86V431.899ZM1104.61 384.149V432.149H1105.11V384.149H1104.61ZM1104.86 431.899H1056.86V432.399H1104.86V431.899ZM1152.61 384.149V432.149H1153.11V384.149H1152.61ZM1152.86 431.899H1104.86V432.399H1152.86V431.899ZM1200.61 384.149V432.149H1201.11V384.149H1200.61ZM1200.86 431.899H1152.86V432.399H1200.86V431.899ZM1248.61 384.149V432.149H1249.11V384.149H1248.61ZM1248.86 431.899H1200.86V432.399H1248.86V431.899ZM1296.61 384.149V432.149H1297.11V384.149H1296.61ZM1296.86 431.899H1248.86V432.399H1296.86V431.899ZM1344.61 384.149V432.149H1345.11V384.149H1344.61ZM1344.86 431.899H1296.86V432.399H1344.86V431.899ZM1392.61 384.149V432.149H1393.11V384.149H1392.61ZM1392.86 431.899H1344.86V432.399H1392.86V431.899ZM1440.86 431.899H1392.86V432.399H1440.86V431.899ZM48.6135 432.149V480.149H49.1135V432.149H48.6135ZM48.8635 479.899H0.863525V480.399H48.8635V479.899ZM96.6135 432.149V480.149H97.1135V432.149H96.6135ZM96.8635 479.899H48.8635V480.399H96.8635V479.899ZM144.614 432.149V480.149H145.114V432.149H144.614ZM144.864 479.899H96.8635V480.399H144.864V479.899ZM192.614 432.149V480.149H193.114V432.149H192.614ZM192.864 479.899H144.864V480.399H192.864V479.899ZM240.614 432.149V480.149H241.114V432.149H240.614ZM240.864 479.899H192.864V480.399H240.864V479.899ZM288.614 432.149V480.149H289.114V432.149H288.614ZM288.864 479.899H240.864V480.399H288.864V479.899ZM336.614 432.149V480.149H337.114V432.149H336.614ZM336.864 479.899H288.864V480.399H336.864V479.899ZM384.614 432.149V480.149H385.114V432.149H384.614ZM384.864 479.899H336.864V480.399H384.864V479.899ZM432.614 432.149V480.149H433.114V432.149H432.614ZM432.864 479.899H384.864V480.399H432.864V479.899ZM480.614 432.149V480.149H481.114V432.149H480.614ZM480.864 479.899H432.864V480.399H480.864V479.899ZM528.614 432.149V480.149H529.114V432.149H528.614ZM528.864 479.899H480.864V480.399H528.864V479.899ZM576.614 432.149V480.149H577.114V432.149H576.614ZM576.864 479.899H528.864V480.399H576.864V479.899ZM624.614 432.149V480.149H625.114V432.149H624.614ZM624.864 479.899H576.864V480.399H624.864V479.899ZM672.614 432.149V480.149H673.114V432.149H672.614ZM672.864 479.899H624.864V480.399H672.864V479.899ZM720.614 432.149V480.149H721.114V432.149H720.614ZM720.864 479.899H672.864V480.399H720.864V479.899ZM768.614 432.149V480.149H769.114V432.149H768.614ZM768.864 479.899H720.864V480.399H768.864V479.899ZM816.614 432.149V480.149H817.114V432.149H816.614ZM816.864 479.899H768.864V480.399H816.864V479.899ZM864.614 432.149V480.149H865.114V432.149H864.614ZM864.864 479.899H816.864V480.399H864.864V479.899ZM912.614 432.149V480.149H913.114V432.149H912.614ZM912.864 479.899H864.864V480.399H912.864V479.899ZM960.614 432.149V480.149H961.114V432.149H960.614ZM960.864 479.899H912.864V480.399H960.864V479.899ZM1008.61 432.149V480.149H1009.11V432.149H1008.61ZM1008.86 479.899H960.864V480.399H1008.86V479.899ZM1056.61 432.149V480.149H1057.11V432.149H1056.61ZM1056.86 479.899H1008.86V480.399H1056.86V479.899ZM1104.61 432.149V480.149H1105.11V432.149H1104.61ZM1104.86 479.899H1056.86V480.399H1104.86V479.899ZM1152.61 432.149V480.149H1153.11V432.149H1152.61ZM1152.86 479.899H1104.86V480.399H1152.86V479.899ZM1200.61 432.149V480.149H1201.11V432.149H1200.61ZM1200.86 479.899H1152.86V480.399H1200.86V479.899ZM1248.61 432.149V480.149H1249.11V432.149H1248.61ZM1248.86 479.899H1200.86V480.399H1248.86V479.899ZM1296.61 432.149V480.149H1297.11V432.149H1296.61ZM1296.86 479.899H1248.86V480.399H1296.86V479.899ZM1344.61 432.149V480.149H1345.11V432.149H1344.61ZM1344.86 479.899H1296.86V480.399H1344.86V479.899ZM1392.61 432.149V480.149H1393.11V432.149H1392.61ZM1392.86 479.899H1344.86V480.399H1392.86V479.899ZM1440.86 479.899H1392.86V480.399H1440.86V479.899ZM48.6135 480.149V528.149H49.1135V480.149H48.6135ZM48.8635 527.899H0.863525V528.399H48.8635V527.899ZM96.6135 480.149V528.149H97.1135V480.149H96.6135ZM96.8635 527.899H48.8635V528.399H96.8635V527.899ZM144.614 480.149V528.149H145.114V480.149H144.614ZM144.864 527.899H96.8635V528.399H144.864V527.899ZM192.614 480.149V528.149H193.114V480.149H192.614ZM192.864 527.899H144.864V528.399H192.864V527.899ZM240.614 480.149V528.149H241.114V480.149H240.614ZM240.864 527.899H192.864V528.399H240.864V527.899ZM288.614 480.149V528.149H289.114V480.149H288.614ZM288.864 527.899H240.864V528.399H288.864V527.899ZM336.614 480.149V528.149H337.114V480.149H336.614ZM336.864 527.899H288.864V528.399H336.864V527.899ZM384.614 480.149V528.149H385.114V480.149H384.614ZM384.864 527.899H336.864V528.399H384.864V527.899ZM432.614 480.149V528.149H433.114V480.149H432.614ZM432.864 527.899H384.864V528.399H432.864V527.899ZM480.614 480.149V528.149H481.114V480.149H480.614ZM480.864 527.899H432.864V528.399H480.864V527.899ZM528.614 480.149V528.149H529.114V480.149H528.614ZM528.864 527.899H480.864V528.399H528.864V527.899ZM576.614 480.149V528.149H577.114V480.149H576.614ZM576.864 527.899H528.864V528.399H576.864V527.899ZM624.614 480.149V528.149H625.114V480.149H624.614ZM624.864 527.899H576.864V528.399H624.864V527.899ZM672.614 480.149V528.149H673.114V480.149H672.614ZM672.864 527.899H624.864V528.399H672.864V527.899ZM720.614 480.149V528.149H721.114V480.149H720.614ZM720.864 527.899H672.864V528.399H720.864V527.899ZM768.614 480.149V528.149H769.114V480.149H768.614ZM768.864 527.899H720.864V528.399H768.864V527.899ZM816.614 480.149V528.149H817.114V480.149H816.614ZM816.864 527.899H768.864V528.399H816.864V527.899ZM864.614 480.149V528.149H865.114V480.149H864.614ZM864.864 527.899H816.864V528.399H864.864V527.899ZM912.614 480.149V528.149H913.114V480.149H912.614ZM912.864 527.899H864.864V528.399H912.864V527.899ZM960.614 480.149V528.149H961.114V480.149H960.614ZM960.864 527.899H912.864V528.399H960.864V527.899ZM1008.61 480.149V528.149H1009.11V480.149H1008.61ZM1008.86 527.899H960.864V528.399H1008.86V527.899ZM1056.61 480.149V528.149H1057.11V480.149H1056.61ZM1056.86 527.899H1008.86V528.399H1056.86V527.899ZM1104.61 480.149V528.149H1105.11V480.149H1104.61ZM1104.86 527.899H1056.86V528.399H1104.86V527.899ZM1152.61 480.149V528.149H1153.11V480.149H1152.61ZM1152.86 527.899H1104.86V528.399H1152.86V527.899ZM1200.61 480.149V528.149H1201.11V480.149H1200.61ZM1200.86 527.899H1152.86V528.399H1200.86V527.899ZM1248.61 480.149V528.149H1249.11V480.149H1248.61ZM1248.86 527.899H1200.86V528.399H1248.86V527.899ZM1296.61 480.149V528.149H1297.11V480.149H1296.61ZM1296.86 527.899H1248.86V528.399H1296.86V527.899ZM1344.61 480.149V528.149H1345.11V480.149H1344.61ZM1344.86 527.899H1296.86V528.399H1344.86V527.899ZM1392.61 480.149V528.149H1393.11V480.149H1392.61ZM1392.86 527.899H1344.86V528.399H1392.86V527.899ZM1440.86 527.899H1392.86V528.399H1440.86V527.899ZM48.6135 528.149V576.149H49.1135V528.149H48.6135ZM48.8635 575.899H0.863525V576.399H48.8635V575.899ZM96.6135 528.149V576.149H97.1135V528.149H96.6135ZM96.8635 575.899H48.8635V576.399H96.8635V575.899ZM144.614 528.149V576.149H145.114V528.149H144.614ZM144.864 575.899H96.8635V576.399H144.864V575.899ZM192.614 528.149V576.149H193.114V528.149H192.614ZM192.864 575.899H144.864V576.399H192.864V575.899ZM240.614 528.149V576.149H241.114V528.149H240.614ZM240.864 575.899H192.864V576.399H240.864V575.899ZM288.614 528.149V576.149H289.114V528.149H288.614ZM288.864 575.899H240.864V576.399H288.864V575.899ZM336.614 528.149V576.149H337.114V528.149H336.614ZM336.864 575.899H288.864V576.399H336.864V575.899ZM384.614 528.149V576.149H385.114V528.149H384.614ZM384.864 575.899H336.864V576.399H384.864V575.899ZM432.614 528.149V576.149H433.114V528.149H432.614ZM432.864 575.899H384.864V576.399H432.864V575.899ZM480.614 528.149V576.149H481.114V528.149H480.614ZM480.864 575.899H432.864V576.399H480.864V575.899ZM528.614 528.149V576.149H529.114V528.149H528.614ZM528.864 575.899H480.864V576.399H528.864V575.899ZM576.614 528.149V576.149H577.114V528.149H576.614ZM576.864 575.899H528.864V576.399H576.864V575.899ZM624.614 528.149V576.149H625.114V528.149H624.614ZM624.864 575.899H576.864V576.399H624.864V575.899ZM672.614 528.149V576.149H673.114V528.149H672.614ZM672.864 575.899H624.864V576.399H672.864V575.899ZM720.614 528.149V576.149H721.114V528.149H720.614ZM720.864 575.899H672.864V576.399H720.864V575.899ZM768.614 528.149V576.149H769.114V528.149H768.614ZM768.864 575.899H720.864V576.399H768.864V575.899ZM816.614 528.149V576.149H817.114V528.149H816.614ZM816.864 575.899H768.864V576.399H816.864V575.899ZM864.614 528.149V576.149H865.114V528.149H864.614ZM864.864 575.899H816.864V576.399H864.864V575.899ZM912.614 528.149V576.149H913.114V528.149H912.614ZM912.864 575.899H864.864V576.399H912.864V575.899ZM960.614 528.149V576.149H961.114V528.149H960.614ZM960.864 575.899H912.864V576.399H960.864V575.899ZM1008.61 528.149V576.149H1009.11V528.149H1008.61ZM1008.86 575.899H960.864V576.399H1008.86V575.899ZM1056.61 528.149V576.149H1057.11V528.149H1056.61ZM1056.86 575.899H1008.86V576.399H1056.86V575.899ZM1104.61 528.149V576.149H1105.11V528.149H1104.61ZM1104.86 575.899H1056.86V576.399H1104.86V575.899ZM1152.61 528.149V576.149H1153.11V528.149H1152.61ZM1152.86 575.899H1104.86V576.399H1152.86V575.899ZM1200.61 528.149V576.149H1201.11V528.149H1200.61ZM1200.86 575.899H1152.86V576.399H1200.86V575.899ZM1248.61 528.149V576.149H1249.11V528.149H1248.61ZM1248.86 575.899H1200.86V576.399H1248.86V575.899ZM1296.61 528.149V576.149H1297.11V528.149H1296.61ZM1296.86 575.899H1248.86V576.399H1296.86V575.899ZM1344.61 528.149V576.149H1345.11V528.149H1344.61ZM1344.86 575.899H1296.86V576.399H1344.86V575.899ZM1392.61 528.149V576.149H1393.11V528.149H1392.61ZM1392.86 575.899H1344.86V576.399H1392.86V575.899ZM1440.86 575.899H1392.86V576.399H1440.86V575.899ZM48.6135 576.149V624.149H49.1135V576.149H48.6135ZM48.8635 623.899H0.863525V624.399H48.8635V623.899ZM96.6135 576.149V624.149H97.1135V576.149H96.6135ZM96.8635 623.899H48.8635V624.399H96.8635V623.899ZM144.614 576.149V624.149H145.114V576.149H144.614ZM144.864 623.899H96.8635V624.399H144.864V623.899ZM192.614 576.149V624.149H193.114V576.149H192.614ZM192.864 623.899H144.864V624.399H192.864V623.899ZM240.614 576.149V624.149H241.114V576.149H240.614ZM240.864 623.899H192.864V624.399H240.864V623.899ZM288.614 576.149V624.149H289.114V576.149H288.614ZM288.864 623.899H240.864V624.399H288.864V623.899ZM336.614 576.149V624.149H337.114V576.149H336.614ZM336.864 623.899H288.864V624.399H336.864V623.899ZM384.614 576.149V624.149H385.114V576.149H384.614ZM384.864 623.899H336.864V624.399H384.864V623.899ZM432.614 576.149V624.149H433.114V576.149H432.614ZM432.864 623.899H384.864V624.399H432.864V623.899ZM480.614 576.149V624.149H481.114V576.149H480.614ZM480.864 623.899H432.864V624.399H480.864V623.899ZM528.614 576.149V624.149H529.114V576.149H528.614ZM528.864 623.899H480.864V624.399H528.864V623.899ZM576.614 576.149V624.149H577.114V576.149H576.614ZM576.864 623.899H528.864V624.399H576.864V623.899ZM624.614 576.149V624.149H625.114V576.149H624.614ZM624.864 623.899H576.864V624.399H624.864V623.899ZM672.614 576.149V624.149H673.114V576.149H672.614ZM672.864 623.899H624.864V624.399H672.864V623.899ZM720.614 576.149V624.149H721.114V576.149H720.614ZM720.864 623.899H672.864V624.399H720.864V623.899ZM768.614 576.149V624.149H769.114V576.149H768.614ZM768.864 623.899H720.864V624.399H768.864V623.899ZM816.614 576.149V624.149H817.114V576.149H816.614ZM816.864 623.899H768.864V624.399H816.864V623.899ZM864.614 576.149V624.149H865.114V576.149H864.614ZM864.864 623.899H816.864V624.399H864.864V623.899ZM912.614 576.149V624.149H913.114V576.149H912.614ZM912.864 623.899H864.864V624.399H912.864V623.899ZM960.614 576.149V624.149H961.114V576.149H960.614ZM960.864 623.899H912.864V624.399H960.864V623.899ZM1008.61 576.149V624.149H1009.11V576.149H1008.61ZM1008.86 623.899H960.864V624.399H1008.86V623.899ZM1056.61 576.149V624.149H1057.11V576.149H1056.61ZM1056.86 623.899H1008.86V624.399H1056.86V623.899ZM1104.61 576.149V624.149H1105.11V576.149H1104.61ZM1104.86 623.899H1056.86V624.399H1104.86V623.899ZM1152.61 576.149V624.149H1153.11V576.149H1152.61ZM1152.86 623.899H1104.86V624.399H1152.86V623.899ZM1200.61 576.149V624.149H1201.11V576.149H1200.61ZM1200.86 623.899H1152.86V624.399H1200.86V623.899ZM1248.61 576.149V624.149H1249.11V576.149H1248.61ZM1248.86 623.899H1200.86V624.399H1248.86V623.899ZM1296.61 576.149V624.149H1297.11V576.149H1296.61ZM1296.86 623.899H1248.86V624.399H1296.86V623.899ZM1344.61 576.149V624.149H1345.11V576.149H1344.61ZM1344.86 623.899H1296.86V624.399H1344.86V623.899ZM1392.61 576.149V624.149H1393.11V576.149H1392.61ZM1392.86 623.899H1344.86V624.399H1392.86V623.899ZM1440.86 623.899H1392.86V624.399H1440.86V623.899ZM48.6135 624.149V672.149H49.1135V624.149H48.6135ZM48.8635 671.899H0.863525V672.399H48.8635V671.899ZM96.6135 624.149V672.149H97.1135V624.149H96.6135ZM96.8635 671.899H48.8635V672.399H96.8635V671.899ZM144.614 624.149V672.149H145.114V624.149H144.614ZM144.864 671.899H96.8635V672.399H144.864V671.899ZM192.614 624.149V672.149H193.114V624.149H192.614ZM192.864 671.899H144.864V672.399H192.864V671.899ZM240.614 624.149V672.149H241.114V624.149H240.614ZM240.864 671.899H192.864V672.399H240.864V671.899ZM288.614 624.149V672.149H289.114V624.149H288.614ZM288.864 671.899H240.864V672.399H288.864V671.899ZM336.614 624.149V672.149H337.114V624.149H336.614ZM336.864 671.899H288.864V672.399H336.864V671.899ZM384.614 624.149V672.149H385.114V624.149H384.614ZM384.864 671.899H336.864V672.399H384.864V671.899ZM432.614 624.149V672.149H433.114V624.149H432.614ZM432.864 671.899H384.864V672.399H432.864V671.899ZM480.614 624.149V672.149H481.114V624.149H480.614ZM480.864 671.899H432.864V672.399H480.864V671.899ZM528.614 624.149V672.149H529.114V624.149H528.614ZM528.864 671.899H480.864V672.399H528.864V671.899ZM576.614 624.149V672.149H577.114V624.149H576.614ZM576.864 671.899H528.864V672.399H576.864V671.899ZM624.614 624.149V672.149H625.114V624.149H624.614ZM624.864 671.899H576.864V672.399H624.864V671.899ZM672.614 624.149V672.149H673.114V624.149H672.614ZM672.864 671.899H624.864V672.399H672.864V671.899ZM720.614 624.149V672.149H721.114V624.149H720.614ZM720.864 671.899H672.864V672.399H720.864V671.899ZM768.614 624.149V672.149H769.114V624.149H768.614ZM768.864 671.899H720.864V672.399H768.864V671.899ZM816.614 624.149V672.149H817.114V624.149H816.614ZM816.864 671.899H768.864V672.399H816.864V671.899ZM864.614 624.149V672.149H865.114V624.149H864.614ZM864.864 671.899H816.864V672.399H864.864V671.899ZM912.614 624.149V672.149H913.114V624.149H912.614ZM912.864 671.899H864.864V672.399H912.864V671.899ZM960.614 624.149V672.149H961.114V624.149H960.614ZM960.864 671.899H912.864V672.399H960.864V671.899ZM1008.61 624.149V672.149H1009.11V624.149H1008.61ZM1008.86 671.899H960.864V672.399H1008.86V671.899ZM1056.61 624.149V672.149H1057.11V624.149H1056.61ZM1056.86 671.899H1008.86V672.399H1056.86V671.899ZM1104.61 624.149V672.149H1105.11V624.149H1104.61ZM1104.86 671.899H1056.86V672.399H1104.86V671.899ZM1152.61 624.149V672.149H1153.11V624.149H1152.61ZM1152.86 671.899H1104.86V672.399H1152.86V671.899ZM1200.61 624.149V672.149H1201.11V624.149H1200.61ZM1200.86 671.899H1152.86V672.399H1200.86V671.899ZM1248.61 624.149V672.149H1249.11V624.149H1248.61ZM1248.86 671.899H1200.86V672.399H1248.86V671.899ZM1296.61 624.149V672.149H1297.11V624.149H1296.61ZM1296.86 671.899H1248.86V672.399H1296.86V671.899ZM1344.61 624.149V672.149H1345.11V624.149H1344.61ZM1344.86 671.899H1296.86V672.399H1344.86V671.899ZM1392.61 624.149V672.149H1393.11V624.149H1392.61ZM1392.86 671.899H1344.86V672.399H1392.86V671.899ZM1440.86 671.899H1392.86V672.399H1440.86V671.899ZM48.6135 672.149V720.149H49.1135V672.149H48.6135ZM96.6135 672.149V720.149H97.1135V672.149H96.6135ZM144.614 672.149V720.149H145.114V672.149H144.614ZM192.614 672.149V720.149H193.114V672.149H192.614ZM240.614 672.149V720.149H241.114V672.149H240.614ZM288.614 672.149V720.149H289.114V672.149H288.614ZM336.614 672.149V720.149H337.114V672.149H336.614ZM384.614 672.149V720.149H385.114V672.149H384.614ZM432.614 672.149V720.149H433.114V672.149H432.614ZM480.614 672.149V720.149H481.114V672.149H480.614ZM528.614 672.149V720.149H529.114V672.149H528.614ZM576.614 672.149V720.149H577.114V672.149H576.614ZM624.614 672.149V720.149H625.114V672.149H624.614ZM672.614 672.149V720.149H673.114V672.149H672.614ZM720.614 672.149V720.149H721.114V672.149H720.614ZM768.614 672.149V720.149H769.114V672.149H768.614ZM816.614 672.149V720.149H817.114V672.149H816.614ZM864.614 672.149V720.149H865.114V672.149H864.614ZM912.614 672.149V720.149H913.114V672.149H912.614ZM960.614 672.149V720.149H961.114V672.149H960.614ZM1008.61 672.149V720.149H1009.11V672.149H1008.61ZM1056.61 672.149V720.149H1057.11V672.149H1056.61ZM1104.61 672.149V720.149H1105.11V672.149H1104.61ZM1152.61 672.149V720.149H1153.11V672.149H1152.61ZM1200.61 672.149V720.149H1201.11V672.149H1200.61ZM1248.61 672.149V720.149H1249.11V672.149H1248.61ZM1296.61 672.149V720.149H1297.11V672.149H1296.61ZM1344.61 672.149V720.149H1345.11V672.149H1344.61ZM1392.61 672.149V720.149H1393.11V672.149H1392.61ZM0.863525 0.149414V-0.350586H0.363525V0.149414H0.863525ZM1440.86 0.149414H1441.36V-0.350586H1440.86V0.149414ZM0.863525 720.149H0.363525V720.649H0.863525V720.149ZM1440.86 720.149V720.649H1441.36V720.149H1440.86ZM0.863525 0.649414H48.8635V-0.350586H0.863525V0.649414ZM1.36353 48.1494V0.149414H0.363525V48.1494H1.36353ZM48.8635 0.649414H96.8635V-0.350586H48.8635V0.649414ZM96.8635 0.649414H144.864V-0.350586H96.8635V0.649414ZM144.864 0.649414H192.864V-0.350586H144.864V0.649414ZM192.864 0.649414H240.864V-0.350586H192.864V0.649414ZM240.864 0.649414H288.864V-0.350586H240.864V0.649414ZM288.864 0.649414H336.864V-0.350586H288.864V0.649414ZM336.864 0.649414H384.864V-0.350586H336.864V0.649414ZM384.864 0.649414H432.864V-0.350586H384.864V0.649414ZM432.864 0.649414H480.864V-0.350586H432.864V0.649414ZM480.864 0.649414H528.864V-0.350586H480.864V0.649414ZM528.864 0.649414H576.864V-0.350586H528.864V0.649414ZM576.864 0.649414H624.864V-0.350586H576.864V0.649414ZM624.864 0.649414H672.864V-0.350586H624.864V0.649414ZM672.864 0.649414H720.864V-0.350586H672.864V0.649414ZM720.864 0.649414H768.864V-0.350586H720.864V0.649414ZM768.864 0.649414H816.864V-0.350586H768.864V0.649414ZM816.864 0.649414H864.864V-0.350586H816.864V0.649414ZM864.864 0.649414H912.864V-0.350586H864.864V0.649414ZM912.864 0.649414H960.864V-0.350586H912.864V0.649414ZM960.864 0.649414H1008.86V-0.350586H960.864V0.649414ZM1008.86 0.649414H1056.86V-0.350586H1008.86V0.649414ZM1056.86 0.649414H1104.86V-0.350586H1056.86V0.649414ZM1104.86 0.649414H1152.86V-0.350586H1104.86V0.649414ZM1152.86 0.649414H1200.86V-0.350586H1152.86V0.649414ZM1200.86 0.649414H1248.86V-0.350586H1200.86V0.649414ZM1248.86 0.649414H1296.86V-0.350586H1248.86V0.649414ZM1296.86 0.649414H1344.86V-0.350586H1296.86V0.649414ZM1344.86 0.649414H1392.86V-0.350586H1344.86V0.649414ZM1392.86 0.649414H1440.86V-0.350586H1392.86V0.649414ZM1440.36 0.149414V48.1494H1441.36V0.149414H1440.36ZM1.36353 96.1494V48.1494H0.363525V96.1494H1.36353ZM1440.36 48.1494V96.1494H1441.36V48.1494H1440.36ZM1.36353 144.149V96.1494H0.363525V144.149H1.36353ZM1440.36 96.1494V144.149H1441.36V96.1494H1440.36ZM1.36353 192.149V144.149H0.363525V192.149H1.36353ZM1440.36 144.149V192.149H1441.36V144.149H1440.36ZM1.36353 240.149V192.149H0.363525V240.149H1.36353ZM1440.36 192.149V240.149H1441.36V192.149H1440.36ZM1.36353 288.149V240.149H0.363525V288.149H1.36353ZM1440.36 240.149V288.149H1441.36V240.149H1440.36ZM1.36353 336.149V288.149H0.363525V336.149H1.36353ZM1440.36 288.149V336.149H1441.36V288.149H1440.36ZM1.36353 384.149V336.149H0.363525V384.149H1.36353ZM1440.36 336.149V384.149H1441.36V336.149H1440.36ZM1.36353 432.149V384.149H0.363525V432.149H1.36353ZM1440.36 384.149V432.149H1441.36V384.149H1440.36ZM1.36353 480.149V432.149H0.363525V480.149H1.36353ZM1440.36 432.149V480.149H1441.36V432.149H1440.36ZM1.36353 528.149V480.149H0.363525V528.149H1.36353ZM1440.36 480.149V528.149H1441.36V480.149H1440.36ZM1.36353 576.149V528.149H0.363525V576.149H1.36353ZM1440.36 528.149V576.149H1441.36V528.149H1440.36ZM1.36353 624.149V576.149H0.363525V624.149H1.36353ZM1440.36 576.149V624.149H1441.36V576.149H1440.36ZM1.36353 672.149V624.149H0.363525V672.149H1.36353ZM1440.36 624.149V672.149H1441.36V624.149H1440.36ZM48.8635 719.649H0.863525V720.649H48.8635V719.649ZM1.36353 720.149V672.149H0.363525V720.149H1.36353ZM96.8635 719.649H48.8635V720.649H96.8635V719.649ZM144.864 719.649H96.8635V720.649H144.864V719.649ZM192.864 719.649H144.864V720.649H192.864V719.649ZM240.864 719.649H192.864V720.649H240.864V719.649ZM288.864 719.649H240.864V720.649H288.864V719.649ZM336.864 719.649H288.864V720.649H336.864V719.649ZM384.864 719.649H336.864V720.649H384.864V719.649ZM432.864 719.649H384.864V720.649H432.864V719.649ZM480.864 719.649H432.864V720.649H480.864V719.649ZM528.864 719.649H480.864V720.649H528.864V719.649ZM576.864 719.649H528.864V720.649H576.864V719.649ZM624.864 719.649H576.864V720.649H624.864V719.649ZM672.864 719.649H624.864V720.649H672.864V719.649ZM720.864 719.649H672.864V720.649H720.864V719.649ZM768.864 719.649H720.864V720.649H768.864V719.649ZM816.864 719.649H768.864V720.649H816.864V719.649ZM864.864 719.649H816.864V720.649H864.864V719.649ZM912.864 719.649H864.864V720.649H912.864V719.649ZM960.864 719.649H912.864V720.649H960.864V719.649ZM1008.86 719.649H960.864V720.649H1008.86V719.649ZM1056.86 719.649H1008.86V720.649H1056.86V719.649ZM1104.86 719.649H1056.86V720.649H1104.86V719.649ZM1152.86 719.649H1104.86V720.649H1152.86V719.649ZM1200.86 719.649H1152.86V720.649H1200.86V719.649ZM1248.86 719.649H1200.86V720.649H1248.86V719.649ZM1296.86 719.649H1248.86V720.649H1296.86V719.649ZM1344.86 719.649H1296.86V720.649H1344.86V719.649ZM1392.86 719.649H1344.86V720.649H1392.86V719.649ZM1440.36 672.149V720.149H1441.36V672.149H1440.36ZM1440.86 719.649H1392.86V720.649H1440.86V719.649Z" fill="#BFBFBF" fill-opacity="0.6" mask="url(#path-1-inside-1_275_942)"/>
</g>
</g>
</svg>
