<svg viewBox="0 0 64 59" fill="none" xmlns="http://www.w3.org/2000/svg">
<g id="Frame 61">
<path id="Exclude" fill-rule="evenodd" clip-rule="evenodd" d="M59.439 31.4133C59.4794 30.7807 59.5 30.1428 59.5 29.5C59.5 15.8864 50.2785 4.42653 37.7411 1.02614C39.7057 0.360785 41.8107 0 44 0C54.7696 0 63.5 8.73045 63.5 19.5C63.5 23.9861 61.9851 28.1184 59.439 31.4133ZM59.439 31.4133C58.4531 46.814 45.6496 59 30 59C13.7076 59 0.5 45.7924 0.5 29.5C0.5 13.2076 13.7076 0 30 0C32.6788 0 35.2741 0.357046 37.7411 1.02614C30.0417 3.63381 24.5 10.9197 24.5 19.5C24.5 30.2696 33.2304 39 44 39C50.2834 39 55.8727 36.0281 59.439 31.4133Z" fill="#6C40E9"/>
</g>
</svg>
