<svg width="73" height="68" viewBox="0 0 73 68" fill="none" xmlns="http://www.w3.org/2000/svg">
<g id="logo-intro">
<g id="Exclude">
<mask id="path-1-inside-1_215_11" fill="white">
<path fill-rule="evenodd" clip-rule="evenodd" d="M67.8588 35.9009C67.9051 35.178 67.9286 34.4489 67.9286 33.7143C67.9286 18.1559 57.3897 5.0589 43.0613 1.17274C45.3065 0.412326 47.7122 0 50.2143 0C62.5224 0 72.5 9.97765 72.5 22.2857C72.5 27.4127 70.7687 32.1354 67.8588 35.9009ZM67.8588 35.9009C66.7321 53.5017 52.0996 67.4286 34.2143 67.4286C15.5944 67.4286 0.5 52.3342 0.5 33.7143C0.5 15.0944 15.5944 0 34.2143 0C37.2757 0 40.2419 0.408053 43.0613 1.17274C34.2619 4.15293 27.9286 12.4797 27.9286 22.2857C27.9286 34.5938 37.9062 44.5714 50.2143 44.5714C57.3953 44.5714 63.7831 41.175 67.8588 35.9009Z" stroke="#D9D9D9" stroke-width="0.5"/>
</mask>
<path fill-rule="evenodd" clip-rule="evenodd" d="M67.8588 35.9009C67.9051 35.178 67.9286 34.4489 67.9286 33.7143C67.9286 18.1559 57.3897 5.0589 43.0613 1.17274C45.3065 0.412326 47.7122 0 50.2143 0C62.5224 0 72.5 9.97765 72.5 22.2857C72.5 27.4127 70.7687 32.1354 67.8588 35.9009ZM67.8588 35.9009C66.7321 53.5017 52.0996 67.4286 34.2143 67.4286C15.5944 67.4286 0.5 52.3342 0.5 33.7143C0.5 15.0944 15.5944 0 34.2143 0C37.2757 0 40.2419 0.408053 43.0613 1.17274C34.2619 4.15293 27.9286 12.4797 27.9286 22.2857C27.9286 34.5938 37.9062 44.5714 50.2143 44.5714C57.3953 44.5714 63.7831 41.175 67.8588 35.9009Z" fill="#6C40E9" stroke="#D9D9D9" stroke-width="0.5"/>
<path d="M67.4286 33.7143C67.4286 34.4382 67.4054 35.1567 67.3598 35.8689L68.3578 35.9328C68.4047 35.1993 68.4286 34.4595 68.4286 33.7143H67.4286ZM42.9304 1.6553C57.0465 5.48388 67.4286 18.3873 67.4286 33.7143H68.4286C68.4286 17.9244 57.7329 4.63391 43.1922 0.690171L42.9304 1.6553ZM43.2217 1.64631C45.4159 0.903172 47.7675 0.5 50.2143 0.5V-0.5C47.657 -0.5 45.1971 -0.0785194 42.9009 0.699161L43.2217 1.64631ZM50.2143 0.5C62.2462 0.5 72 10.2538 72 22.2857H73C73 9.70151 62.7985 -0.5 50.2143 -0.5V0.5ZM72 22.2857C72 27.2982 70.3078 31.9141 67.4632 35.5951L68.2544 36.2066C71.2296 32.3566 73 27.5272 73 22.2857H72ZM67.3598 35.8689C66.2498 53.2082 51.8341 66.9286 34.2143 66.9286V67.9286C52.365 67.9286 67.2143 53.7951 68.3578 35.9328L67.3598 35.8689ZM34.2143 66.9286C15.8705 66.9286 1 52.058 1 33.7143H0C0 52.6103 15.3183 67.9286 34.2143 67.9286V66.9286ZM1 33.7143C1 15.3705 15.8705 0.5 34.2143 0.5V-0.5C15.3183 -0.5 0 14.8183 0 33.7143H1ZM34.2143 0.5C37.2311 0.5 40.1533 0.902084 42.9304 1.6553L43.1922 0.690171C40.3305 -0.0859786 37.3203 -0.5 34.2143 -0.5V0.5ZM28.4286 22.2857C28.4286 12.7005 34.6192 4.55984 43.2217 1.64631L42.9009 0.699161C33.9047 3.74602 27.4286 12.2589 27.4286 22.2857H28.4286ZM50.2143 44.0714C38.1824 44.0714 28.4286 34.3176 28.4286 22.2857H27.4286C27.4286 34.8699 37.6301 45.0714 50.2143 45.0714V44.0714ZM67.4632 35.5951C63.4781 40.752 57.234 44.0714 50.2143 44.0714V45.0714C57.5567 45.0714 64.0881 41.598 68.2544 36.2066L67.4632 35.5951Z" fill="#D9D9D9" mask="url(#path-1-inside-1_215_11)" stroke="#D9D9D9" stroke-width="0.5"/>
</g>
</g>
</svg>
